<svg width="16" height="16" viewBox="0 0 16 16" fill="none" xmlns="http://www.w3.org/2000/svg">
<g clip-path="url(#clip0_297_2731)">
<path d="M4.83031 1.66487L5.04766 1.5414C5.0762 1.52518 5.10128 1.50351 5.12145 1.4776C5.14162 1.4517 5.15649 1.42207 5.16521 1.39042C5.17393 1.35877 5.17633 1.32571 5.17228 1.29313C5.16822 1.26055 5.15779 1.22909 5.14158 1.20054C5.12536 1.17199 5.10368 1.14692 5.07778 1.12675C5.05188 1.10658 5.02225 1.09171 4.9906 1.08299C4.92668 1.06537 4.85837 1.07387 4.80072 1.10662L4.58335 1.23009L4.33641 0.795309C4.30366 0.737658 4.24935 0.695378 4.18543 0.67777C4.1215 0.660162 4.0532 0.668669 3.99555 0.701419C3.9379 0.734169 3.89562 0.788479 3.87801 0.852402C3.86041 0.916325 3.86891 0.984625 3.90166 1.04228L4.1486 1.47702L3.93122 1.60049C3.90268 1.61671 3.8776 1.63838 3.85743 1.66429C3.83726 1.69019 3.82239 1.71982 3.81367 1.75147C3.80495 1.78312 3.80255 1.81618 3.8066 1.84876C3.81066 1.88134 3.82109 1.9128 3.8373 1.94135C3.85352 1.9699 3.8752 1.99497 3.9011 2.01514C3.927 2.03531 3.95663 2.05018 3.98828 2.0589C4.01993 2.06762 4.05299 2.07003 4.08557 2.06597C4.11815 2.06192 4.14961 2.05148 4.17816 2.03527L4.39553 1.9118L5.63018 4.08563C5.64639 4.11419 5.66807 4.13927 5.69397 4.15945C5.71988 4.17962 5.74951 4.19449 5.78116 4.20321C5.81282 4.21193 5.84588 4.21433 5.87847 4.21027C5.91105 4.20621 5.94251 4.19577 5.97106 4.17954C6.02871 4.14679 6.07099 4.09249 6.0886 4.02857C6.10621 3.96465 6.09771 3.89635 6.06496 3.8387L4.83031 1.66487ZM12.0685 1.60049L11.8511 1.47702L12.0981 1.04228C12.1143 1.01373 12.1247 0.98227 12.1288 0.949691C12.1328 0.917113 12.1305 0.884054 12.1217 0.852402C12.113 0.820751 12.0981 0.791126 12.078 0.76522C12.0578 0.739315 12.0327 0.717635 12.0042 0.701419C11.9756 0.685203 11.9442 0.674768 11.9116 0.67071C11.879 0.666652 11.846 0.669051 11.8143 0.67777C11.7827 0.686488 11.753 0.701356 11.7271 0.721523C11.7012 0.74169 11.6796 0.766763 11.6633 0.795309L11.4164 1.23009L11.199 1.10662C11.1414 1.07498 11.0737 1.06728 11.0105 1.08518C10.9473 1.10308 10.8937 1.14514 10.8612 1.20227C10.8288 1.2594 10.8201 1.32701 10.8371 1.39047C10.8541 1.45393 10.8954 1.50815 10.9521 1.5414L11.1694 1.66487L9.93478 3.8387C9.90204 3.89635 9.89354 3.96465 9.91115 4.02858C9.92876 4.0925 9.97105 4.14681 10.0287 4.17955C10.0864 4.2123 10.1547 4.2208 10.2186 4.20319C10.2825 4.18557 10.3368 4.14329 10.3696 4.08563L11.6042 1.9118L11.8216 2.03527C11.8501 2.0515 11.8816 2.06194 11.9142 2.066C11.9468 2.07006 11.9798 2.06767 12.0115 2.05895C12.0431 2.05022 12.0728 2.03535 12.0987 2.01518C12.1246 1.995 12.1462 1.96992 12.1625 1.94136C12.1787 1.91282 12.1891 1.88135 12.1932 1.84877C12.1972 1.81619 12.1948 1.78312 12.1861 1.75147C12.1774 1.71982 12.1625 1.69019 12.1423 1.66429C12.1222 1.63838 12.0971 1.6167 12.0685 1.60049Z" fill="url(#paint0_linear_297_2731)"/>
<path d="M13.7896 7.17755L9.44192 4.70822L9.00715 4.46132L8.39896 5.53215L10.0442 6.64165C10.8207 7.16524 11.4207 7.8992 11.7795 8.7642L12.4903 10.4775L14.2243 7.42449L13.7896 7.17755ZM6.80097 4.28363L1.87116 7.08352L1.99462 7.30093L1.99469 7.30102L1.77734 7.42446L3.5114 10.4775L4.22214 8.76417C4.58095 7.89917 5.18104 7.16521 5.95744 6.64162L7.60275 5.53212L6.97075 4.41947L6.80097 4.28363Z" fill="url(#paint1_linear_297_2731)"/>
<path d="M1.16016 6.33963L6.38013 3.37565L7.12112 4.68064L1.90115 7.64462L1.16016 6.33963ZM8.8853 4.67389L9.62629 3.3689L14.8463 6.33288L14.1053 7.63787L8.8853 4.67389Z" fill="url(#paint2_linear_297_2731)"/>
<path d="M3.13439 5.16876H1.11556C0.500435 5.16876 0 5.6692 0 6.28432V11.6687H4.24998V6.28435C4.24994 5.66923 3.74951 5.16876 3.13439 5.16876ZM14.8843 5.16876H12.8655C12.2504 5.16876 11.7499 5.6692 11.7499 6.28432V11.6687H15.9999V6.28435C15.9999 5.66923 15.4994 5.16876 14.8843 5.16876Z" fill="url(#paint3_linear_297_2731)"/>
<path d="M12.1326 11.1687C12.0842 11.1688 12.0364 11.1575 11.993 11.1358C11.6774 10.9779 11.3083 10.9922 11.0058 11.1737L10.5209 11.4646C10.4391 11.5138 10.3454 11.5398 10.25 11.5398C10.1545 11.5398 10.0608 11.5138 9.97904 11.4646L9.52813 11.1941C9.36865 11.0982 9.18606 11.0475 8.99996 11.0475C8.81386 11.0475 8.63128 11.0982 8.47179 11.1941L8.02089 11.4646C7.93909 11.5138 7.84543 11.5398 7.74997 11.5398C7.65451 11.5398 7.56085 11.5138 7.47905 11.4646L7.02815 11.1941C6.86866 11.0982 6.68607 11.0475 6.49997 11.0475C6.31387 11.0475 6.13129 11.0982 5.97181 11.1941L5.5845 11.4265C5.47362 11.4931 5.34885 11.5331 5.21995 11.5434C5.09105 11.5537 4.9615 11.5341 4.84144 11.4861L4.10398 11.1911C4.0671 11.1763 4.02775 11.1688 3.98804 11.1687H0.312186C0.13978 11.1687 0 11.3085 0 11.4809V14.9714C0 15.214 0.264686 15.3639 0.472778 15.2391L1.17596 14.8173C1.27383 14.7584 1.38594 14.7272 1.5002 14.7273C1.61447 14.7273 1.72656 14.7585 1.8244 14.8175L2.16842 15.0236C2.34392 15.1294 2.54492 15.1853 2.74982 15.1853C2.95471 15.1853 3.15574 15.1295 3.33126 15.0238L3.67595 14.8174C3.77382 14.7584 3.88593 14.7273 4.00019 14.7273C4.11445 14.7273 4.22654 14.7585 4.32438 14.8176L4.66841 15.0236C4.8439 15.1294 5.04491 15.1853 5.2498 15.1853C5.4547 15.1854 5.65572 15.1295 5.83125 15.0238L6.17593 14.8174C6.2738 14.7584 6.38591 14.7273 6.50017 14.7273C6.61444 14.7274 6.72653 14.7586 6.82437 14.8176L7.1684 15.0237C7.34389 15.1294 7.54489 15.1853 7.74979 15.1854C7.95468 15.1854 8.15571 15.1295 8.33123 15.0238L8.67592 14.8174C8.77379 14.7585 8.8859 14.7273 9.00016 14.7274C9.11442 14.7274 9.22651 14.7586 9.32435 14.8176L9.66838 15.0237C9.84387 15.1294 10.0449 15.1854 10.2498 15.1854C10.4547 15.1854 10.6557 15.1296 10.8312 15.0239L11.1759 14.8175C11.2738 14.7585 11.3859 14.7274 11.5001 14.7274C11.6144 14.7274 11.7265 14.7586 11.8243 14.8177L12.1684 15.0237C12.3439 15.1295 12.5449 15.1854 12.7498 15.1854C12.9547 15.1855 13.1557 15.1296 13.3312 15.0239L13.6759 14.8175C13.7738 14.7585 13.8859 14.7274 14.0001 14.7274C14.1144 14.7275 14.2265 14.7587 14.3243 14.8177L14.6684 15.0238C14.844 15.1295 15.0451 15.1854 15.2501 15.1854C15.4551 15.1853 15.6562 15.1294 15.8318 15.0236L15.8489 15.0133C15.895 14.9855 15.9331 14.9463 15.9596 14.8994C15.986 14.8526 15.9999 14.7997 15.9999 14.7459V11.4809C15.9999 11.3085 15.8601 11.1687 15.6877 11.1687H12.1326Z" fill="url(#paint4_linear_297_2731)"/>
<path d="M0.250244 15.3312C0.195545 15.3313 0.142339 15.3134 0.0987823 15.2803C0.0552258 15.2472 0.0237218 15.2007 0.00909939 15.148C-0.00552305 15.0953 -0.00245708 15.0393 0.0178273 14.9885C0.0381117 14.9377 0.0744953 14.8949 0.121401 14.8668L0.918584 14.3887C1.09412 14.2829 1.29517 14.2271 1.50009 14.2271C1.70502 14.2271 1.90606 14.283 2.08158 14.3888L2.42561 14.5948C2.52345 14.6538 2.63554 14.685 2.7498 14.6851C2.86406 14.6851 2.97616 14.654 3.07404 14.595L3.41873 14.3886C3.59425 14.2829 3.79528 14.2271 4.00017 14.2271C4.20506 14.2271 4.40607 14.283 4.58156 14.3888L4.92559 14.5948C5.02343 14.6539 5.13552 14.6851 5.24978 14.6851C5.36404 14.6851 5.47615 14.654 5.57403 14.595L5.91871 14.3886C6.09424 14.2829 6.29526 14.2271 6.50016 14.2271C6.70505 14.2272 6.90606 14.2831 7.08155 14.3888L7.42558 14.5949C7.52342 14.6539 7.63551 14.6851 7.74977 14.6851C7.86403 14.6852 7.97613 14.654 8.07401 14.5951L8.4187 14.3887C8.59422 14.283 8.79525 14.2271 9.00014 14.2272C9.20504 14.2272 9.40604 14.2831 9.58153 14.3888L9.92556 14.5949C10.0234 14.6539 10.1355 14.6851 10.2498 14.6852C10.364 14.6852 10.4761 14.6541 10.574 14.5951L10.9187 14.3887C11.0942 14.283 11.2952 14.2272 11.5001 14.2272C11.705 14.2272 11.906 14.2831 12.0815 14.3889L12.4255 14.5949C12.5234 14.654 12.6355 14.6852 12.7497 14.6852C12.864 14.6852 12.9761 14.6541 13.074 14.5951L13.4187 14.3887C13.5942 14.283 13.7952 14.2272 14.0001 14.2272C14.205 14.2273 14.406 14.2832 14.5815 14.3889L14.9255 14.595C15.0234 14.654 15.1355 14.6852 15.2497 14.6852C15.364 14.6853 15.4761 14.6541 15.574 14.5952L15.6208 14.5669C15.649 14.55 15.6801 14.5387 15.7126 14.5338C15.7451 14.5289 15.7782 14.5305 15.8101 14.5384C15.8419 14.5463 15.8719 14.5604 15.8983 14.5799C15.9248 14.5993 15.9471 14.6239 15.964 14.652C15.9983 14.7088 16.0085 14.7768 15.9926 14.8412C15.9766 14.9055 15.9358 14.9609 15.879 14.9951L15.8318 15.0236C15.6562 15.1294 15.4551 15.1853 15.2501 15.1854C15.0451 15.1854 14.844 15.1295 14.6683 15.0238L14.3243 14.8177C14.2265 14.7587 14.1144 14.7275 14.0001 14.7274C13.8859 14.7274 13.7738 14.7585 13.6759 14.8175L13.3312 15.0239C13.1557 15.1296 12.9546 15.1854 12.7498 15.1854C12.5449 15.1854 12.3439 15.1295 12.1684 15.0237L11.8243 14.8177C11.7265 14.7586 11.6144 14.7274 11.5001 14.7274C11.3859 14.7274 11.2738 14.7585 11.1759 14.8175L10.8312 15.0239C10.6557 15.1296 10.4547 15.1854 10.2498 15.1854C10.0449 15.1853 9.84387 15.1294 9.66838 15.0237L9.32435 14.8176C9.22651 14.7586 9.11442 14.7274 9.00016 14.7274C8.88589 14.7273 8.77379 14.7585 8.67591 14.8174L8.33123 15.0238C8.1557 15.1295 7.95468 15.1854 7.74978 15.1854C7.54489 15.1853 7.34388 15.1294 7.16839 15.0237L6.82436 14.8176C6.72652 14.7586 6.61443 14.7274 6.50017 14.7273C6.38591 14.7273 6.2738 14.7584 6.17593 14.8174L5.83124 15.0238C5.65572 15.1295 5.45469 15.1854 5.2498 15.1853C5.0449 15.1853 4.8439 15.1294 4.66841 15.0236L4.32438 14.8176C4.22654 14.7585 4.11445 14.7273 4.00019 14.7273C3.88592 14.7273 3.77381 14.7584 3.67594 14.8174L3.33126 15.0238C3.15573 15.1295 2.95471 15.1853 2.74981 15.1853C2.54492 15.1853 2.34391 15.1294 2.16842 15.0236L1.82439 14.8175C1.72655 14.7585 1.61446 14.7273 1.5002 14.7273C1.38594 14.7272 1.27383 14.7584 1.17596 14.8173L0.378587 15.2956C0.339843 15.3189 0.295471 15.3312 0.250244 15.3312ZM0.250244 13.8312C0.195545 13.8313 0.142339 13.8134 0.0987823 13.7803C0.0552258 13.7472 0.0237218 13.7007 0.00909939 13.648C-0.00552305 13.5953 -0.00245708 13.5393 0.0178273 13.4885C0.0381117 13.4377 0.0744953 13.3949 0.121401 13.3668L0.918584 12.8887C1.09412 12.7829 1.29517 12.7271 1.50009 12.7271C1.70502 12.7271 1.90606 12.783 2.08158 12.8888L2.42561 13.0948C2.52345 13.1538 2.63554 13.185 2.7498 13.1851C2.86406 13.1851 2.97616 13.154 3.07404 13.095L3.41873 12.8886C3.59425 12.7829 3.79528 12.7271 4.00017 12.7271C4.20506 12.7271 4.40607 12.783 4.58156 12.8888L4.92559 13.0949C5.02344 13.1539 5.13552 13.1851 5.24978 13.1851C5.36404 13.1851 5.47615 13.154 5.57403 13.095L5.91871 12.8886C6.09424 12.7829 6.29526 12.7271 6.50016 12.7271C6.70505 12.7272 6.90606 12.7831 7.08155 12.8888L7.42558 13.0949C7.52342 13.1539 7.63551 13.1851 7.74977 13.1851C7.86403 13.1852 7.97613 13.154 8.07401 13.0951L8.4187 12.8887C8.59422 12.783 8.79525 12.7271 9.00014 12.7272C9.20504 12.7272 9.40604 12.7831 9.58153 12.8889L9.92556 13.0949C10.0234 13.1539 10.1355 13.1851 10.2498 13.1852C10.364 13.1852 10.4761 13.1541 10.574 13.0951L10.9187 12.8887C11.0942 12.783 11.2952 12.7272 11.5001 12.7272C11.705 12.7272 11.906 12.7831 12.0815 12.8889L12.4255 13.0949C12.5234 13.154 12.6355 13.1852 12.7497 13.1852C12.864 13.1852 12.9761 13.1541 13.074 13.0951L13.4187 12.8887C13.5942 12.783 13.7952 12.7272 14.0001 12.7272C14.205 12.7273 14.406 12.7832 14.5815 12.8889L14.9255 13.095C15.0234 13.154 15.1355 13.1852 15.2497 13.1852C15.364 13.1853 15.4761 13.1541 15.574 13.0952L15.6208 13.0669C15.6776 13.0327 15.7457 13.0224 15.81 13.0384C15.8744 13.0543 15.9298 13.0952 15.964 13.1519C15.9983 13.2087 16.0085 13.2768 15.9926 13.3412C15.9766 13.4055 15.9358 13.4609 15.879 13.4951L15.8318 13.5236C15.6562 13.6294 15.4551 13.6854 15.2501 13.6854C15.0451 13.6854 14.844 13.6295 14.6683 13.5238L14.3243 13.3177C14.2265 13.2587 14.1144 13.2275 14.0001 13.2274C13.8859 13.2274 13.7738 13.2585 13.6759 13.3175L13.3312 13.5239C13.1557 13.6296 12.9546 13.6855 12.7498 13.6854C12.5449 13.6854 12.3439 13.6295 12.1684 13.5237L11.8243 13.3177C11.7265 13.2586 11.6144 13.2274 11.5001 13.2274C11.3859 13.2274 11.2738 13.2585 11.1759 13.3175L10.8312 13.5239C10.6557 13.6296 10.4547 13.6854 10.2498 13.6854C10.0449 13.6854 9.84387 13.6295 9.66838 13.5237L9.32435 13.3176C9.22651 13.2586 9.11442 13.2274 9.00016 13.2274C8.88589 13.2273 8.77379 13.2585 8.67591 13.3174L8.33123 13.5239C8.1557 13.6296 7.95468 13.6854 7.74978 13.6854C7.54489 13.6853 7.34388 13.6294 7.16839 13.5237L6.82436 13.3176C6.72652 13.2586 6.61443 13.2274 6.50017 13.2273C6.38591 13.2273 6.2738 13.2584 6.17593 13.3174L5.83124 13.5238C5.65572 13.6295 5.45469 13.6854 5.2498 13.6853C5.0449 13.6853 4.8439 13.6294 4.66841 13.5236L4.32438 13.3176C4.22654 13.2585 4.11445 13.2273 4.00019 13.2273C3.88592 13.2273 3.77381 13.2584 3.67594 13.3174L3.33126 13.5238C3.15573 13.6295 2.95471 13.6853 2.74981 13.6853C2.54492 13.6853 2.34391 13.6294 2.16842 13.5236L1.82439 13.3175C1.72655 13.2585 1.61446 13.2273 1.5002 13.2273C1.38594 13.2272 1.27383 13.2584 1.17596 13.3174L0.378587 13.7956C0.339843 13.8189 0.295471 13.8312 0.250244 13.8312Z" fill="url(#paint5_linear_297_2731)"/>
</g>
<defs>
<linearGradient id="paint0_linear_297_2731" x1="7.99988" y1="0.668793" x2="7.99988" y2="4.21219" gradientUnits="userSpaceOnUse">
<stop stop-color="#0B7A66"/>
<stop offset="1" stop-color="#AEEFE3"/>
</linearGradient>
<linearGradient id="paint1_linear_297_2731" x1="8.00084" y1="4.28363" x2="8.00084" y2="10.4775" gradientUnits="userSpaceOnUse">
<stop stop-color="#0B7A66"/>
<stop offset="1" stop-color="#AEEFE3"/>
</linearGradient>
<linearGradient id="paint2_linear_297_2731" x1="8.00321" y1="3.3689" x2="8.00321" y2="7.64462" gradientUnits="userSpaceOnUse">
<stop stop-color="#0B7A66"/>
<stop offset="1" stop-color="#AEEFE3"/>
</linearGradient>
<linearGradient id="paint3_linear_297_2731" x1="7.99995" y1="5.16876" x2="7.99995" y2="11.6687" gradientUnits="userSpaceOnUse">
<stop stop-color="#0B7A66"/>
<stop offset="1" stop-color="#AEEFE3"/>
</linearGradient>
<linearGradient id="paint4_linear_297_2731" x1="7.99995" y1="11.0267" x2="7.99995" y2="15.284" gradientUnits="userSpaceOnUse">
<stop stop-color="#0B7A66"/>
<stop offset="1" stop-color="#AEEFE3"/>
</linearGradient>
<linearGradient id="paint5_linear_297_2731" x1="7.99996" y1="12.7271" x2="7.99996" y2="15.3312" gradientUnits="userSpaceOnUse">
<stop stop-color="#0B7A66"/>
<stop offset="1" stop-color="#AEEFE3"/>
</linearGradient>
<clipPath id="clip0_297_2731">
<rect width="16" height="16" fill="white"/>
</clipPath>
</defs>
</svg>
