<svg width="16" height="16" viewBox="0 0 16 16" fill="none" xmlns="http://www.w3.org/2000/svg">
<path d="M14.9942 7.04581C14.7536 6.92597 14.4994 6.65888 14.6682 5.64922C14.8266 4.70206 14.5333 4.50828 14.1334 4.35338C14.11 4.34435 14.0865 4.33522 14.0629 4.32563C14.0349 4.31428 14.0295 4.26988 14.0379 4.11913C14.0497 3.90391 14.0716 3.50325 13.5275 3.43016C13.261 3.39441 13.0819 3.43444 12.98 3.55275C12.8431 3.71172 12.9056 3.92741 12.9512 4.08491C12.9625 4.12012 12.9716 4.15599 12.9785 4.19231C12.9845 4.24078 12.9702 4.27416 12.9373 4.34503C12.8737 4.4681 12.8405 4.60462 12.8405 4.74316C12.8405 4.95566 12.8012 5.02885 12.3844 5.3221C12.2676 5.39932 12.1441 5.46579 12.0153 5.52069C11.7161 5.65885 11.3768 5.81544 11.3239 6.30085C11.2806 6.69819 11.04 6.97541 10.9608 6.98928C10.9516 6.97789 10.9443 6.96514 10.9391 6.9515C10.8829 6.81775 10.7954 6.72806 10.6793 6.68488C10.4387 6.59538 10.1587 6.73447 9.88784 6.86891C9.85218 6.8866 9.81681 6.90416 9.78206 6.92088C9.55949 7.028 9.31331 7.07606 9.18765 7.07713C9.21384 7.03497 9.24871 6.9901 9.28278 6.94613C9.38903 6.80931 9.54946 6.60238 9.40465 6.40041C9.25574 6.19275 9.08362 6.26944 8.95778 6.32541C8.85141 6.37586 8.73943 6.41349 8.62418 6.4375C8.34293 6.49522 8.22299 6.64497 8.13537 6.75431C8.06809 6.83831 8.03787 6.87275 7.96481 6.88188C7.66271 6.91953 7.67521 7.22228 7.68193 7.385C7.6854 7.4696 7.69065 7.5975 7.65524 7.62325C7.52321 7.71959 7.38484 7.91228 7.39309 8.10763C7.39383 8.12632 7.39 8.1449 7.38194 8.16178C7.37388 8.17866 7.36184 8.19332 7.34684 8.2045C7.33394 8.21456 7.31875 8.22125 7.30262 8.22398C7.2865 8.22671 7.26995 8.22539 7.25446 8.22013C7.20312 8.20263 7.19487 8.18225 7.19487 8.14028C7.19286 8.08705 7.19525 8.03374 7.20203 7.98091C7.20634 7.97678 7.21296 7.97085 7.21859 7.96581C7.29617 7.89738 7.36334 7.81799 7.41799 7.73016C7.6889 7.31716 7.42165 6.97844 7.41009 6.96422C7.38969 6.93899 7.36194 6.92074 7.33068 6.91203C7.10724 6.84953 6.97828 7.04166 6.87465 7.19591C6.75012 7.38128 6.60903 7.59141 6.30003 7.62469C5.87034 7.67097 5.83084 7.6295 5.77115 7.56663C5.68193 7.46719 5.5685 7.39253 5.4419 7.34988C5.16128 7.245 4.68321 7.32822 4.2209 7.40866C3.97953 7.45066 3.61465 7.51416 3.53418 7.482C3.53296 7.48153 3.53218 7.48113 3.53187 7.48103C3.52874 7.47516 3.50018 7.40847 3.57784 7.19784C3.57917 7.19413 3.58132 7.19077 3.58413 7.188C3.58693 7.18523 3.59033 7.18313 3.59406 7.18185C3.59846 7.18016 3.60319 7.17945 3.6079 7.17979C3.61261 7.18012 3.61718 7.18149 3.62131 7.18378C3.81024 7.2861 4.00187 7.292 4.17537 7.20081C4.3364 7.11613 4.42046 6.94391 4.40009 6.74003C4.3734 6.47213 4.15612 6.14516 3.79259 6.03856C3.48496 5.94841 3.29831 6.18544 3.11803 6.41475C2.90781 6.68216 2.66956 6.98522 2.17153 7.06572C2.00792 7.08953 1.85124 7.1478 1.71184 7.23669C1.57244 7.32558 1.4535 7.44305 1.3629 7.58135C1.01881 8.0891 0.991963 8.887 1.11809 9.4525C1.19406 9.79331 1.13806 9.9216 1.11046 9.96091C1.09993 9.9778 1.08377 9.99044 1.06484 9.99659C0.97265 9.99103 0.611932 9.98616 0.438119 10.2255C0.324838 10.3815 0.322744 10.5905 0.431869 10.8466C0.88665 11.9134 1.19699 12.4052 1.46937 12.4911C1.50979 12.5048 1.55276 12.5093 1.59515 12.5044C1.63754 12.4994 1.67829 12.485 1.71443 12.4623C1.83159 12.3893 1.89043 12.2223 2.00212 11.8816C2.13649 11.471 2.33993 10.8506 2.68962 10.7472C2.86462 10.6956 3.08524 10.7734 3.34512 10.9787C3.51056 11.2372 3.81165 11.6357 4.07278 11.5862C4.26243 11.5502 4.32643 11.3757 4.37315 11.2483C4.40546 11.1601 4.43603 11.0768 4.48928 11.0514C4.56228 11.0152 4.63051 10.97 4.6924 10.917C4.71524 10.8962 4.74061 10.8783 4.7679 10.8639C4.78904 10.8676 4.80901 10.8763 4.82621 10.8891C4.85121 10.9042 4.87387 10.9183 4.89521 10.9315C5.08896 11.0516 5.18828 11.1062 5.51056 11.1429C5.57812 11.1506 5.60253 11.1847 5.65715 11.3065C5.71049 11.4254 5.8099 11.6469 6.09874 11.5961C6.29168 11.5622 6.34462 11.6396 6.49874 11.9131L6.52774 11.9644C6.76034 12.3735 7.14387 12.5796 7.67043 12.5796C7.78284 12.5792 7.89508 12.5708 8.00631 12.5545C8.4865 12.486 8.66493 12.3667 8.77156 12.2953C8.83987 12.2497 8.8399 12.2497 8.9114 12.2698C9.10096 12.3229 9.25359 12.2428 9.37621 12.1785C9.52356 12.1011 9.62103 12.0502 9.79381 12.1558C10.0884 12.336 10.2932 12.2564 10.4578 12.1925C10.5873 12.1422 10.6992 12.0988 10.8855 12.1452C11.2342 12.232 11.3792 12.1198 11.5069 12.0206C11.6186 11.9233 11.7578 11.8632 11.9052 11.8485C12.3146 11.7923 12.3237 11.4309 12.3297 11.1918C12.3372 10.9007 12.3627 10.8472 12.5008 10.8336C12.7471 10.8095 12.7916 10.8716 12.8592 10.9657C12.9241 11.0559 13.0221 11.1923 13.2618 11.1923C13.3709 11.1923 13.703 11.1923 13.824 11.3308C13.8722 11.3858 13.8883 11.4661 13.8735 11.5761C13.8449 11.788 13.8696 11.9671 13.947 12.1085C13.9847 12.1766 14.0418 12.2319 14.1109 12.2676C14.1801 12.3033 14.2583 12.3177 14.3356 12.309C14.4129 12.3003 14.4859 12.2689 14.5455 12.2188C14.605 12.1686 14.6483 12.102 14.67 12.0273C14.9946 10.9045 14.8162 10.469 14.6437 10.0478C14.5851 9.91441 14.5372 9.77658 14.5005 9.63559C14.4613 9.47266 14.4387 9.38478 14.3897 9.324C14.3035 9.21703 14.185 9.24147 14.1142 9.25606C14.0203 9.27747 13.9236 9.28372 13.8278 9.27456C13.8107 9.27431 13.7939 9.26992 13.7789 9.26176C13.7638 9.25359 13.751 9.2419 13.7415 9.22769C13.6446 9.09275 13.6786 8.72144 13.7336 8.501C13.7411 8.47688 13.7413 8.45104 13.7341 8.42681C13.731 8.40494 13.7126 8.22141 13.8957 7.9045C14.026 7.67878 14.04 7.41197 14.0503 7.21719C14.0517 7.19069 14.0534 7.16047 14.0553 7.13178C14.1298 7.203 14.1897 7.31278 14.2655 7.45175C14.3488 7.61205 14.4442 7.76574 14.551 7.9115C14.8118 8.25838 15.1536 8.50375 15.3822 8.50856C15.4243 8.5108 15.4662 8.5033 15.5049 8.48666C15.5436 8.47002 15.5779 8.44469 15.6052 8.41263C15.6677 8.33638 15.6805 8.21666 15.6441 8.04663C15.5767 7.73225 15.3307 7.2135 14.9942 7.04581Z" fill="url(#paint0_linear_297_2744)"/>
<defs>
<linearGradient id="paint0_linear_297_2744" x1="8.00791" y1="3.41754" x2="8.00791" y2="12.5796" gradientUnits="userSpaceOnUse">
<stop stop-color="#0B7A66"/>
<stop offset="1" stop-color="#AEEFE3"/>
</linearGradient>
</defs>
</svg>
