<svg width="175" height="46" viewBox="0 0 175 46" fill="none" xmlns="http://www.w3.org/2000/svg">
<path d="M96.0517 12.6485L96.0753 16.9739C96.0753 18.878 95.8396 19.5832 95.7217 19.9829C95.3682 21.1582 94.6375 22.028 93.3882 22.4747C92.7989 22.7097 91.7854 22.8978 90.4654 22.8978L76.9593 22.8743V6.44254L88.344 6.41903C89.664 6.41903 90.6775 6.6306 91.2668 6.84217C92.5161 7.28881 93.1996 8.15859 93.6003 9.33396C93.7418 9.73359 93.9539 10.4388 93.9539 12.3664V12.6485H96.0517ZM89.5697 12.3429C89.5697 11.0265 89.2397 10.0157 87.5426 10.0157H81.3435V12.6485H89.5697V12.3429ZM89.664 19.3011C91.3375 19.3011 91.6911 18.2903 91.6911 16.9739V16.2452H81.3435V19.3011H89.664Z" fill="#B7B7B3"/>
<path d="M112.961 6.44254L117.958 22.8743H113.48L112.325 19.0661H103.462L102.307 22.8743H97.8286L102.826 6.44254H112.961ZM109.59 10.0392H106.196L104.641 15.2579H111.146L109.59 10.0392Z" fill="#B7B7B3"/>
<path d="M139.229 12.5545L139.252 16.8564C139.252 18.784 139.017 19.4892 138.899 19.8888C138.545 21.0407 137.815 21.934 136.565 22.3806C135.976 22.5922 134.963 22.8038 133.643 22.8038H120.136V19.2071H132.841C134.515 19.2071 134.868 18.1963 134.868 16.8799V16.1511H120.16L120.136 12.2489C120.136 10.3448 120.372 9.63956 120.49 9.23993C120.844 8.06456 121.574 7.19478 122.824 6.74814C123.413 6.51306 124.426 6.325 125.746 6.325H138.192V9.92165H126.548C124.851 9.92165 124.521 10.9325 124.521 12.2489V12.5545H139.229Z" fill="#B7B7B3"/>
<path d="M146.97 22.8038H142.586V6.34851H146.97V22.8038Z" fill="#B7B7B3"/>
<path d="M169.59 12.5545L169.614 16.8564C169.614 18.784 169.378 19.4892 169.26 19.8888C168.907 21.0407 168.176 21.934 166.927 22.3806C166.337 22.5922 165.324 22.8038 164.004 22.8038H150.498V19.2071H163.203C164.876 19.2071 165.23 18.1963 165.23 16.8799V16.1511H150.521L150.498 12.2489C150.498 10.3448 150.734 9.63956 150.851 9.23993C151.205 8.06456 151.936 7.19478 153.185 6.74814C153.774 6.51306 154.788 6.325 156.108 6.325H168.553V9.92165H156.909C155.212 9.92165 154.882 10.9325 154.882 12.2489V12.5545H169.59Z" fill="#B7B7B3"/>
<path d="M92.9945 25.3781V28.4192H86.7763V39.2718H83.0494V28.4192H76.8312V25.3781H92.9945Z" fill="#0B7A66"/>
<path d="M107.531 25.3781H111.238V39.2917H107.531V33.8455H98.7822V39.2917H95.0752V25.3781H98.7822V30.8243H107.531V25.3781Z" fill="#0B7A66"/>
<path d="M130.485 33.0107C130.265 34.4418 129.707 35.3561 128.571 35.8332L130.604 39.2917H126.399L124.625 36.2506H118.148V39.2718H114.441V25.3781H125.861C128.631 25.3781 130.026 26.2129 130.465 28.4192C130.564 28.9559 130.604 30.0491 130.604 30.7249C130.604 31.3808 130.584 32.4144 130.485 33.0107ZM118.148 28.4192V33.0306H125.522C126.22 33.0306 126.778 32.4542 126.778 31.7784V29.6714C126.778 28.9758 126.22 28.4192 125.522 28.4192H118.148Z" fill="#0B7A66"/>
<path d="M149.58 28.4192H137.124V30.8044H147.647V33.8455H137.124V36.2506H149.58V39.2718H133.417V25.3781H149.58V28.4192Z" fill="#0B7A66"/>
<path d="M168.362 28.4192H155.906V30.8044H166.429V33.8455H155.906V36.2506H168.362V39.2718H152.199V25.3781H168.362V28.4192Z" fill="#0B7A66"/>
<path d="M67.3479 16.3212L62.9306 18.9286H67.2529L67.3479 27.6043C67.3479 31.4917 66.8729 32.9139 66.5879 33.7198C65.8755 36.0428 64.403 37.8444 61.8856 38.7451C60.6981 39.1718 58.6557 39.551 55.9959 39.551H39.631C42.1786 38.4597 43.7176 36.5059 44.4688 34.0065L44.4696 34.0036L44.4705 34.0007C44.5836 33.6169 44.7405 33.1132 44.8823 32.345H54.4284C57.7533 32.345 58.4657 30.3065 58.4657 27.6517V26.182H45.2215L45.182 18.9286H46.9238L55.8059 13.6189H40.6407C40.4991 12.8022 40.3304 12.2607 40.1811 11.8375C39.3684 9.45225 37.9784 7.52581 35.5354 6.41294H67.3479V16.3212Z" fill="#0B7A66"/>
<path d="M37.5529 39.0576L37.4762 39.0764C37.5277 39.0639 37.5785 39.0513 37.6285 39.0385C37.6035 39.0449 37.5783 39.0513 37.5529 39.0576Z" fill="#0B7A66"/>
<path d="M44.0441 18.888L44.0916 27.611C44.0916 31.4511 43.6166 32.8733 43.3791 33.6792C42.6666 36.0496 41.1942 37.8037 38.6768 38.7045C37.4894 39.1785 35.447 39.5578 32.7871 39.5578L5.5708 39.5104V6.37231L28.5123 6.3249C31.1722 6.3249 33.2146 6.75157 34.402 7.17824C36.9194 8.07899 38.2968 9.83308 39.1043 12.2035C39.3893 13.0094 39.8168 14.4316 39.8168 18.3191V18.888H44.0441ZM30.9822 18.2717C30.9822 15.6168 30.3172 13.5783 26.8973 13.5783H14.4054V18.888H30.9822V18.2717ZM31.1722 32.3044C34.5445 32.3044 35.257 30.2659 35.257 27.611V26.1414H14.4054V32.3044H31.1722Z" fill="#0B7A66"/>
</svg>
