<svg width="19" height="23" viewBox="0 0 19 23" fill="none" xmlns="http://www.w3.org/2000/svg">
<path d="M18.7883 3.98175C18.6815 8.6305 16.991 12.5453 13.5955 15.715C13.1839 16.0999 12.7682 16.4807 12.3422 16.8492C11.9973 17.1469 11.636 17.1766 11.2131 16.9488C9.24854 15.8926 7.27367 14.8538 5.29777 13.8191C4.96623 13.6457 4.8759 13.4117 4.98265 13.0688C5.61289 11.0498 6.42891 9.11805 7.48717 7.27867C8.41712 5.66203 9.55544 4.23118 10.9196 2.97481C12.6707 1.36125 14.7256 0.364574 17.0834 0.00839922C17.5976 -0.0696102 18.2196 0.404605 18.35 1.06358C18.5409 2.02638 18.6466 3.00663 18.7883 3.9797V3.98175ZM13.81 8.74648C15.1177 8.74648 15.984 7.88325 15.9892 6.57248C15.9943 5.45469 15.0099 4.50626 13.8295 4.48984C12.6112 4.47341 11.6145 5.46393 11.6206 6.68642C11.6268 7.89967 12.526 8.74648 13.809 8.74751L13.81 8.74648Z" fill="#F6F5F1"/>
<path d="M5.5626 18.8262C4.76301 19.1998 4.21797 19.0931 4.13277 18.4792C4.06503 17.9907 4.06297 17.4425 4.22002 16.9847C4.39041 16.4879 4.75377 16.0466 5.0812 15.6186C5.30599 15.325 5.64164 15.2398 6.0009 15.4266C7.25315 16.0805 8.51875 16.7107 9.74637 17.4076C9.96911 17.5339 10.1744 17.9404 10.1559 18.2C10.0789 19.286 9.65297 20.1996 8.61832 20.7343C8.08252 21.0104 8.0004 21.0012 7.67194 20.3371C7.46357 20.5855 7.31474 20.8431 7.09508 21.0074C6.60957 21.3697 6.10046 21.7053 5.57492 22.0071C5.4343 22.0882 5.14073 22.08 5.0268 21.9835C4.90979 21.8839 4.85333 21.6058 4.89952 21.4415C5.13971 20.5927 5.42095 19.7561 5.68783 18.9145C5.64574 18.8847 5.60366 18.8559 5.56158 18.8262H5.5626Z" fill="#F6F5F1"/>
<path d="M5.66321 8.42944C5.31422 9.60369 5.02066 10.5922 4.72607 11.5806C4.55158 12.1657 4.40685 12.761 4.18719 13.3286C4.11124 13.5237 3.85771 13.7669 3.66987 13.7803C2.66704 13.8511 1.65907 13.8747 0.652134 13.8768C-0.0253163 13.8788 -0.172095 13.614 0.198449 13.0648C0.969306 11.9224 1.70526 10.7451 2.58595 9.69197C2.95444 9.25162 3.63908 9.05352 4.20875 8.81333C4.6183 8.64089 5.07506 8.5793 5.66321 8.43047V8.42944Z" fill="#F6F5F1"/>
<path d="M16.5815 14.2893C16.7396 15.0632 16.9141 15.8341 17.0455 16.6121C17.0763 16.7948 16.9921 17.0186 16.9028 17.1941C16.3557 18.2708 15.8025 19.3445 15.2318 20.4089C14.8664 21.0905 14.4999 21.1182 14.0637 20.4725C13.5874 19.7674 13.1635 19.0273 12.716 18.3026C12.4984 17.9506 12.5835 17.6878 12.8915 17.4127C13.8964 16.5125 14.8766 15.5846 15.8692 14.6711C16.0375 14.5161 16.2202 14.3765 16.3968 14.2297C16.4594 14.2492 16.522 14.2698 16.5846 14.2893H16.5815Z" fill="#F6F5F1"/>
</svg>
