<svg width="21" height="19" viewBox="0 0 21 19" fill="none" xmlns="http://www.w3.org/2000/svg">
<path d="M20.9763 9.34424C20.9763 11.07 20.968 12.7958 20.9826 14.5226C20.9857 14.9246 20.8383 15.169 20.4742 15.3234C18.9864 15.9501 17.5007 16.5809 16.0171 17.217C14.7845 17.7453 13.5561 18.2819 12.3267 18.8185C11.8338 19.0339 11.3753 19.066 10.8358 18.8692C7.43068 17.6282 4.01314 16.4235 0.594568 15.2188C0.158816 15.0654 -0.00407289 14.8375 7.71273e-05 14.3486C0.0260147 10.9312 0.0208281 7.5128 0.00422803 4.09541C0.00215302 3.67794 0.16504 3.42415 0.521942 3.30295C3.75792 2.20284 6.99596 1.10895 10.2402 0.0336966C10.4581 -0.0388155 10.7507 0.017121 10.9821 0.0937766C12.7925 0.700806 14.5936 1.33063 16.4009 1.94698C17.62 2.36237 18.8463 2.75393 20.0623 3.17865C20.9359 3.4832 20.9877 3.55985 20.994 4.47661C21.0054 6.09881 20.9971 7.72205 20.9971 9.34424C20.9898 9.34424 20.9836 9.34424 20.9763 9.34424ZM11.5682 16.6659C11.6108 16.6659 11.6523 16.6659 11.6948 16.6659C11.7757 15.9211 11.8971 15.1784 11.9293 14.4315C12.0133 12.4913 12.0621 10.549 12.1129 8.60773C12.1233 8.22238 12.252 7.97066 12.6307 7.81217C14.3892 7.07358 16.1395 6.31324 17.8929 5.56118C18.3712 5.35608 18.8484 5.14994 19.3257 4.94483C19.2427 4.8516 19.1908 4.83503 19.1483 4.84746C17.62 5.31257 16.0793 5.74039 14.5687 6.25834C12.9606 6.81046 11.3991 7.68475 9.67895 6.62608C9.66443 6.61779 9.64575 6.61883 9.62915 6.61261C9.22142 6.45826 8.81367 6.30288 8.40593 6.14853L8.39141 5.99315C10.8773 4.98005 13.3642 3.96592 15.9133 2.92693C15.131 2.31368 13.8082 2.17177 12.917 2.52397C10.9852 3.28742 9.03881 4.01979 7.12462 4.82363C6.26245 5.18516 5.45528 5.21624 4.58377 4.91168C4.07643 4.73455 3.53174 4.66411 3.00365 4.54602C2.98913 4.58952 2.97564 4.63303 2.96111 4.67654C3.13853 4.76045 3.3149 4.85057 3.49543 4.92826C3.96853 5.13337 4.43956 5.34158 4.91785 5.53218C5.22391 5.65441 5.37123 5.82119 5.3453 6.1879C5.30276 6.7711 5.32351 7.36052 5.34323 7.94683C5.34841 8.09911 5.41689 8.34876 5.51649 8.38398C6.33093 8.67299 7.15989 8.92264 8.07186 9.21165C8.07186 8.55593 8.08846 8.02349 8.06667 7.49208C8.04904 7.07462 8.14449 6.90887 8.59165 7.09741C9.09795 7.3108 9.62708 7.46722 10.1406 7.66196C11.0059 7.98827 11.0028 7.99241 11.0132 8.93403C11.0153 9.1236 11.0339 9.31317 11.0453 9.5017C11.1449 11.1125 11.2352 12.7243 11.3473 14.3341C11.4012 15.1121 11.4956 15.8879 11.5714 16.6649L11.5682 16.6659Z" fill="#F6F5F1"/>
</svg>
