<svg width="16" height="16" viewBox="0 0 16 16" fill="none" xmlns="http://www.w3.org/2000/svg">
<path d="M12.6667 2.66666H9.88C9.74349 2.27695 9.48925 1.9393 9.15245 1.7004C8.81564 1.46151 8.41292 1.33319 8 1.33319C7.58708 1.33319 7.18436 1.46151 6.84755 1.7004C6.51075 1.9393 6.25651 2.27695 6.12 2.66666H3.33333C2.98004 2.66771 2.64151 2.80853 2.39169 3.05835C2.14187 3.30817 2.00106 3.64669 2 3.99999V13.3333C2.00106 13.6866 2.14187 14.0252 2.39169 14.275C2.64151 14.5248 2.98004 14.6656 3.33333 14.6667H12.6667C13.02 14.6656 13.3585 14.5248 13.6083 14.275C13.8581 14.0252 13.9989 13.6866 14 13.3333V3.99999C13.9989 3.64669 13.8581 3.30817 13.6083 3.05835C13.3585 2.80853 13.02 2.66771 12.6667 2.66666ZM8 2.66666C8.13185 2.66666 8.26075 2.70576 8.37038 2.77901C8.48001 2.85227 8.56546 2.95639 8.61592 3.0782C8.66638 3.20002 8.67958 3.33407 8.65386 3.46339C8.62813 3.59271 8.56464 3.7115 8.4714 3.80473C8.37817 3.89797 8.25938 3.96146 8.13006 3.98718C8.00074 4.01291 7.86669 3.9997 7.74488 3.94925C7.62306 3.89879 7.51894 3.81334 7.44569 3.70371C7.37243 3.59407 7.33333 3.46518 7.33333 3.33333C7.33386 3.15668 7.40427 2.98741 7.52918 2.8625C7.65409 2.73759 7.82335 2.66719 8 2.66666ZM6.66667 5.99999L8.52667 7.86266L10.2067 6.18266L9.33333 5.33333H12V7.99999L11.1493 7.12599L8.528 9.74933L6.66667 7.88666L4.94267 9.60933L4 8.66666L6.66667 5.99999ZM12.6667 12.6667H3.33333V11.3333H12.6667V12.6667Z" fill="url(#paint0_linear_292_2463)"/>
<defs>
<linearGradient id="paint0_linear_292_2463" x1="8" y1="1.33319" x2="8" y2="14.6667" gradientUnits="userSpaceOnUse">
<stop stop-color="#0B7A66"/>
<stop offset="1" stop-color="#AEEFE3"/>
</linearGradient>
</defs>
</svg>
