<svg width="20" height="18" viewBox="0 0 20 18" fill="none" xmlns="http://www.w3.org/2000/svg">
<path d="M19.434 13.7883C20.0521 13.3277 20.184 12.4488 19.7292 11.823C19.2743 11.1973 18.4062 11.0637 17.7882 11.5242L13.6319 14.625H9.44444C9.13889 14.625 8.88889 14.3719 8.88889 14.0625C8.88889 13.7531 9.13889 13.5 9.44444 13.5H12.2222C12.8368 13.5 13.3333 12.9973 13.3333 12.375C13.3333 11.7527 12.8368 11.25 12.2222 11.25H6.72569C5.71528 11.25 4.73611 11.598 3.94792 12.2344L2.38889 13.5H1.11111C0.496528 13.5 0 14.0027 0 14.625V16.875C0 17.4973 0.496528 18 1.11111 18H12.2396C13.2465 18 14.2292 17.673 15.0417 17.0684L19.4375 13.7883H19.434Z" fill="url(#paint0_linear_290_1989)"/>
<defs>
<linearGradient id="paint0_linear_290_1989" x1="9.99989" y1="11.25" x2="9.99989" y2="18" gradientUnits="userSpaceOnUse">
<stop stop-color="#0B7A66"/>
<stop offset="1" stop-color="#AEEFE3"/>
</linearGradient>
</defs>
</svg>
