<svg width="16" height="16" viewBox="0 0 16 16" fill="none" xmlns="http://www.w3.org/2000/svg">
<path d="M15.8359 7.0006H14.922C14.4358 3.61164 11.5291 1.00421 8.00569 1.00421C5.28284 1.00421 2.92927 2.56328 1.77296 4.8339L3.64983 5.55546C4.50583 4.03338 6.13433 3.00299 8.00571 3.00299C10.4232 3.00299 12.4395 4.71997 12.9022 7.00057H11.698C11.5436 7.15048 11.3957 7.24344 11.617 7.50328L13.4814 9.39914C13.6358 9.54904 13.8861 9.54904 14.0406 9.39914L15.9174 7.50328C16.0713 7.3534 15.9903 7.151 15.8359 7.0006ZM8.00569 12.997C5.76853 12.997 3.87519 11.5264 3.23807 9.49908H4.33142C4.48583 9.34918 4.56677 9.1463 4.41236 8.99637L2.53601 7.10052C2.38161 6.95061 2.13126 6.95061 1.97686 7.10052L0.112456 8.99637C-0.108927 9.25621 0.0389931 9.34915 0.193397 9.49908H1.10986C1.65202 12.4633 4.52828 14.9958 8.00618 14.9958C10.5512 14.9958 12.7718 13.6321 13.9961 11.6003L12.1047 10.8538C11.2012 12.1485 9.70363 12.997 8.00569 12.997Z" fill="url(#paint0_linear_290_1985)"/>
<defs>
<linearGradient id="paint0_linear_290_1985" x1="7.99999" y1="1.00421" x2="7.99999" y2="14.9958" gradientUnits="userSpaceOnUse">
<stop stop-color="#0B7A66"/>
<stop offset="1" stop-color="#AEEFE3"/>
</linearGradient>
</defs>
</svg>
