<svg width="16" height="16" viewBox="0 0 16 16" fill="none" xmlns="http://www.w3.org/2000/svg">
<g clip-path="url(#clip0_287_1934)">
<path fill-rule="evenodd" clip-rule="evenodd" d="M8.10243 4.44446C7.39921 4.44446 6.71178 4.65299 6.12707 5.04368C5.54236 5.43437 5.08664 5.98967 4.81753 6.63936C4.54842 7.28905 4.478 8.00396 4.6152 8.69367C4.75239 9.38338 5.09102 10.0169 5.58827 10.5142C6.08553 11.0114 6.71907 11.3501 7.40878 11.4873C8.09849 11.6244 8.81339 11.554 9.46309 11.2849C10.1128 11.0158 10.6681 10.5601 11.0588 9.97537C11.4495 9.39067 11.658 8.70324 11.658 8.00001C11.658 7.05702 11.2834 6.15265 10.6166 5.48586C9.94979 4.81906 9.04542 4.44446 8.10243 4.44446ZM9.7291 7.69335L8.14243 9.28001C8.04689 9.37366 7.91844 9.42612 7.78465 9.42612C7.65087 9.42612 7.52242 9.37366 7.42688 9.28001L6.47132 8.3289C6.37739 8.23261 6.32482 8.10342 6.32482 7.9689C6.32482 7.83439 6.37739 7.70519 6.47132 7.6089C6.51843 7.56133 6.5745 7.52357 6.63629 7.4978C6.69809 7.47203 6.76437 7.45876 6.83132 7.45876C6.89827 7.45876 6.96456 7.47203 7.02635 7.4978C7.08814 7.52357 7.14421 7.56133 7.19132 7.6089L7.78243 8.20446L9.01354 6.97335C9.10902 6.87846 9.23828 6.82538 9.37289 6.8258C9.5075 6.82622 9.63643 6.88009 9.73132 6.97557C9.82621 7.07105 9.87928 7.20031 9.87887 7.33492C9.87845 7.46953 9.82458 7.59846 9.7291 7.69335Z" fill="url(#paint0_linear_287_1934)"/>
<path fill-rule="evenodd" clip-rule="evenodd" d="M13.7778 5.77776C13.7068 5.67174 13.6584 5.55221 13.6356 5.42665L13.24 3.47998C13.1995 3.28467 13.1025 3.10556 12.9611 2.96491C12.8197 2.82426 12.64 2.72827 12.4445 2.68887L10.5378 2.29332C10.4103 2.26733 10.2894 2.21593 10.1823 2.14221L8.56448 1.06221C8.39797 0.94909 8.20132 0.888611 8.00003 0.888611C7.79874 0.888611 7.60209 0.94909 7.43559 1.06221L5.81781 2.14221C5.70949 2.21682 5.58693 2.26826 5.45781 2.29332L3.55559 2.68887C3.36109 2.73014 3.18294 2.82748 3.04313 2.96886C2.90333 3.11024 2.808 3.28948 2.76892 3.48443L2.37336 5.43109C2.34334 5.55449 2.29222 5.67177 2.22225 5.77776L1.1467 7.44443C1.04009 7.61011 0.983398 7.80297 0.983398 7.99998C0.983398 8.197 1.04009 8.38986 1.1467 8.55554L2.22225 10.2222C2.28957 10.3302 2.33769 10.4489 2.36448 10.5733L2.76003 12.52C2.79657 12.7194 2.89181 12.9033 3.03355 13.0482C3.17529 13.1931 3.35706 13.2924 3.55559 13.3333L5.45781 13.7289C5.58693 13.7539 5.70949 13.8054 5.81781 13.88L7.43559 14.96C7.60209 15.0731 7.79874 15.1336 8.00003 15.1336C8.20132 15.1336 8.39797 15.0731 8.56448 14.96L10.1823 13.88C10.2894 13.8063 10.4103 13.7549 10.5378 13.7289L12.4445 13.3333C12.639 13.292 12.8171 13.1947 12.9569 13.0533C13.0967 12.9119 13.1921 12.7327 13.2311 12.5378L13.6267 10.5911C13.6498 10.4586 13.7013 10.3328 13.7778 10.2222L14.8623 8.55554C14.9686 8.39141 15.0252 8.20001 15.0252 8.00443C15.0252 7.80885 14.9686 7.61744 14.8623 7.45332L13.7778 5.77776ZM8.10225 12.5689C7.19861 12.5689 6.31526 12.3009 5.56391 11.7989C4.81256 11.2968 4.22696 10.5833 3.88115 9.74842C3.53534 8.91357 3.44486 7.99492 3.62115 7.10864C3.79745 6.22236 4.23259 5.40826 4.87156 4.76929C5.51053 4.13032 6.32463 3.69518 7.21091 3.51888C8.09719 3.34259 9.01584 3.43307 9.85069 3.77888C10.6855 4.12469 11.3991 4.71029 11.9011 5.46165C12.4032 6.213 12.6711 7.09634 12.6711 7.99998C12.6688 9.21101 12.1867 10.3718 11.3304 11.2281C10.474 12.0844 9.31328 12.5665 8.10225 12.5689Z" fill="url(#paint1_linear_287_1934)"/>
</g>
<defs>
<linearGradient id="paint0_linear_287_1934" x1="8.10243" y1="4.44446" x2="8.10243" y2="11.5556" gradientUnits="userSpaceOnUse">
<stop stop-color="#0B7A66"/>
<stop offset="1" stop-color="#AEEFE3"/>
</linearGradient>
<linearGradient id="paint1_linear_287_1934" x1="8.00431" y1="0.888611" x2="8.00431" y2="15.1336" gradientUnits="userSpaceOnUse">
<stop stop-color="#0B7A66"/>
<stop offset="1" stop-color="#AEEFE3"/>
</linearGradient>
<clipPath id="clip0_287_1934">
<rect width="16" height="16" fill="white"/>
</clipPath>
</defs>
</svg>
