<svg width="16" height="16" viewBox="0 0 16 16" fill="none" xmlns="http://www.w3.org/2000/svg">
<path d="M0.9375 14.0938H9.69825C9.53678 13.8169 9.4375 13.4993 9.4375 13.1562V12.2188H0.46875C0.209875 12.2188 0 12.4286 0 12.6875V13.1562C0 13.674 0.419719 14.0938 0.9375 14.0938ZM0.9375 3.3125V11.2812H9.4375V5.65625C9.4375 4.62216 10.2784 3.78125 11.3125 3.78125H15.0625V3.3125C15.0625 2.53706 14.4317 1.90625 13.6562 1.90625H2.34375C1.56831 1.90625 0.9375 2.53706 0.9375 3.3125Z" fill="url(#paint0_linear_287_1940)"/>
<path d="M15.0625 4.71875H11.3125C10.7957 4.71875 10.375 5.13944 10.375 5.65625V13.1562C10.375 13.6731 10.7957 14.0938 11.3125 14.0938H15.0625C15.5793 14.0938 16 13.6731 16 13.1562V5.65625C16 5.13944 15.5793 4.71875 15.0625 4.71875ZM13.1875 6.125C13.4464 6.125 13.6562 6.33481 13.6562 6.59375C13.6562 6.85262 13.4464 7.0625 13.1875 7.0625C12.9286 7.0625 12.7188 6.85262 12.7188 6.59375C12.7188 6.33481 12.9286 6.125 13.1875 6.125ZM13.6562 12.6875H12.7188C12.4597 12.6875 12.25 12.4778 12.25 12.2188C12.25 11.9597 12.4597 11.75 12.7188 11.75H13.6562C13.9153 11.75 14.125 11.9597 14.125 12.2188C14.125 12.4778 13.9153 12.6875 13.6562 12.6875Z" fill="url(#paint1_linear_287_1940)"/>
<defs>
<linearGradient id="paint0_linear_287_1940" x1="7.53125" y1="1.90625" x2="7.53125" y2="14.0938" gradientUnits="userSpaceOnUse">
<stop stop-color="#0B7A66"/>
<stop offset="1" stop-color="#AEEFE3"/>
</linearGradient>
<linearGradient id="paint1_linear_287_1940" x1="13.1875" y1="4.71875" x2="13.1875" y2="14.0938" gradientUnits="userSpaceOnUse">
<stop stop-color="#0B7A66"/>
<stop offset="1" stop-color="#AEEFE3"/>
</linearGradient>
</defs>
</svg>
