<svg width="31" height="31" viewBox="0 0 31 31" fill="none" xmlns="http://www.w3.org/2000/svg">
<g clip-path="url(#clip0_291_2213)">
<path d="M28.4931 6.84387C28.4776 6.81328 28.4576 6.78516 28.4338 6.76043C28.4288 6.7553 28.4251 6.74961 28.4197 6.74478C28.3953 6.72185 28.3677 6.70256 28.3378 6.6875C28.3309 6.68416 28.3235 6.68319 28.3165 6.68032C28.3129 6.67885 28.3107 6.67579 28.3071 6.67445L14.0942 1.33201C14.0446 1.3133 13.9913 1.30616 13.9385 1.31113C13.8856 1.3161 13.8346 1.33305 13.7893 1.36069L0.822079 9.25977C0.818795 9.26175 0.817125 9.26519 0.813916 9.26729C0.807556 9.27142 0.800448 9.27376 0.794321 9.27832C0.76773 9.2987 0.744214 9.3228 0.724496 9.34988C0.720215 9.35562 0.717529 9.36191 0.713591 9.36787C0.694811 9.3966 0.680409 9.42796 0.670856 9.46092C0.668432 9.46931 0.665298 9.477 0.663471 9.48559C0.656047 9.5201 0.652165 9.55536 0.655563 9.59149L1.93391 23.1815C1.93993 23.2456 1.96354 23.3068 2.00213 23.3584C2.04072 23.4099 2.0928 23.4498 2.15262 23.4737L16.3982 29.1646C16.4028 29.1665 16.4079 29.165 16.4126 29.1667C16.4609 29.1836 16.5109 29.1928 16.5607 29.1881C16.6105 29.1834 16.658 29.165 16.7022 29.1395C16.7065 29.1369 16.7117 29.1374 16.716 29.1347L29.6504 20.8871C29.7047 20.8525 29.7484 20.8036 29.7767 20.7457C29.805 20.6879 29.8168 20.6233 29.8108 20.5592L28.5324 6.96924C28.5291 6.93318 28.5187 6.89919 28.5049 6.86674C28.5016 6.85869 28.4971 6.85166 28.4931 6.84387ZM15.2127 14.8581L10.996 13.1736L23.1768 5.49371L27.4058 7.08326L15.2127 14.8581ZM10.5166 19.1527L9.69938 19.3266L8.88312 18.3133C8.79958 18.2096 8.66645 18.1631 8.53387 18.1914L7.5834 18.4047L6.98719 17.5699L6.47462 12.1209L9.98712 13.5241L10.5166 19.1527ZM6.8403 11.5134L18.9236 3.895L22.3544 5.18457L10.1924 12.8525L6.8403 11.5134ZM14.0077 2.04714L18.1012 3.58586L6.0367 11.1923L1.7838 9.4934L14.0077 2.04714ZM1.40612 10.0962L5.74404 11.8292L6.29903 17.7292C6.29974 17.7367 6.30409 17.7426 6.30529 17.7499C6.30879 17.7728 6.31708 17.794 6.32527 17.8161C6.33369 17.8387 6.34153 17.8605 6.35414 17.8805C6.358 17.8866 6.35855 17.8938 6.36277 17.8998L7.14881 19.0005C7.18866 19.0566 7.24427 19.0997 7.3086 19.1243C7.37293 19.1489 7.4431 19.1539 7.51026 19.1386L8.4745 18.9221L9.28921 19.9333C9.32981 19.9836 9.38355 20.0217 9.44448 20.0434C9.50541 20.065 9.57116 20.0694 9.63442 20.056L10.9669 19.7724C10.9835 19.7689 10.9962 19.7587 11.0117 19.753C11.0343 19.7448 11.0564 19.7375 11.0765 19.725C11.0955 19.7132 11.1107 19.6985 11.127 19.6835C11.1438 19.668 11.1602 19.6536 11.1736 19.6352C11.1869 19.6172 11.1957 19.5975 11.2053 19.5772C11.2149 19.557 11.2245 19.5378 11.2301 19.5158C11.2359 19.4932 11.2363 19.4701 11.2374 19.4464C11.2382 19.4297 11.2442 19.4144 11.2426 19.3973L10.7176 13.816L14.9211 15.4951L16.1257 28.302L2.61079 22.9031L1.40612 10.0962ZM29.0939 20.4119L16.8228 28.2365L15.6181 15.4296L27.8892 7.6051L29.0939 20.4119Z" fill="url(#paint0_linear_291_2213)"/>
</g>
<defs>
<linearGradient id="paint0_linear_291_2213" x1="13.9384" y1="1.31113" x2="16.5607" y2="29.1881" gradientUnits="userSpaceOnUse">
<stop stop-color="#0B7A66"/>
<stop offset="1" stop-color="#666666"/>
</linearGradient>
<clipPath id="clip0_291_2213">
<rect width="28" height="28" fill="white" transform="translate(0 2.62225) rotate(-5.37373)"/>
</clipPath>
</defs>
</svg>
