<svg width="35" height="35" viewBox="0 0 35 35" fill="none" xmlns="http://www.w3.org/2000/svg">
<g clip-path="url(#clip0_290_1991)">
<path d="M24.2135 25.4996L12.4777 26.6598C12.1976 26.6875 11.9541 26.8422 11.8108 27.085C11.74 27.2031 11.6984 27.3364 11.6894 27.4737C11.6805 27.6111 11.7044 27.7487 11.7593 27.8749L13.4102 31.7312C13.483 31.9025 13.6086 32.0459 13.7688 32.1406C13.9289 32.2354 14.1152 32.2764 14.3003 32.2577L23.5228 31.3459C23.9035 31.3083 24.2132 31.0309 24.2926 30.6553L25.156 26.5505C25.185 26.4159 25.1816 26.2763 25.1459 26.1434C25.1102 26.0104 25.0433 25.8879 24.9507 25.7859C24.8594 25.6832 24.745 25.6036 24.6169 25.5538C24.4888 25.504 24.3502 25.4855 24.2135 25.4996ZM24.4227 26.3959L23.5589 30.5008C23.5534 30.5268 23.5398 30.5503 23.5201 30.5681C23.5004 30.5859 23.4755 30.5969 23.449 30.5995L14.226 31.5114C14.1996 31.5139 14.173 31.508 14.1502 31.4945C14.1273 31.4809 14.1094 31.4604 14.099 31.436L12.4486 27.5797C12.4409 27.5616 12.4375 27.542 12.4388 27.5224C12.4401 27.5028 12.446 27.4837 12.456 27.4668C12.4661 27.4499 12.4799 27.4356 12.4965 27.4251C12.5131 27.4146 12.5319 27.4081 12.5515 27.4062L24.2873 26.2459C24.342 26.2405 24.377 26.2692 24.3928 26.2868C24.4086 26.3043 24.4339 26.342 24.4227 26.3959ZM27.9739 11.4188C27.8824 11.316 27.7678 11.2364 27.6396 11.1866C27.5113 11.1368 27.373 11.1183 27.2361 11.1325L6.70025 13.1628C6.41962 13.1905 6.17671 13.3457 6.0329 13.5885C5.96243 13.7066 5.92109 13.8398 5.9123 13.9771C5.9035 14.1143 5.9275 14.2517 5.98231 14.3778L7.63273 18.2341C7.78313 18.5866 8.1412 18.7984 8.52334 18.7606L26.5445 16.9789C26.9266 16.9411 27.2358 16.6639 27.3143 16.2883L28.1781 12.1834C28.2071 12.049 28.2037 11.9096 28.1682 11.7767C28.1327 11.6439 28.0661 11.5208 27.9739 11.4188ZM27.4443 12.0289L26.581 16.1337L26.5806 16.1343C26.5752 16.1603 26.5617 16.1839 26.5419 16.2016C26.5221 16.2193 26.4971 16.2302 26.4707 16.2325L8.44955 18.0142C8.42303 18.017 8.39633 18.0111 8.37337 17.9976C8.35041 17.984 8.33241 17.9635 8.32202 17.9389L6.67161 14.0826C6.66362 14.0646 6.66012 14.0449 6.66142 14.0253C6.66271 14.0056 6.66876 13.9866 6.67905 13.9698C6.68881 13.9528 6.70255 13.9383 6.71909 13.9278C6.73563 13.9172 6.75449 13.9108 6.77404 13.9091L27.3099 11.8789C27.3647 11.8734 27.3992 11.9022 27.4145 11.9198C27.4313 11.9372 27.4556 11.975 27.4443 12.0289ZM25.7246 18.3161L9.58923 19.9113C9.30909 19.939 9.06613 20.0936 8.92282 20.3364C8.85207 20.4545 8.81048 20.5878 8.80152 20.7251C8.79256 20.8625 8.81647 21 8.87129 21.1263L10.5217 24.9827C10.6721 25.3351 11.0302 25.5469 11.4123 25.5091L25.0344 24.1623C25.416 24.1246 25.7253 23.8473 25.8042 23.4717L26.6675 19.3669C26.6966 19.2323 26.6931 19.0928 26.6574 18.9598C26.6218 18.8268 26.5549 18.7043 26.4623 18.6024C26.371 18.4996 26.2566 18.42 26.1285 18.3702C26.0004 18.3204 25.8623 18.3018 25.7256 18.316L25.7246 18.3161ZM25.9338 19.2123L25.0699 23.3172L25.0695 23.3178C25.064 23.3436 25.0504 23.367 25.0308 23.3847C25.0111 23.4023 24.9864 23.4133 24.9601 23.416L11.338 24.7628C11.3116 24.7652 11.285 24.7592 11.2621 24.7457C11.2392 24.7322 11.2211 24.7118 11.2105 24.6875L9.56008 20.8311C9.5523 20.8131 9.54891 20.7934 9.55021 20.7738C9.5515 20.7542 9.55744 20.7352 9.56752 20.7183C9.57738 20.7014 9.59114 20.6871 9.60767 20.6765C9.62419 20.666 9.643 20.6595 9.66252 20.6577L25.7988 19.0624C25.8536 19.057 25.8881 19.0857 25.9039 19.1032C25.9192 19.1208 25.945 19.1585 25.9338 19.2123ZM14.1032 7.4256C14.0632 7.39506 14.0297 7.35677 14.0048 7.31301C13.9798 7.26925 13.964 7.22092 13.9582 7.1709C13.9523 7.12088 13.9566 7.0702 13.9708 7.02187C13.985 6.97355 14.0087 6.92858 14.0407 6.88964C14.0726 6.8507 14.112 6.81859 14.1567 6.79523C14.2013 6.77186 14.2501 6.75772 14.3003 6.75365C14.3505 6.74959 14.401 6.75567 14.4488 6.77154C14.4966 6.78741 14.5407 6.81274 14.5785 6.84603L16.198 8.17364L15.7459 3.60143C15.7362 3.50245 15.7661 3.40365 15.8292 3.32674C15.8922 3.24984 15.9833 3.20114 16.0822 3.19135C16.1812 3.18157 16.28 3.2115 16.3569 3.27457C16.4338 3.33763 16.4825 3.42867 16.4923 3.52764L16.9444 8.10035L18.2724 6.48032C18.303 6.44028 18.3413 6.4068 18.385 6.38188C18.4288 6.35696 18.4771 6.3411 18.5271 6.33527C18.5772 6.32943 18.6278 6.33372 18.6762 6.3479C18.7245 6.36207 18.7695 6.38584 18.8084 6.41777C18.8473 6.4497 18.8795 6.48915 18.9028 6.53376C18.9262 6.57838 18.9403 6.62724 18.9444 6.67743C18.9485 6.72763 18.9424 6.77813 18.9265 6.82592C18.9106 6.87371 18.8853 6.91782 18.852 6.95561L17.267 8.88893C17.1147 9.07582 16.8996 9.1825 16.6767 9.20454C16.4538 9.22658 16.222 9.16408 16.0355 9.01068L14.1032 7.4256ZM22.562 6.58932C22.5219 6.55878 22.4885 6.52049 22.4635 6.47673C22.4386 6.43297 22.4228 6.38464 22.4169 6.33462C22.4111 6.2846 22.4154 6.23392 22.4295 6.18559C22.4437 6.13727 22.4675 6.0923 22.4994 6.05336C22.5314 6.01442 22.5708 5.98231 22.6154 5.95895C22.66 5.93558 22.7089 5.92145 22.7591 5.91738C22.8093 5.91331 22.8598 5.91939 22.9076 5.93526C22.9554 5.95113 22.9995 5.97646 23.0373 6.00975L24.6567 7.33736L24.2047 2.76515C24.1949 2.66618 24.2248 2.56737 24.2879 2.49046C24.351 2.41356 24.442 2.36486 24.541 2.35507C24.64 2.34529 24.7388 2.37522 24.8157 2.43829C24.8926 2.50135 24.9413 2.59239 24.9511 2.69136L25.4031 7.26407L26.7312 5.64404C26.7617 5.604 26.8 5.57052 26.8438 5.5456C26.8876 5.52068 26.9359 5.50482 26.9859 5.49899C27.0359 5.49315 27.0866 5.49744 27.1349 5.51162C27.1833 5.52579 27.2282 5.54956 27.2672 5.58149C27.3061 5.61342 27.3382 5.65287 27.3616 5.69748C27.3849 5.7421 27.3991 5.79096 27.4031 5.84115C27.4072 5.89135 27.4011 5.94185 27.3853 5.98964C27.3694 6.03743 27.3441 6.08154 27.3108 6.11933L25.7258 8.05265C25.5734 8.23954 25.3584 8.34622 25.1355 8.36826C24.9126 8.3903 24.6808 8.3278 24.4948 8.17435L22.562 6.58932ZM5.64445 8.26188C5.60441 8.23134 5.57093 8.19305 5.54601 8.14929C5.52108 8.10553 5.50523 8.0572 5.49939 8.00718C5.49355 7.95716 5.49785 7.90648 5.51203 7.85815C5.5262 7.80983 5.54996 7.76486 5.5819 7.72592C5.61383 7.68698 5.65328 7.65487 5.69789 7.63151C5.7425 7.60814 5.79136 7.594 5.84156 7.58993C5.89175 7.58586 5.94225 7.59195 5.99005 7.60782C6.03784 7.62369 6.08195 7.64902 6.11974 7.68231L7.73921 9.00992L7.28718 4.43771C7.27739 4.33873 7.30732 4.23993 7.37039 4.16302C7.43346 4.08612 7.52449 4.03742 7.62346 4.02763C7.72244 4.01785 7.82124 4.04778 7.89815 4.11085C7.97505 4.17391 8.02375 4.26495 8.03354 4.36392L8.48562 8.93663L9.81368 7.3166C9.84422 7.27656 9.88251 7.24308 9.92627 7.21816C9.97003 7.19324 10.0184 7.17738 10.0684 7.17154C10.1184 7.16571 10.1691 7.17 10.2174 7.18418C10.2657 7.19835 10.3107 7.22212 10.3496 7.25405C10.3886 7.28598 10.4207 7.32543 10.4441 7.37004C10.4674 7.41466 10.4816 7.46352 10.4856 7.51371C10.4897 7.56391 10.4836 7.61441 10.4677 7.6622C10.4519 7.70999 10.4265 7.7541 10.3933 7.79189L8.80827 9.72521C8.65592 9.9121 8.44087 10.0188 8.21796 10.0408C7.99505 10.0629 7.76327 10.0004 7.57727 9.84691L5.64395 8.26193L5.64445 8.26188Z" fill="url(#paint0_linear_290_1991)"/>
</g>
<defs>
<linearGradient id="paint0_linear_290_1991" x1="16.0827" y1="3.19131" x2="18.9113" y2="31.8018" gradientUnits="userSpaceOnUse">
<stop stop-color="#0B7A66"/>
<stop offset="1" stop-color="#666666"/>
</linearGradient>
<clipPath id="clip0_290_1991">
<rect width="32" height="32" fill="white" transform="translate(0 3.14838) rotate(-5.64623)"/>
</clipPath>
</defs>
</svg>
