<svg width="16" height="16" viewBox="0 0 16 16" fill="none" xmlns="http://www.w3.org/2000/svg">
<g clip-path="url(#clip0_282_1483)">
<path d="M15.3089 9.784L15.3062 9.78133L14.2809 8.83933C14.3156 8.55533 14.3336 8.274 14.3336 8C14.3336 7.726 14.3156 7.44467 14.2809 7.16067L15.3089 6.216C15.474 6.06053 15.5821 5.85415 15.616 5.62993C15.6498 5.4057 15.6074 5.1766 15.4956 4.97933L14.3642 3.02333C14.2499 2.82574 14.0716 2.67302 13.8588 2.59037C13.6459 2.50771 13.4113 2.50006 13.1936 2.56867L11.8629 2.98867C11.4206 2.64256 10.9327 2.35922 10.4129 2.14667L10.1056 0.780667C10.0553 0.559987 9.93199 0.362769 9.75553 0.221047C9.57907 0.0793253 9.35988 0.00142517 9.13357 0L6.8669 0C6.40423 0 5.99557 0.328667 5.8949 0.78L5.58757 2.14667C5.06776 2.35922 4.57982 2.64256 4.13757 2.98867L2.80557 2.56867C2.3569 2.42933 1.8629 2.61933 1.6389 3.01933L0.502899 4.98333C0.274899 5.39 0.352232 5.89667 0.694899 6.21867L1.72023 7.16067C1.6849 7.44467 1.6669 7.726 1.6669 8C1.6669 8.274 1.6849 8.55533 1.71957 8.83933L0.691566 9.784C0.526432 9.93929 0.41826 10.1456 0.384409 10.3697C0.350558 10.5938 0.392991 10.8229 0.504899 11.02L1.63623 12.976C1.8629 13.38 2.3549 13.5713 2.8069 13.4313L4.13757 13.0113C4.57982 13.3574 5.06776 13.6408 5.58757 13.8533L5.8949 15.2187C5.94499 15.4395 6.06829 15.6368 6.24476 15.7787C6.42123 15.9205 6.64049 15.9985 6.8669 16H9.13357C9.59623 16 10.0049 15.6713 10.1056 15.22L10.4129 13.8533C10.9328 13.641 11.4208 13.3577 11.8629 13.0113L13.1949 13.4313C13.6449 13.572 14.1376 13.38 14.3622 12.98L15.4982 11.016C15.6089 10.819 15.6504 10.5907 15.6161 10.3673C15.5818 10.144 15.4736 9.93864 15.3089 9.784ZM8.00023 11.3333C6.16223 11.3333 4.6669 9.838 4.6669 8C4.6669 6.162 6.16223 4.66667 8.00023 4.66667C9.83823 4.66667 11.3336 6.162 11.3336 8C11.3336 9.838 9.83823 11.3333 8.00023 11.3333Z" fill="url(#paint0_linear_282_1483)"/>
</g>
<defs>
<linearGradient id="paint0_linear_282_1483" x1="8.00044" y1="0" x2="8.00044" y2="16" gradientUnits="userSpaceOnUse">
<stop stop-color="#0B7A66"/>
<stop offset="1" stop-color="#AEEFE3"/>
</linearGradient>
<clipPath id="clip0_282_1483">
<rect width="16" height="16" fill="white"/>
</clipPath>
</defs>
</svg>
