<svg width="30" height="30" viewBox="0 0 30 30" fill="none" xmlns="http://www.w3.org/2000/svg">
<g clip-path="url(#clip0_289_1947)">
<path d="M14.968 26.1945C17.3898 26.1945 19.6948 25.4337 21.6339 23.9943C23.5349 22.5832 24.9182 20.6512 25.6345 18.407C25.6698 18.2962 25.6597 18.1759 25.6064 18.0726C25.5531 17.9693 25.4609 17.8914 25.3501 17.856C25.2393 17.8207 25.1191 17.8308 25.0158 17.8842C24.9124 17.9375 24.8345 18.0297 24.7991 18.1404C24.1391 20.2085 22.8639 21.9893 21.1113 23.2902C19.3245 24.6166 17.2002 25.3176 14.968 25.3176C12.2743 25.3176 9.72537 24.2859 7.79085 22.4124C7.74958 22.3719 7.70071 22.3399 7.64705 22.3184C7.59339 22.2968 7.536 22.2861 7.47818 22.2869C7.42036 22.2876 7.36326 22.2998 7.31016 22.3226C7.25706 22.3455 7.20902 22.3787 7.16879 22.4202C7.12856 22.4618 7.09695 22.5109 7.07577 22.5647C7.05459 22.6185 7.04427 22.6759 7.04539 22.7338C7.04651 22.7916 7.05905 22.8486 7.0823 22.9015C7.10555 22.9545 7.13904 23.0023 7.18085 23.0422C9.27981 25.075 12.0454 26.1945 14.968 26.1945ZM25.5768 16.8377C25.6921 16.8527 25.8086 16.8213 25.9008 16.7504C25.9929 16.6795 26.0532 16.5749 26.0682 16.4596C26.131 15.9756 26.1625 15.488 26.1625 14.9999C26.1625 14.8837 26.1164 14.7721 26.0341 14.6899C25.9519 14.6077 25.8404 14.5615 25.7241 14.5615C25.6078 14.5615 25.4963 14.6077 25.4141 14.6899C25.3319 14.7721 25.2857 14.8837 25.2857 14.9999C25.2857 15.4502 25.2564 15.9032 25.1987 16.3464C25.1913 16.4035 25.1951 16.4615 25.2101 16.5171C25.2251 16.5726 25.2509 16.6247 25.286 16.6704C25.3211 16.716 25.3648 16.7543 25.4147 16.783C25.4646 16.8117 25.5197 16.8303 25.5768 16.8377ZM5.09866 11.9817C5.73047 9.91305 7.03593 8.05405 8.77451 6.74712C10.5715 5.39624 12.7132 4.68224 14.968 4.68224C17.7866 4.68224 20.4191 5.7976 22.3804 7.82279C22.4203 7.8646 22.4681 7.89809 22.5211 7.92134C22.574 7.94459 22.631 7.95713 22.6889 7.95826C22.7467 7.95938 22.8041 7.94905 22.8579 7.92787C22.9117 7.90669 22.9608 7.87508 23.0024 7.83485C23.0439 7.79463 23.0771 7.74658 23.1 7.69348C23.1228 7.64038 23.135 7.58328 23.1357 7.52546C23.1365 7.46765 23.1258 7.41025 23.1042 7.35659C23.0827 7.30293 23.0507 7.25406 23.0102 7.21279C20.8823 5.0155 18.0261 3.80538 14.9679 3.80538C12.5216 3.80538 10.1977 4.58023 8.24758 6.04622C6.36175 7.46381 4.94556 9.48076 4.25998 11.7255C4.22601 11.8367 4.23761 11.9569 4.29223 12.0595C4.34686 12.1622 4.44002 12.239 4.55124 12.2729C4.66246 12.3069 4.78261 12.2953 4.88527 12.2407C4.98794 12.1861 5.06469 12.0929 5.09866 11.9817ZM4.35912 13.1622C4.30203 13.1547 4.24403 13.1586 4.18843 13.1736C4.13284 13.1885 4.08074 13.2143 4.03511 13.2494C3.98948 13.2846 3.95122 13.3283 3.92251 13.3782C3.8938 13.4281 3.87521 13.4832 3.86779 13.5403C3.80496 14.0243 3.77345 14.5119 3.77344 14.9999C3.77344 15.1162 3.81963 15.2277 3.90185 15.31C3.98407 15.3922 4.09559 15.4384 4.21187 15.4384C4.32815 15.4384 4.43966 15.3922 4.52188 15.31C4.6041 15.2277 4.6503 15.1162 4.6503 14.9999C4.6503 14.5498 4.67952 14.0968 4.73728 13.6535C4.74472 13.5964 4.74083 13.5384 4.72585 13.4828C4.71087 13.4272 4.68509 13.3751 4.64997 13.3295C4.61486 13.2839 4.5711 13.2456 4.52119 13.2169C4.47129 13.1882 4.41621 13.1696 4.35912 13.1622ZM13.0968 2.94928C13.1182 2.94928 13.1399 2.9477 13.1617 2.94442C13.7597 2.85594 14.3635 2.81153 14.968 2.81155C15.0843 2.81155 15.1958 2.76536 15.278 2.68314C15.3602 2.60092 15.4064 2.4894 15.4064 2.37312C15.4064 2.25684 15.3602 2.14533 15.278 2.06311C15.1958 1.98088 15.0843 1.93469 14.968 1.93469C14.3202 1.93469 13.6691 1.98257 13.0329 2.07709C12.9235 2.0934 12.8243 2.15046 12.7552 2.23683C12.6861 2.3232 12.6521 2.4325 12.6602 2.54283C12.6683 2.65315 12.7178 2.75634 12.7987 2.83171C12.8797 2.90709 12.9862 2.94908 13.0968 2.94928Z" fill="url(#paint0_linear_289_1947)"/>
<path d="M4.60697 7.04039C2.83823 9.33963 1.90332 12.092 1.90332 14.9999C1.90332 18.5133 3.27806 21.8098 5.7743 24.2825C5.8563 24.3639 5.96722 24.4095 6.08278 24.4094C6.16966 24.4094 6.25459 24.3835 6.32677 24.3352C6.39895 24.2868 6.45514 24.2181 6.4882 24.1378C6.52126 24.0574 6.5297 23.9691 6.51245 23.8839C6.4952 23.7987 6.45304 23.7206 6.39131 23.6595C4.06261 21.3528 2.78018 18.2774 2.78018 14.9999C2.78018 12.287 3.65218 9.7196 5.30196 7.57504C6.90013 5.49759 9.16207 3.96613 11.6711 3.26277C11.7826 3.23094 11.8769 3.15627 11.9334 3.05509C11.99 2.95391 12.0041 2.83446 11.9729 2.72285C11.9416 2.61125 11.8674 2.51657 11.7665 2.45953C11.6656 2.40249 11.5462 2.38773 11.4344 2.41848C8.74439 3.17257 6.3197 4.81399 4.60697 7.04039ZM16.7748 27.0554C16.1768 27.1438 15.5731 27.1882 14.9685 27.1882C14.8522 27.1882 14.7407 27.2344 14.6585 27.3166C14.5763 27.3988 14.5301 27.5103 14.5301 27.6266C14.5301 27.7429 14.5763 27.8544 14.6585 27.9366C14.7407 28.0189 14.8522 28.0651 14.9685 28.0651C15.6164 28.0651 16.2675 28.0172 16.9037 27.9226C16.9612 27.9148 17.0166 27.8957 17.0666 27.8663C17.1167 27.8369 17.1604 27.7979 17.1953 27.7515C17.2301 27.7051 17.2554 27.6522 17.2697 27.596C17.2839 27.5397 17.2869 27.4812 17.2784 27.4238C17.2698 27.3664 17.25 27.3112 17.22 27.2615C17.19 27.2119 17.1504 27.1686 17.1036 27.1344C17.0567 27.1001 17.0036 27.0755 16.9471 27.0619C16.8907 27.0483 16.8321 27.0461 16.7748 27.0554ZM25.4335 22.823C27.1346 20.5511 28.0336 17.8459 28.0336 14.9999C28.0336 11.4871 26.6592 8.19077 24.1635 5.71821C24.1226 5.67768 24.0741 5.64561 24.0208 5.62383C23.9675 5.60205 23.9105 5.59097 23.8529 5.59124C23.7953 5.59151 23.7384 5.60313 23.6853 5.62541C23.6322 5.6477 23.584 5.68022 23.5435 5.72113C23.4616 5.80374 23.416 5.91547 23.4165 6.03174C23.4171 6.14801 23.4638 6.2593 23.5464 6.34113C25.8746 8.64773 27.1568 11.7228 27.1568 14.9999C27.1568 17.6549 26.3181 20.1784 24.7316 22.2975C23.197 24.3471 21.0123 25.8909 18.5799 26.6444C18.4692 26.6791 18.3769 26.7563 18.323 26.859C18.2692 26.9617 18.2582 27.0816 18.2925 27.1924C18.3268 27.3032 18.4037 27.3958 18.5061 27.4501C18.6086 27.5044 18.7285 27.5158 18.8394 27.4819C21.4471 26.6742 23.7889 25.0196 25.4335 22.823Z" fill="url(#paint1_linear_289_1947)"/>
<path d="M0.910293 14.9999C0.910293 14.8836 0.864101 14.7721 0.78188 14.6899C0.699659 14.6077 0.588142 14.5615 0.471864 14.5615C0.355585 14.5615 0.244069 14.6077 0.161848 14.6899C0.0796264 14.7721 0.033435 14.8836 0.033435 14.9999C0.033435 18.1333 0.993185 21.1326 2.80892 23.6735C2.84949 23.7304 2.90306 23.7767 2.96517 23.8087C3.02729 23.8406 3.09614 23.8572 3.16598 23.8571C3.24651 23.857 3.32546 23.8348 3.39418 23.7928C3.4629 23.7508 3.51872 23.6907 3.55554 23.6191C3.59235 23.5475 3.60873 23.4671 3.60287 23.3868C3.59701 23.3065 3.56915 23.2293 3.52234 23.1638C1.81357 20.7724 0.910293 17.9494 0.910293 14.9999ZM6.354 26.1102C5.70015 25.6022 5.09205 25.038 4.53668 24.4238C4.45856 24.3382 4.34968 24.2869 4.23387 24.2813C4.11806 24.2757 4.00474 24.3162 3.91872 24.394C3.8327 24.4717 3.78099 24.5804 3.77488 24.6962C3.76878 24.812 3.8088 24.9255 3.88617 25.0118C4.47599 25.664 5.12182 26.2633 5.81625 26.8028C5.893 26.8626 5.98752 26.895 6.08481 26.8949C6.1517 26.895 6.21772 26.8798 6.2778 26.8504C6.33788 26.821 6.39043 26.7782 6.4314 26.7254C6.46671 26.6799 6.49272 26.6279 6.50794 26.5724C6.52317 26.5169 6.5273 26.4589 6.52011 26.4018C6.51293 26.3446 6.49456 26.2895 6.46606 26.2395C6.43755 26.1894 6.39948 26.1455 6.354 26.1102ZM14.9683 29.0578C12.4045 29.0578 9.89569 28.3612 7.71302 27.0435C7.66373 27.0137 7.60906 26.9939 7.55214 26.9853C7.49521 26.9767 7.43713 26.9793 7.38124 26.9931C7.32534 27.0069 7.27271 27.0316 7.22635 27.0658C7.18 27.0999 7.14083 27.1429 7.11108 27.1922C7.08132 27.2415 7.06156 27.2962 7.05293 27.3531C7.0443 27.41 7.04696 27.4681 7.06077 27.524C7.07458 27.5799 7.09927 27.6325 7.13342 27.6788C7.16756 27.7252 7.21051 27.7644 7.2598 27.7941C9.5792 29.1945 12.2447 29.9347 14.9683 29.9347C15.0845 29.9347 15.1961 29.8885 15.2783 29.8063C15.3605 29.7241 15.4067 29.6126 15.4067 29.4963C15.4067 29.38 15.3605 29.2685 15.2783 29.1862C15.1961 29.104 15.0845 29.0578 14.9683 29.0578ZM27.7768 9.19768C28.6058 11.0248 29.0262 12.9769 29.0262 14.9998C29.0262 15.1161 29.0723 15.2276 29.1546 15.3099C29.2368 15.3921 29.3483 15.4383 29.4646 15.4383C29.5809 15.4383 29.6924 15.3921 29.7746 15.3099C29.8568 15.2276 29.903 15.1161 29.903 14.9998C29.903 12.851 29.4563 10.777 28.5753 8.83536C27.7243 6.9597 26.515 5.30548 24.9811 3.91858C24.9384 3.87996 24.8885 3.85013 24.8343 3.83079C24.78 3.81146 24.7225 3.803 24.665 3.8059C24.6075 3.80879 24.5511 3.823 24.4991 3.84769C24.4471 3.87238 24.4005 3.90708 24.3619 3.9498C24.2839 4.03605 24.2434 4.14975 24.2492 4.26588C24.2551 4.38201 24.3068 4.49106 24.3931 4.56904C25.8373 5.87485 26.9757 7.43215 27.7768 9.19768ZM21.3162 2.45335C21.9482 2.77403 22.5551 3.14187 23.1317 3.55375C23.2059 3.60693 23.295 3.63551 23.3863 3.63547C23.4792 3.63557 23.5697 3.60614 23.6449 3.55142C23.72 3.4967 23.7758 3.41954 23.8042 3.33106C23.8326 3.24258 23.8321 3.14736 23.8029 3.05915C23.7737 2.97094 23.7172 2.89429 23.6415 2.84028C23.0289 2.40271 22.3842 2.01193 21.7128 1.67125C21.6615 1.64522 21.6055 1.62955 21.5481 1.62515C21.4907 1.62075 21.4329 1.62769 21.3782 1.6456C21.3235 1.6635 21.2728 1.69201 21.2291 1.72949C21.1854 1.76697 21.1495 1.81269 21.1235 1.86405C21.0975 1.91539 21.0818 1.97137 21.0774 2.02878C21.073 2.08618 21.0799 2.1439 21.0978 2.19862C21.1157 2.25335 21.1442 2.30401 21.1817 2.34772C21.2192 2.39142 21.2649 2.42732 21.3162 2.45335ZM14.9683 0.941942C16.5214 0.941942 18.0472 1.19342 19.5034 1.68943C19.6128 1.72407 19.7313 1.7145 19.8337 1.66278C19.936 1.61105 20.014 1.52129 20.051 1.41272C20.088 1.30415 20.0809 1.18543 20.0314 1.08199C19.9819 0.978544 19.8938 0.898619 19.7861 0.859342C18.2387 0.332292 16.6177 0.0650838 14.9682 0.0650838C14.9106 0.0650876 14.8536 0.0764317 14.8004 0.0984684C14.7472 0.120505 14.6989 0.152803 14.6582 0.193517C14.576 0.275744 14.5298 0.387263 14.5298 0.503542C14.5298 0.619821 14.576 0.731334 14.6582 0.81355C14.7405 0.895765 14.852 0.941949 14.9683 0.941942ZM1.96147 5.0523C2.03936 5.11554 2.13665 5.15002 2.23698 5.14992C2.30238 5.15002 2.36697 5.13546 2.426 5.1073C2.48503 5.07915 2.53699 5.03812 2.57808 4.98724C3.98502 3.24843 5.70367 1.84914 7.68624 0.828301C7.78962 0.775061 7.86762 0.682934 7.90307 0.572187C7.93852 0.461441 7.92853 0.341146 7.87529 0.237766C7.82205 0.134387 7.72992 0.0563912 7.61918 0.0209374C7.50843 -0.0145165 7.38814 -0.00452431 7.28476 0.0487158C5.19333 1.12561 3.3804 2.6016 1.89641 4.43564C1.82328 4.52605 1.78905 4.6418 1.80126 4.75744C1.81346 4.87308 1.87109 4.97914 1.96147 5.0523ZM0.266679 7.78254C0.369602 7.83664 0.489799 7.84764 0.600829 7.81312C0.71186 7.77859 0.80463 7.70138 0.858734 7.59846C1.08284 7.17238 1.32608 6.75664 1.58769 6.35251C1.6509 6.25491 1.67275 6.1362 1.64844 6.02249C1.62412 5.90879 1.55563 5.8094 1.45804 5.74619C1.40971 5.71488 1.3557 5.6934 1.29907 5.68298C1.24245 5.67255 1.18432 5.67338 1.12802 5.68542C1.07172 5.69746 1.01834 5.72048 0.970927 5.75315C0.923519 5.78582 0.883012 5.82752 0.851719 5.87585C0.57567 6.30224 0.319016 6.74088 0.082539 7.19043C0.0284601 7.29337 0.0174789 7.41358 0.05201 7.52461C0.086541 7.63565 0.163757 7.72843 0.266679 7.78254ZM27.9749 24.9476C27.8845 24.8745 27.7688 24.8403 27.6531 24.8525C27.5375 24.8647 27.4315 24.9223 27.3583 25.0127C25.9513 26.7516 24.2325 28.1509 22.2499 29.1717C22.1472 29.2254 22.07 29.3175 22.0351 29.4279C22.0001 29.5382 22.0102 29.658 22.0632 29.7609C22.1162 29.8639 22.2078 29.9417 22.318 29.9774C22.4281 30.013 22.5479 30.0037 22.6512 29.9513C24.7429 28.8744 26.5559 27.3984 28.04 25.5643C28.1131 25.4739 28.1474 25.3581 28.1352 25.2425C28.123 25.1268 28.0653 25.0208 27.9749 24.9476ZM29.7304 22.0927C29.627 22.0395 29.5067 22.0295 29.396 22.065C29.2852 22.1004 29.1931 22.1784 29.1399 22.2817C28.8988 22.7496 28.6348 23.2052 28.3488 23.647C28.3059 23.7132 28.2817 23.7897 28.2787 23.8684C28.2756 23.9472 28.2939 24.0254 28.3315 24.0946C28.3691 24.1639 28.4247 24.2218 28.4925 24.2621C28.5602 24.3024 28.6376 24.3238 28.7164 24.3238C28.7896 24.3239 28.8617 24.3056 28.9261 24.2707C28.9904 24.2357 29.045 24.1852 29.0848 24.1237C29.3866 23.6576 29.6651 23.1768 29.9194 22.6832C29.9727 22.5798 29.9827 22.4595 29.9472 22.3488C29.9117 22.238 29.8338 22.1459 29.7304 22.0927ZM14.9683 24.3238C20.1095 24.3238 24.2922 20.1412 24.2922 14.9999C24.2922 9.85865 20.1095 5.67598 14.9683 5.67598C9.827 5.67598 5.64433 9.85865 5.64433 14.9999C5.64433 20.1412 9.827 24.3238 14.9683 24.3238ZM14.9683 6.55284C19.626 6.55284 23.4153 10.3422 23.4153 14.9999C23.4153 19.6577 19.626 23.447 14.9683 23.447C10.3105 23.447 6.52119 19.6577 6.52119 14.9999C6.52119 10.3422 10.3105 6.55284 14.9683 6.55284ZM3.27629 6.8664C3.34517 6.8665 3.4131 6.85035 3.47456 6.81926C3.53602 6.78817 3.58928 6.74301 3.63001 6.68747C4.47901 5.53098 5.49933 4.51066 6.65582 3.66166C6.74832 3.59239 6.80974 3.48938 6.82669 3.37506C6.84365 3.26074 6.81479 3.14435 6.74637 3.0512C6.67796 2.95805 6.57553 2.89568 6.46137 2.87766C6.34721 2.85964 6.23055 2.88743 6.13677 2.95497C4.90858 3.85668 3.82498 4.94029 2.92327 6.16848C2.87532 6.23378 2.8464 6.31109 2.83972 6.39183C2.83304 6.47256 2.84886 6.55357 2.88543 6.62587C2.92199 6.69816 2.97788 6.7589 3.04687 6.80136C3.11587 6.84382 3.19528 6.86633 3.27629 6.8664ZM26.3064 23.3124C25.4209 24.5188 24.3491 25.5767 23.1312 26.4464C23.0844 26.4799 23.0446 26.5222 23.0141 26.5711C22.9836 26.6199 22.9631 26.6743 22.9536 26.7311C22.9442 26.7879 22.946 26.846 22.959 26.9021C22.972 26.9582 22.9959 27.0112 23.0294 27.058C23.0628 27.1049 23.1052 27.1447 23.154 27.1751C23.2029 27.2056 23.2573 27.2262 23.3141 27.2356C23.3709 27.2451 23.429 27.2433 23.485 27.2303C23.5411 27.2173 23.5941 27.1933 23.641 27.1599C24.9344 26.2362 26.0728 25.1127 27.0132 23.8314C27.0821 23.7377 27.1108 23.6205 27.0933 23.5056C27.0757 23.3906 27.0131 23.2874 26.9194 23.2186C26.8257 23.1497 26.7085 23.121 26.5935 23.1386C26.4785 23.1562 26.3753 23.2187 26.3064 23.3124Z" fill="url(#paint2_linear_289_1947)"/>
</g>
<defs>
<linearGradient id="paint0_linear_289_1947" x1="12.3502" y1="3.14769" x2="25.4129" y2="25.7502" gradientUnits="userSpaceOnUse">
<stop stop-color="#0B7A66"/>
<stop offset="1" stop-color="#666666"/>
</linearGradient>
<linearGradient id="paint1_linear_289_1947" x1="11.9133" y1="3.68589" x2="25.0231" y2="28.7138" gradientUnits="userSpaceOnUse">
<stop stop-color="#0B7A66"/>
<stop offset="1" stop-color="#666666"/>
</linearGradient>
<linearGradient id="paint2_linear_289_1947" x1="11.5" y1="1.5" x2="27" y2="30.5" gradientUnits="userSpaceOnUse">
<stop stop-color="#0B7A66"/>
<stop offset="1" stop-color="#666666"/>
</linearGradient>
<clipPath id="clip0_289_1947">
<rect width="30" height="30" fill="white"/>
</clipPath>
</defs>
</svg>
