<svg width="19" height="19" viewBox="0 0 19 19" fill="none" xmlns="http://www.w3.org/2000/svg">
<path d="M19 9.49997C19 6.90343 16.8876 4.79102 14.291 4.79102C13.0332 4.79102 11.8507 5.28082 10.9613 6.17026L6.17021 10.9613C5.77993 11.3516 5.26096 11.5666 4.70892 11.5666C3.56937 11.5666 2.6423 10.6395 2.6423 9.49997C2.6423 8.36042 3.56937 7.43335 4.70892 7.43335C5.26096 7.43335 5.77993 7.64833 6.17025 8.03868L6.84438 8.71277L8.7128 6.84439L8.03863 6.17026C7.14923 5.28082 5.96674 4.79102 4.70892 4.79102C2.11241 4.79102 0 6.90343 0 9.49997C0 12.0965 2.11241 14.2089 4.70896 14.2089C5.96678 14.2089 7.14927 13.7191 8.03867 12.8297L12.8298 8.03861C13.2201 7.64829 13.739 7.43331 14.2911 7.43331C15.4306 7.43331 16.3577 8.36038 16.3577 9.49994C16.3577 10.6395 15.4306 11.5666 14.2911 11.5666C13.739 11.5666 13.22 11.3516 12.8298 10.9612L12.1556 10.2871L10.2872 12.1555L10.9613 12.8296C11.8508 13.719 13.0333 14.2089 14.2911 14.2089C16.8876 14.2089 19 12.0965 19 9.49997Z" fill="url(#paint0_linear_263_271)"/>
<defs>
<linearGradient id="paint0_linear_263_271" x1="9.5" y1="4.79102" x2="9.5" y2="14.2089" gradientUnits="userSpaceOnUse">
<stop stop-color="#0B7A66"/>
<stop offset="1" stop-color="#AEEFE3"/>
</linearGradient>
</defs>
</svg>
