<svg width="16" height="16" viewBox="0 0 16 16" fill="none" xmlns="http://www.w3.org/2000/svg">
<path d="M3 6.51069C3 3.82469 5.24933 1.66669 8 1.66669C10.7507 1.66669 13 3.82469 13 6.51069C13 8.08002 12.3513 9.49602 11.1367 10.3887C11.0624 10.4396 11.0085 10.5152 10.9847 10.602C10.9487 10.754 10.9093 10.928 10.8693 11.1147C10.8597 11.1596 10.835 11.1998 10.7994 11.2287C10.7637 11.2575 10.7192 11.2733 10.6733 11.2734H5.32667C5.28078 11.2733 5.2363 11.2575 5.20063 11.2287C5.16496 11.1998 5.14027 11.1596 5.13067 11.1147C5.09067 10.928 5.05133 10.754 5.01533 10.6014C4.99141 10.5147 4.93756 10.4394 4.86333 10.3887C3.64867 9.49535 3 8.08002 3 6.51069ZM5.6 12.2734C5.57078 12.2735 5.54194 12.28 5.51549 12.2925C5.48904 12.3049 5.46561 12.3229 5.44683 12.3453C5.42806 12.3677 5.41438 12.3939 5.40675 12.4221C5.39913 12.4504 5.39773 12.4799 5.40267 12.5087C5.46467 12.8794 5.51067 13.2114 5.52467 13.44C5.56667 14.134 6.078 14.706 6.76133 14.8534L6.892 14.882C7.62226 15.0397 8.37774 15.0397 9.108 14.882L9.23867 14.8534C9.922 14.706 10.4333 14.134 10.4753 13.44C10.4893 13.2114 10.5353 12.88 10.5973 12.5087C10.6023 12.4798 10.6009 12.4502 10.5932 12.422C10.5855 12.3937 10.5718 12.3675 10.553 12.3451C10.5341 12.3227 10.5106 12.3046 10.4841 12.2923C10.4575 12.2799 10.4286 12.2734 10.3993 12.2734H5.6Z" fill="url(#paint0_linear_282_1478)"/>
<defs>
<linearGradient id="paint0_linear_282_1478" x1="8" y1="1.66669" x2="8" y2="15.0002" gradientUnits="userSpaceOnUse">
<stop stop-color="#0B7A66"/>
<stop offset="1" stop-color="#AEEFE3"/>
</linearGradient>
</defs>
</svg>
