<svg width="16" height="16" viewBox="0 0 16 16" fill="none" xmlns="http://www.w3.org/2000/svg">
<g clip-path="url(#clip0_291_2198)">
<path fill-rule="evenodd" clip-rule="evenodd" d="M8.10048 4.44446C7.39726 4.44446 6.70983 4.65299 6.12512 5.04368C5.54041 5.43437 5.08469 5.98967 4.81557 6.63936C4.54646 7.28905 4.47605 8.00396 4.61324 8.69367C4.75043 9.38338 5.08907 10.0169 5.58632 10.5142C6.08358 11.0114 6.71711 11.3501 7.40682 11.4873C8.09653 11.6244 8.81144 11.554 9.46113 11.2849C10.1108 11.0158 10.6661 10.5601 11.0568 9.97537C11.4475 9.39067 11.656 8.70324 11.656 8.00001C11.656 7.05702 11.2814 6.15265 10.6146 5.48586C9.94784 4.81906 9.04347 4.44446 8.10048 4.44446ZM9.72715 7.69335L8.14048 9.28001C8.04494 9.37366 7.91649 9.42612 7.7827 9.42612C7.64892 9.42612 7.52046 9.37366 7.42492 9.28001L6.46937 8.3289C6.37544 8.23261 6.32286 8.10342 6.32286 7.9689C6.32286 7.83439 6.37544 7.70519 6.46937 7.6089C6.51648 7.56133 6.57255 7.52357 6.63434 7.4978C6.69613 7.47203 6.76242 7.45876 6.82937 7.45876C6.89632 7.45876 6.9626 7.47203 7.02439 7.4978C7.08619 7.52357 7.14226 7.56133 7.18937 7.6089L7.78048 8.20446L9.01159 6.97335C9.10707 6.87846 9.23633 6.82538 9.37094 6.8258C9.50555 6.82622 9.63448 6.88009 9.72937 6.97557C9.82426 7.07105 9.87733 7.20031 9.87691 7.33492C9.8765 7.46953 9.82262 7.59846 9.72715 7.69335Z" fill="url(#paint0_linear_291_2198)"/>
<path fill-rule="evenodd" clip-rule="evenodd" d="M13.7768 5.77776C13.7058 5.67174 13.6574 5.55221 13.6346 5.42665L13.2391 3.47998C13.1986 3.28467 13.1016 3.10556 12.9601 2.96491C12.8187 2.82426 12.639 2.72827 12.4435 2.68887L10.5368 2.29332C10.4094 2.26733 10.2884 2.21593 10.1813 2.14221L8.5635 1.06221C8.397 0.94909 8.20035 0.888611 7.99905 0.888611C7.79776 0.888611 7.60111 0.94909 7.43461 1.06221L5.81683 2.14221C5.70851 2.21682 5.58595 2.26826 5.45683 2.29332L3.55461 2.68887C3.36011 2.73014 3.18196 2.82748 3.04216 2.96886C2.90236 3.11024 2.80703 3.28948 2.76794 3.48443L2.37239 5.43109C2.34237 5.55449 2.29124 5.67177 2.22128 5.77776L1.14572 7.44443C1.03911 7.61011 0.982422 7.80297 0.982422 7.99998C0.982422 8.197 1.03911 8.38986 1.14572 8.55554L2.22128 10.2222C2.28859 10.3302 2.33671 10.4489 2.3635 10.5733L2.75905 12.52C2.7956 12.7194 2.89084 12.9033 3.03257 13.0482C3.17431 13.1931 3.35609 13.2924 3.55461 13.3333L5.45683 13.7289C5.58595 13.7539 5.70851 13.8054 5.81683 13.88L7.43461 14.96C7.60111 15.0731 7.79776 15.1336 7.99905 15.1336C8.20035 15.1336 8.397 15.0731 8.5635 14.96L10.1813 13.88C10.2884 13.8063 10.4094 13.7549 10.5368 13.7289L12.4435 13.3333C12.638 13.292 12.8162 13.1947 12.956 13.0533C13.0958 12.9119 13.1911 12.7327 13.2302 12.5378L13.6257 10.5911C13.6488 10.4586 13.7004 10.3328 13.7768 10.2222L14.8613 8.55554C14.9676 8.39141 15.0242 8.20001 15.0242 8.00443C15.0242 7.80885 14.9676 7.61744 14.8613 7.45332L13.7768 5.77776ZM8.10128 12.5689C7.19764 12.5689 6.31429 12.3009 5.56294 11.7989C4.81159 11.2968 4.22598 10.5833 3.88017 9.74842C3.53437 8.91357 3.44389 7.99492 3.62018 7.10864C3.79647 6.22236 4.23161 5.40826 4.87058 4.76929C5.50956 4.13032 6.32365 3.69518 7.20993 3.51888C8.09621 3.34259 9.01486 3.43307 9.84972 3.77888C10.6846 4.12469 11.3981 4.71029 11.9002 5.46165C12.4022 6.213 12.6702 7.09634 12.6702 7.99998C12.6678 9.21101 12.1857 10.3718 11.3294 11.2281C10.4731 12.0844 9.3123 12.5665 8.10128 12.5689Z" fill="url(#paint1_linear_291_2198)"/>
</g>
<defs>
<linearGradient id="paint0_linear_291_2198" x1="8.10048" y1="4.44446" x2="8.10048" y2="11.5556" gradientUnits="userSpaceOnUse">
<stop stop-color="#0B7A66"/>
<stop offset="1" stop-color="#AEEFE3"/>
</linearGradient>
<linearGradient id="paint1_linear_291_2198" x1="8.00333" y1="0.888611" x2="8.00333" y2="15.1336" gradientUnits="userSpaceOnUse">
<stop stop-color="#0B7A66"/>
<stop offset="1" stop-color="#AEEFE3"/>
</linearGradient>
<clipPath id="clip0_291_2198">
<rect width="16" height="16" fill="white"/>
</clipPath>
</defs>
</svg>
