<svg width="16" height="16" viewBox="0 0 16 16" fill="none" xmlns="http://www.w3.org/2000/svg">
<path d="M11.3333 5.33333C9.86667 5.33333 8.66667 4.13333 8.66667 2.66667V0H4.66667C3.2 0 2 1.2 2 2.66667V13.3333C2 14.8 3.2 16 4.66667 16H11.3333C12.8 16 14 14.8 14 13.3333V5.33333H11.3333ZM4.66667 10.6667C4.66667 10.2667 4.93333 10 5.33333 10H8C8.4 10 8.66667 10.2667 8.66667 10.6667C8.66667 11.0667 8.4 11.3333 8 11.3333H5.33333C4.93333 11.3333 4.66667 11.0667 4.66667 10.6667ZM10.6667 7.33333C11.0667 7.33333 11.3333 7.6 11.3333 8C11.3333 8.4 11.0667 8.66667 10.6667 8.66667H5.33333C4.93333 8.66667 4.66667 8.4 4.66667 8C4.66667 7.6 4.93333 7.33333 5.33333 7.33333H10.6667Z" fill="url(#paint0_linear_291_2206)"/>
<path d="M13.7333 4L10 0.266663V2.66666C10 3.4 10.6 4 11.3333 4H13.7333Z" fill="url(#paint1_linear_291_2206)"/>
<defs>
<linearGradient id="paint0_linear_291_2206" x1="8" y1="0" x2="8" y2="16" gradientUnits="userSpaceOnUse">
<stop stop-color="#0B7A66"/>
<stop offset="1" stop-color="#AEEFE3"/>
</linearGradient>
<linearGradient id="paint1_linear_291_2206" x1="11.8667" y1="0.266663" x2="11.8667" y2="4" gradientUnits="userSpaceOnUse">
<stop stop-color="#0B7A66"/>
<stop offset="1" stop-color="#AEEFE3"/>
</linearGradient>
</defs>
</svg>
