<svg width="16" height="16" viewBox="0 0 16 16" fill="none" xmlns="http://www.w3.org/2000/svg">
<g clip-path="url(#clip0_263_266)">
<path d="M11.4651 3.83C11.6541 4.23724 11.7951 4.66513 11.8851 5.105C12.5687 5.47625 13.1563 6.00192 13.6011 6.64018C14.0459 7.27845 14.3357 8.0117 14.4473 8.78162C14.5589 9.55155 14.4893 10.3369 14.244 11.0752C13.9988 11.8135 13.5846 12.4844 13.0345 13.0345C12.4844 13.5846 11.8135 13.9987 11.0752 14.244C10.3369 14.4892 9.55161 14.5588 8.78169 14.4472C8.01177 14.3356 7.27851 14.0459 6.64025 13.6011C6.00198 13.1563 5.47631 12.5687 5.10506 11.885C4.66519 11.795 4.2373 11.654 3.83006 11.465C4.16321 12.4254 4.73493 13.2855 5.49155 13.9644C6.24818 14.6433 7.16489 15.1188 8.15567 15.3464C9.14644 15.5739 10.1788 15.546 11.1558 15.2653C12.1328 14.9845 13.0225 14.4601 13.7413 13.7413C14.4602 13.0224 14.9846 12.1328 15.2653 11.1557C15.5461 10.1787 15.574 9.14638 15.3465 8.1556C15.1189 7.16483 14.6434 6.24812 13.9644 5.49149C13.2855 4.73487 12.4255 4.16315 11.4651 3.83ZM9.50006 3.5C10.169 3.49848 10.8333 3.61005 11.4651 3.83C11.0758 2.99034 10.4897 2.25705 9.75642 1.69241C9.02315 1.12776 8.16442 0.748462 7.25319 0.586721C6.34195 0.424981 5.40514 0.485583 4.52234 0.763379C3.63954 1.04117 2.83684 1.52796 2.18243 2.18237C1.52802 2.83678 1.04124 3.63948 0.76344 4.52228C0.485644 5.40508 0.425042 6.34189 0.586782 7.25313C0.748523 8.16436 1.12783 9.02309 1.69247 9.75636C2.25711 10.4896 2.99041 11.0758 3.83006 11.465C3.61011 10.8333 3.49854 10.1689 3.50006 9.5C3.50006 7.9087 4.1322 6.38257 5.25742 5.25736C6.38264 4.13214 7.90876 3.5 9.50006 3.5Z" fill="url(#paint0_linear_263_266)"/>
<path d="M4.5 9.5C4.49985 10.333 4.70782 11.1528 5.105 11.885C6.03561 12.0741 6.99858 12.0298 7.9079 11.7561C8.81721 11.4823 9.64457 10.9875 10.3161 10.3161C10.9876 9.64456 11.4823 8.81721 11.7561 7.90789C12.0298 6.99857 12.0741 6.03561 11.885 5.105C11.1234 4.69165 10.2674 4.48334 9.40103 4.50049C8.53465 4.51764 7.6876 4.75967 6.94294 5.20283C6.19828 5.646 5.58158 6.27509 5.15331 7.02842C4.72505 7.78174 4.49992 8.63344 4.5 9.5Z" fill="url(#paint1_linear_263_266)"/>
</g>
<defs>
<linearGradient id="paint0_linear_263_266" x1="7.99849" y1="0.49823" x2="7.99849" y2="15.4986" gradientUnits="userSpaceOnUse">
<stop stop-color="#0B7A66"/>
<stop offset="1" stop-color="#AEEFE3"/>
</linearGradient>
<linearGradient id="paint1_linear_263_266" x1="8.2501" y1="4.49951" x2="8.2501" y2="12.0002" gradientUnits="userSpaceOnUse">
<stop stop-color="#0B7A66"/>
<stop offset="1" stop-color="#AEEFE3"/>
</linearGradient>
<clipPath id="clip0_263_266">
<rect width="16" height="16" fill="white"/>
</clipPath>
</defs>
</svg>
