<svg width="14" height="14" viewBox="0 0 14 14" fill="none" xmlns="http://www.w3.org/2000/svg">
<path d="M0.437484 12.5022C0.437484 12.421 0.437484 12.3462 0.437484 12.2709C0.437484 9.58951 0.437485 6.9077 0.438326 4.22631C0.438326 4.12159 0.454306 4.01982 0.313844 3.97945C0.275574 3.96852 0.233102 3.89492 0.23184 3.84908C0.228055 3.71072 0.22595 3.56774 0.255809 3.434C0.31847 3.15476 0.495099 3.07486 0.729762 3.23509C0.971575 3.39994 1.19236 3.59591 1.41777 3.7839C2.40689 4.6069 3.39433 5.43159 4.38261 6.25585C4.50835 6.36099 4.63409 6.46613 4.79053 6.5965C4.79853 6.49683 4.80652 6.44426 4.80652 6.39169C4.80652 5.66373 4.80862 4.93535 4.80105 4.20738C4.80021 4.13295 4.75563 4.04421 4.70348 3.98786C4.58405 3.85875 4.58994 3.42349 4.72787 3.26284C4.84647 3.12448 5.04412 3.14719 5.24262 3.31499C6.4828 4.36046 7.72383 5.40467 8.9657 6.44846C9.0128 6.48799 9.06831 6.51701 9.15452 6.57421C9.16209 6.47286 9.1726 6.40136 9.1726 6.32945C9.17218 5.62924 9.17344 4.92904 9.16251 4.22925C9.16125 4.14935 9.107 4.05305 9.0477 3.99375C8.88327 3.82932 8.96359 3.63208 8.98252 3.46008C8.99429 3.35242 9.10994 3.20607 9.21003 3.17285C9.29961 3.14341 9.45016 3.22289 9.5431 3.29438C9.85893 3.53746 10.1613 3.79735 10.4679 4.05262C11.4242 4.84956 12.3784 5.64859 13.336 6.44384C13.5997 6.66294 13.5656 7.08433 13.275 7.25465C13.225 7.28408 13.1934 7.38586 13.1934 7.4544C13.1905 8.59576 13.1943 9.7367 13.1959 10.8781C13.1968 11.347 13.1964 11.8163 13.1964 12.2852C13.1964 12.3537 13.1964 12.4223 13.1964 12.4984C13.2645 12.5072 13.3116 12.511 13.3583 12.5199C13.54 12.5539 13.6421 12.6923 13.6316 12.8803C13.6207 13.0729 13.4832 13.1191 13.3305 13.136C13.2199 13.1481 13.1068 13.1397 12.9945 13.1397C8.82145 13.1397 4.64881 13.1397 0.475755 13.1385C0.392908 13.1385 0.306274 13.1381 0.227212 13.1166C0.0631998 13.0725 -0.015861 12.9547 0.00264292 12.7861C0.0211469 12.6183 0.116608 12.5211 0.292396 12.5157C0.333189 12.5144 0.373562 12.5081 0.437905 12.5022H0.437484ZM3.33545 9.43601V9.43433C3.76231 9.43433 4.18958 9.43937 4.61643 9.43306C5.27122 9.42381 5.16987 9.56091 5.17744 8.82496C5.17912 8.67272 5.10552 8.61006 4.95917 8.61006C3.88805 8.61048 2.81692 8.61006 1.7458 8.60922C1.5923 8.60922 1.50861 8.6702 1.51912 8.83589C1.52585 8.94061 1.5208 9.04574 1.52249 9.15088C1.52627 9.43475 1.52753 9.43601 1.80215 9.43601C2.31311 9.43601 2.82407 9.43601 3.33545 9.43601ZM10.5995 9.43517V9.43391C11.0474 9.43391 11.4948 9.43769 11.9427 9.43306C12.4932 9.4276 12.4373 9.52054 12.4356 8.92505C12.4348 8.64665 12.3978 8.6109 12.1202 8.61048C11.1967 8.60922 10.2732 8.60459 9.34965 8.6109C8.73566 8.61511 8.77729 8.49231 8.77561 9.2005C8.77519 9.38428 8.84584 9.4419 9.02583 9.43853C9.55025 9.42928 10.0751 9.43517 10.5999 9.43517H10.5995ZM9.09102 9.69969V12.6296H12.0386V9.70221H11.7253V12.3613H9.41021V9.69969H9.0906H9.09102ZM4.50162 9.69717V12.3617H2.10999V9.70053H1.83117V12.6292H4.79432V9.69717H4.50162ZM8.02704 11.2048V10.0021H7.25282V11.2048H8.02704ZM7.24946 8.31778V9.47974H8.02368V8.31778H7.24946ZM5.94577 9.99407V11.2019H6.68256V9.99407H5.94577ZM5.93946 9.47764H6.68719V8.32367H5.93946V9.47764ZM9.50904 9.83216C9.49937 9.82922 9.48927 9.82627 9.4796 9.82333C9.4796 10.5984 9.4775 11.3739 9.48507 12.1489C9.48549 12.196 9.56623 12.2827 9.61039 12.2831C10.2597 12.2919 10.9094 12.289 11.5588 12.289C10.9666 12.2616 10.3741 12.2558 9.78197 12.2646C9.57885 12.2675 9.49979 12.2095 9.50399 11.9912C9.51703 11.2717 9.50904 10.5517 9.50904 9.83174V9.83216ZM2.25676 12.2671L2.26349 12.2818H4.28041C4.28041 12.2768 4.28041 12.2722 4.28041 12.2671H2.25718H2.25676Z" fill="#0B7A66"/>
<path d="M7.64988 1.86904H5.95425C5.95299 1.84381 5.94584 1.78493 5.94752 1.72606C5.95845 1.30047 5.97275 0.874457 5.98243 0.448866C5.98873 0.161214 6.04761 0.0607042 6.33694 0.0388359C6.68137 0.0127622 7.03126 0.0178087 7.37485 0.0493495C7.47325 0.058181 7.63348 0.202007 7.63769 0.289901C7.6625 0.825253 7.64988 1.36229 7.64988 1.86904Z" fill="#0B7A66"/>
<path d="M3.24436 1.86003H1.56092C1.56092 1.71368 1.56008 1.55597 1.56092 1.39785C1.5626 1.10431 1.56555 0.810769 1.56807 0.517229C1.57144 0.145889 1.67237 0.0163611 2.04034 0.00290365C2.35953 -0.00887158 2.68125 0.0172021 3.00044 0.0445375C3.14133 0.0567333 3.2452 0.140842 3.24478 0.306957C3.24352 0.837263 3.24436 1.36799 3.24436 1.85961V1.86003Z" fill="#0B7A66"/>
<path d="M11.9317 1.86175H10.2706C10.2706 1.37896 10.2613 0.863798 10.2752 0.349473C10.2807 0.137098 10.4346 0.0189255 10.7479 0.00588865C11.0528 -0.00672767 11.3606 0.0252336 11.6655 0.052569C11.838 0.0681291 11.925 0.203124 11.928 0.358725C11.9385 0.867583 11.9317 1.37686 11.9317 1.86175Z" fill="#0B7A66"/>
<path d="M5.94267 3.59427C5.94267 3.14429 5.93721 2.73972 5.94898 2.336C5.95066 2.27881 6.02762 2.18839 6.08524 2.17409C6.5798 2.05003 7.07814 2.06181 7.5727 2.17872C7.62233 2.19049 7.69256 2.26283 7.6934 2.30825C7.70265 2.74687 7.69887 3.1855 7.69887 3.59427H5.94309H5.94267Z" fill="#0B7A66"/>
<path d="M11.9807 3.59413H10.2254C10.2254 3.13406 10.2216 2.70931 10.2308 2.28498C10.2317 2.23956 10.3049 2.16597 10.3545 2.15671C10.8532 2.06209 11.3533 2.06756 11.8495 2.17522C11.9 2.18615 11.974 2.25722 11.9753 2.3018C11.9845 2.74085 11.9811 3.1799 11.9811 3.59455L11.9807 3.59413Z" fill="#0B7A66"/>
<path d="M1.54424 3.59117C1.54424 3.1395 1.53877 2.72779 1.55054 2.3165C1.55223 2.25847 1.63718 2.15459 1.68554 2.15375C2.16454 2.1424 2.64438 2.14282 3.12338 2.15585C3.18141 2.15753 3.28487 2.24879 3.28655 2.30094C3.29959 2.73957 3.29412 3.17862 3.29412 3.59159H1.54424V3.59117Z" fill="#0B7A66"/>
<path d="M7.72032 5.04619C7.27202 4.66686 6.8233 4.28795 6.375 3.90862C6.37963 3.88802 6.38425 3.86741 6.3893 3.8468C6.81531 3.86699 7.24132 3.88423 7.66649 3.91283C7.70602 3.91535 7.77163 3.98979 7.77289 4.03226C7.78172 4.35776 7.77793 4.68368 7.77793 5.00961C7.75859 5.0218 7.73966 5.034 7.72032 5.04577V5.04619Z" fill="#0B7A66"/>
<path d="M2.03987 3.84521C2.44948 3.86456 2.85951 3.8797 3.26828 3.90956C3.3179 3.91334 3.39991 3.99661 3.40201 4.04581C3.4142 4.36543 3.40831 4.6863 3.40831 5.07867C2.91502 4.66528 2.4663 4.28931 2.01758 3.91292C2.02515 3.89021 2.03272 3.8675 2.04029 3.84521H2.03987Z" fill="#0B7A66"/>
<path d="M10.7744 3.84546C11.1764 3.86565 11.5789 3.88289 11.9805 3.91106C12.0213 3.91401 12.0899 3.98424 12.0907 4.02503C12.0999 4.35095 12.0957 4.67687 12.0957 5.06462C11.623 4.66089 11.1865 4.28787 10.75 3.91527C10.758 3.89214 10.766 3.86901 10.774 3.84588L10.7744 3.84546Z" fill="#0B7A66"/>
</svg>
