<svg width="18" height="17" viewBox="0 0 18 17" fill="none" xmlns="http://www.w3.org/2000/svg">
<path d="M11.9766 8.27539C11.9766 5.78258 11.9766 3.28976 11.9772 0.796937C11.9772 0.627349 11.9951 0.457761 11.9919 0.288172C11.988 0.0828814 12.0856 4.75011e-10 12.2832 0.0076506C12.3782 0.0114759 12.4739 0 12.5695 0C13.9593 0 15.3492 -4.75011e-10 16.7384 0.00446285C17.2912 0.00573795 17.2924 0.0108383 17.2931 0.568694C17.2982 5.54413 17.302 10.5202 17.3071 15.4956C17.3071 15.7609 17.3071 16.0254 17.3122 16.2907C17.3154 16.4762 17.223 16.5629 17.0438 16.5686C16.9698 16.5712 16.8953 16.5731 16.8213 16.5731C15.3677 16.5731 13.9147 16.5744 12.4611 16.5737C12.0575 16.5737 12.025 16.5444 12.025 16.1364C12.0231 13.5161 12.0244 10.8957 12.0244 8.27539C12.0084 8.27539 11.9931 8.27539 11.9772 8.27539H11.9766Z" fill="#0B7A66"/>
<path d="M5.31462 11.2278C5.31462 12.8402 5.31462 14.4519 5.31462 16.0643C5.31462 16.1491 5.3159 16.2345 5.3108 16.3187C5.29996 16.4819 5.21261 16.568 5.04621 16.5699C4.87662 16.5712 4.70704 16.5724 4.53745 16.5724C3.20114 16.5724 1.86484 16.5724 0.528536 16.5718C0.0892646 16.5718 0.0191363 16.5252 0.0127608 16.0828C-0.00317798 14.9696 0.00255716 13.8558 0.00191961 12.7427C0.000644514 10.6745 0.00319674 8.60624 8.98793e-06 6.53867C-0.00126611 5.69073 0.132619 5.82143 0.728728 5.82206C2.10775 5.82398 3.48613 5.82206 4.86515 5.82461C5.25151 5.82461 5.3057 5.88199 5.3057 6.26452C5.3057 7.91896 5.3057 9.57341 5.3057 11.2278H5.31526H5.31462Z" fill="#0B7A66"/>
<path d="M11.1721 12.6783C11.1721 13.8558 11.1727 15.0334 11.1721 16.2109C11.1721 16.5609 11.1631 16.5711 10.8163 16.5718C9.4156 16.5737 8.01555 16.573 6.61485 16.5711C6.25527 16.5711 6.22084 16.5361 6.22021 16.1586C6.21702 13.8137 6.21638 11.4695 6.21702 9.12456C6.21702 8.81088 6.27567 8.7535 6.58871 8.75286C7.9894 8.75095 9.38946 8.75159 10.7902 8.7535C11.0873 8.7535 11.1306 8.79558 11.1319 9.11435C11.1357 10.3021 11.1332 11.4905 11.1332 12.6783C11.1459 12.6783 11.1587 12.6783 11.1714 12.6783H11.1721Z" fill="#0B7A66"/>
</svg>
