<svg width="20" height="21" viewBox="0 0 20 21" fill="none" xmlns="http://www.w3.org/2000/svg">
<path d="M13.0186 18.7938C12.8191 19.2828 12.5086 19.7169 12.0719 20.0548C11.3476 20.6152 10.5201 20.8103 9.62302 20.716C8.44037 20.5917 7.60072 19.972 7.09259 18.9021C7.03648 18.7836 6.95679 18.7632 6.84139 18.7606C6.08909 18.7434 5.33486 18.7428 4.58447 18.6943C3.46684 18.6223 2.34412 18.563 1.25837 18.255C0.986138 18.1779 0.719642 18.0689 0.465897 17.9426C0.18155 17.8011 0.0406519 17.5544 0.0113246 17.2286C-0.0626312 16.4081 0.231917 15.7048 0.711354 15.0762C1.02567 14.6644 1.38716 14.2869 1.74737 13.9127C2.46207 13.1706 2.97721 12.3188 3.16337 11.3C3.25581 10.7919 3.29853 10.271 3.31957 9.75395C3.34826 9.05455 3.31638 8.35261 3.34316 7.65322C3.37312 6.87158 3.4305 6.09186 3.64026 5.32999C4.10248 3.65323 5.19524 2.60574 6.83566 2.10654C7.609 1.87128 8.40722 1.78266 9.21435 1.77629C10.0629 1.76927 10.9109 1.76226 11.7524 1.89933C12.9294 2.0906 13.9934 2.51329 14.8375 3.38993C15.5344 4.11418 15.929 4.99209 16.119 5.96627C16.3492 7.14637 16.3728 8.34114 16.3874 9.53909C16.3944 10.1282 16.4767 10.7192 16.5634 11.3038C16.6845 12.1154 17.0977 12.7912 17.6459 13.3829C18.0635 13.8343 18.5194 14.2506 18.9395 14.6994C19.4464 15.2401 19.848 15.8483 19.9717 16.5961C20.0125 16.8441 20.0189 17.1049 19.9934 17.3548C19.9615 17.6704 19.7263 17.8693 19.4553 17.9732C19.0339 18.1345 18.6016 18.2869 18.1598 18.3711C17.162 18.5617 16.1547 18.6892 15.1353 18.7071C14.4365 18.7192 13.739 18.7619 13.0192 18.7918L13.0186 18.7938ZM13.7461 16.7982C13.8927 16.7982 13.9972 16.7906 14.1005 16.7995C14.9561 16.8722 15.8143 16.9277 16.6667 17.0278C17.361 17.1094 18.0489 17.2426 18.7393 17.3561C18.944 17.3899 19.12 17.3803 19.2048 17.1055C19.0938 17.0526 18.988 16.9818 18.8713 16.9506C18.4926 16.8492 18.1139 16.7389 17.7288 16.6739C15.8952 16.3641 14.0438 16.2251 12.1872 16.1804C10.214 16.1333 8.24018 16.1282 6.26887 16.2799C5.03075 16.3749 3.79327 16.4724 2.57874 16.7389C2.08336 16.8473 1.59946 17.0118 1.11237 17.1559C0.996339 17.1903 0.88668 17.2528 0.923658 17.4039C0.963186 17.5646 1.09197 17.5748 1.22713 17.5576C1.26921 17.5525 1.31065 17.5423 1.35145 17.5321C2.90899 17.1349 4.49967 16.9576 6.0961 16.8135C6.13371 16.8103 6.17388 16.8256 6.22807 16.8352C6.22807 17.2821 6.18344 17.7208 6.23955 18.146C6.31223 18.6949 6.36387 18.7026 6.94213 18.6159C6.91917 18.5139 6.89431 18.4131 6.87518 18.3111C6.7923 17.8827 6.72982 17.4568 6.82354 17.0175C6.86626 16.8174 6.94149 16.7256 7.15634 16.73C7.48468 16.737 7.81429 16.7077 8.14263 16.709C9.73396 16.7147 11.3253 16.7281 12.9172 16.7332C13.076 16.7332 13.1442 16.8027 13.1786 16.9461C13.2692 17.3217 13.3055 17.6991 13.229 18.0816C13.1927 18.2633 13.1557 18.445 13.1174 18.635H13.644C13.82 18.0408 13.8704 17.4479 13.7467 16.7982H13.7461ZM1.77861 16.1467C1.85958 16.3143 2.01132 16.306 2.15795 16.2965C2.78148 16.2557 3.40628 16.2244 4.02789 16.1664C5.14487 16.0619 6.26059 15.9446 7.3763 15.8234C7.70336 15.7884 8.04955 15.7711 8.22743 15.4147C8.23571 15.3982 8.24655 15.3829 8.25612 15.3669C6.37216 15.1795 2.4321 15.7067 1.77797 16.1467H1.77861Z" fill="#0B7A66"/>
<path d="M11.4359 1.65C10.2908 1.43897 9.15916 1.43705 8.03006 1.65C7.95866 0.74085 8.33545 0.27289 9.06799 0.0816253C9.52767 -0.038234 10.0116 -0.0235709 10.4795 0.109039C11.1757 0.306042 11.5411 0.868361 11.4365 1.64936L11.4359 1.65Z" fill="#0B7A66"/>
</svg>
