<svg width="18" height="17" viewBox="0 0 18 17" fill="none" xmlns="http://www.w3.org/2000/svg">
<path d="M11.7424 3.37333C13.0417 4.69497 14.32 5.9943 15.6289 7.32614C15.4338 7.51103 15.2623 7.67424 15.1157 7.81386C13.7717 6.49541 12.4501 5.19927 11.1061 3.88082C10.7261 4.25251 10.3627 4.6038 10.0032 4.95955C8.31366 6.63185 6.63627 8.31689 4.93018 9.97197C4.45393 10.4336 4.27032 11.0188 4.04845 11.5964C3.64297 12.6497 3.25407 13.7093 2.86133 14.7676C2.79949 14.9353 2.73127 15.1062 2.70832 15.2808C2.65031 15.7239 2.93848 16.0663 3.38668 16.0988C3.52184 16.1084 3.66592 16.1039 3.79598 16.0701C5.43767 15.6404 7.07936 15.2094 8.71595 14.7612C8.90786 14.7083 9.09785 14.5776 9.24321 14.4361C10.672 13.0443 12.0911 11.6423 13.5135 10.2436C13.5645 10.1932 13.6181 10.1454 13.7239 10.0466C13.7239 10.2378 13.7239 10.3685 13.7239 10.4992C13.7239 12.3354 13.7252 14.1715 13.7252 16.0077C13.7252 16.5062 13.6404 16.5936 13.131 16.5936C9.22536 16.5948 5.31909 16.5936 1.41346 16.5936C1.15844 16.5936 0.904058 16.5955 0.649038 16.5916C0.167688 16.5846 0.0216889 16.4507 0.015951 15.9662C0.00575019 15.117 0.00957534 14.2684 0.00957534 13.4192C0.00893779 10.0867 0.00957556 6.75426 0.00830046 3.42178C0.00830046 2.49861 0.00256244 1.57544 1.22454e-05 0.652268C-0.00126285 0.103338 0.0962821 0.00515555 0.649675 0.004518C3.55754 0.00388045 6.46604 0.004518 9.3739 0.004518C10.5304 0.004518 11.6876 -0.000582398 12.8441 5.51513e-05C12.9703 5.51513e-05 13.0972 0.0179065 13.2215 0.0402208C13.4498 0.0810239 13.5792 0.234036 13.5913 0.454628C13.6072 0.739613 13.6283 1.0348 13.5741 1.31086C13.5358 1.50403 13.4045 1.7004 13.2642 1.84767C12.8103 2.32329 12.3328 2.77658 11.8654 3.23944C11.8285 3.27578 11.7947 3.31595 11.7418 3.37397L11.7424 3.37333ZM5.92986 3.18908C5.92986 3.18908 5.92986 3.19482 5.92986 3.198C7.11762 3.198 8.30537 3.198 9.49313 3.19737C9.62 3.19737 9.74751 3.19163 9.87438 3.18015C10.0172 3.1674 10.1141 3.09982 10.1166 2.94171C10.1192 2.77913 10.0287 2.68605 9.88139 2.64844C9.82146 2.63313 9.75452 2.64397 9.6914 2.64397C7.21006 2.64397 4.72808 2.64334 2.24674 2.6427C2.18298 2.6427 2.11923 2.63824 2.05611 2.64525C1.89417 2.66246 1.81129 2.76638 1.80045 2.91876C1.78834 3.08771 1.8878 3.17123 2.04973 3.18207C2.14473 3.18844 2.24036 3.18972 2.33536 3.18972C3.53395 3.18972 4.73191 3.18972 5.9305 3.18972L5.92986 3.18908ZM4.8422 5.65448C5.70034 5.65448 6.55848 5.65512 7.41726 5.65448C7.50206 5.65448 7.5894 5.66468 7.67101 5.64747C7.83231 5.61368 7.94197 5.50721 7.93559 5.33953C7.92922 5.17823 7.84187 5.06156 7.65698 5.05582C7.57219 5.05327 7.48803 5.0418 7.40324 5.0418C5.68695 5.0418 3.97003 5.04244 2.25375 5.04435C2.17979 5.04435 2.10456 5.04435 2.03188 5.0571C1.87441 5.08324 1.78005 5.19035 1.78005 5.34017C1.78005 5.50147 1.87632 5.61942 2.04527 5.64747C2.12815 5.6615 2.21422 5.65448 2.29902 5.65448C3.14696 5.65448 3.99426 5.65448 4.8422 5.65448ZM3.50781 7.4205C3.06216 7.4205 2.61652 7.41794 2.17087 7.42177C1.93753 7.42368 1.80683 7.53398 1.80045 7.72014C1.79471 7.90057 1.92605 8.00832 2.17151 8.0115C2.48964 8.01533 2.80842 8.0115 3.12656 8.0115C3.70991 8.0115 4.29391 8.0115 4.87727 8.01342C5.02518 8.01342 5.15078 7.98664 5.20816 7.82789C5.2853 7.61559 5.13675 7.42496 4.87663 7.42241C4.42014 7.41731 3.9643 7.42113 3.50781 7.4205ZM0.129435 15.6972C0.13581 15.7004 0.141548 15.7029 0.147924 15.7061V0.546435H0.129435V15.6965V15.6972Z" fill="#0B7A66"/>
<path d="M14.4504 8.33087C13.86 8.94037 13.2894 9.55051 12.6952 10.1377C11.489 11.3312 10.2611 12.5024 9.06375 13.7041C8.73478 14.0344 8.36819 14.2359 7.927 14.3455C6.51611 14.6962 5.10776 15.0557 3.6975 15.4089C3.58912 15.4357 3.47563 15.4389 3.30859 15.4606C3.44822 15.064 3.56298 14.7166 3.6924 14.3748C4.10744 13.2814 4.52121 12.1874 4.9522 11.0998C5.03062 10.9015 5.1594 10.7051 5.31114 10.5559C7.08161 8.81732 8.86038 7.08701 10.6385 5.35607C10.7743 5.22346 10.9203 5.10168 11.0446 4.99011C12.196 6.11985 13.3353 7.23811 14.4485 8.33151L14.4504 8.33087Z" fill="#0B7A66"/>
<path d="M16.0806 6.79368C14.9171 5.60402 13.7918 4.45324 12.6602 3.29609C13.0102 2.9601 13.3347 2.63112 13.6783 2.32255C14.0902 1.95213 14.7456 1.92727 15.2046 2.25943C15.3748 2.38248 15.5285 2.5323 15.6777 2.68276C16.1029 3.11247 16.539 3.53262 16.9381 3.98528C17.4545 4.57055 17.4093 5.48352 16.8648 6.03372C16.6206 6.28109 16.3656 6.51826 16.0812 6.79305L16.0806 6.79368Z" fill="#0B7A66"/>
</svg>
