<svg width="19" height="20" viewBox="0 0 19 20" fill="none" xmlns="http://www.w3.org/2000/svg">
<path d="M7.6221 13.1932C7.61184 13.0079 7.6233 12.8178 7.58648 12.6379C7.48205 12.1236 7.06434 11.8417 6.70156 11.5356C5.52327 10.5421 4.8961 9.27445 4.72286 7.75511C4.52487 6.02028 4.99812 4.4768 6.06413 3.12286C7.4561 1.35543 9.30079 0.34495 11.527 0.0648661C13.3934 -0.169946 15.127 0.222414 16.6095 1.41096C17.9424 2.47999 18.779 3.88162 18.9468 5.59955C19.2112 8.30743 18.1065 10.4081 15.9443 11.9872C14.3067 13.183 12.4584 13.6508 10.4483 13.495C10.1006 13.4685 9.75653 13.3894 9.41246 13.3236C8.67 13.1811 8.1708 13.5131 7.97945 14.2459C7.9221 14.4657 7.81465 14.7023 7.65892 14.861C6.47037 16.0731 5.27035 17.275 4.06068 18.4659C3.33512 19.18 2.48581 19.2609 1.66668 18.6482C1.21456 18.3102 0.795041 17.9027 0.446746 17.4591C-0.214832 16.6164 -0.131531 15.819 0.629646 15.0747C1.8858 13.8463 3.14739 12.6228 4.40777 11.3992C4.91542 10.9067 5.20033 10.894 5.7267 11.3576C6.19934 11.7741 6.66836 12.196 7.11927 12.6361C7.27863 12.7918 7.37944 13.0073 7.5068 13.1956C7.54544 13.195 7.58346 13.1938 7.6221 13.1932ZM10.6288 11.3552C12.354 11.3135 13.8491 10.7702 15.115 9.65172C16.3554 8.55553 17.1679 7.20521 17.2518 5.52591C17.3357 3.84842 16.691 2.49086 15.2049 1.61921C13.8437 0.821214 12.369 0.733688 10.8739 1.09224C8.69173 1.61559 7.06374 2.86631 6.14562 4.94763C5.58907 6.20922 5.53112 7.5034 6.18848 8.74144C7.13376 10.5209 8.6875 11.3147 10.6288 11.3558V11.3552ZM6.12691 12.0469C4.68785 13.4051 3.31339 14.7017 1.92443 16.0128C2.16709 16.2307 2.39044 16.4045 2.57997 16.6092C2.77193 16.8162 2.90412 16.8162 3.11238 16.6134C4.26893 15.4852 5.44118 14.3727 6.60558 13.2536C6.71182 13.1516 6.80659 13.0369 6.94543 12.8866C6.67198 12.6059 6.41604 12.3439 6.12691 12.0475V12.0469Z" fill="#0B7A66"/>
<path d="M6.49864 7.88613C6.26564 7.1835 6.24814 6.47061 6.45156 5.76376C6.99241 3.88285 8.30591 2.71603 10.0486 1.98444C11.6458 1.3138 13.2581 1.23956 14.8312 2.06351C15.1547 2.23313 15.4179 2.52046 15.7022 2.76131C15.8869 2.91825 16.0595 3.08908 16.2219 3.27741C14.2124 1.79912 12.0804 1.71341 9.91881 2.80658C7.75842 3.89855 6.52943 5.64424 6.55056 8.15655C6.53305 8.06601 6.51555 7.97546 6.49864 7.88492C6.49864 7.38994 6.49864 6.89557 6.49864 6.4012C6.47088 6.4018 6.44311 6.40301 6.41595 6.40361C6.44311 6.89738 6.47088 7.39175 6.49804 7.88552L6.49864 7.88613Z" fill="#0B7A66"/>
</svg>
