<svg width="18" height="11" viewBox="0 0 18 11" fill="none" xmlns="http://www.w3.org/2000/svg">
<path d="M9.10991 1.61869C10.1232 1.06222 11.0745 0.323662 12.2513 0.10069C13.8786 -0.207892 15.3435 0.174162 16.4009 1.5056C17.5956 3.01018 17.3228 5.15621 15.7288 6.34901C14.4037 7.34056 12.9279 8.15898 11.284 8.47842C9.36291 8.85153 7.43794 7.9705 6.6502 6.37712C6.3052 5.67945 6.23811 4.93643 6.42211 4.17615C6.52433 3.75385 6.61122 3.68804 7.01756 3.80879C7.26736 3.8829 7.53122 3.97426 7.73247 4.13079C7.89155 4.2541 8.03211 4.47835 8.06341 4.67576C8.24358 5.81681 8.97319 6.51831 10.127 6.63778C10.6592 6.69337 11.178 6.64162 11.6463 6.39884C12.5663 5.92223 13.5061 5.46607 14.3622 4.88915C15.0918 4.39721 15.2426 3.55324 14.8982 2.85557C14.5366 2.12213 13.6971 1.72985 12.8704 1.87105C12.1491 1.99435 11.5549 2.39046 10.9275 2.71629C10.4854 2.94566 10.5084 2.93671 10.1749 2.58916C9.84847 2.24927 9.47855 1.95091 9.11055 1.61933L9.10991 1.61869Z" fill="#0B7A66"/>
<path d="M7.83828 8.41124C6.43464 9.17407 5.09234 10.1567 3.29451 10.0065C1.53502 9.8596 0.149909 8.62143 0.0119097 6.86705C-0.0743401 5.77264 0.31027 4.79769 1.0878 4.03997C1.62191 3.51928 2.23396 3.05737 2.87349 2.67148C3.69573 2.17506 4.54865 1.70931 5.5057 1.49656C7.43898 1.06659 9.4815 1.98978 10.2539 3.67709C10.5484 4.31981 10.6941 5.00533 10.5536 5.72089C10.482 6.08569 10.3957 6.14639 10.0348 6.10102C9.42464 6.02436 8.92758 5.60205 8.81897 5.0098C8.64264 4.05084 8.00695 3.54484 7.13486 3.30589C6.41292 3.10848 5.71015 3.219 5.05018 3.59978C4.4164 3.96522 3.75004 4.27572 3.13096 4.66225C2.43138 5.09861 1.95413 5.70428 1.98735 6.59041C2.02121 7.48102 2.71504 8.16207 3.67273 8.13971C4.14615 8.12885 4.6317 7.98319 5.08148 7.8158C5.57406 7.63244 6.03151 7.35324 6.44678 7.14497C6.92148 7.57622 7.37125 7.9851 7.83956 8.40996L7.83828 8.41124Z" fill="#0B7A66"/>
</svg>
