<svg width="18" height="19" viewBox="0 0 18 19" fill="none" xmlns="http://www.w3.org/2000/svg">
<path d="M5.56407 15.6612C5.29499 15.9253 5.02591 16.1883 4.75733 16.4529C4.59128 16.6165 4.41973 16.775 4.26418 16.9481C4.08813 17.1436 3.90107 17.1401 3.71652 16.9881C3.37092 16.704 3.03632 16.4064 2.69822 16.1153C3.12384 15.5706 3.52646 15.0555 3.92958 14.5403C3.90558 14.5183 3.88107 14.4963 3.85706 14.4738C3.50446 14.7549 3.15085 15.035 2.79925 15.3171C2.71522 15.3846 2.6362 15.4586 2.55317 15.5281C2.27859 15.7597 2.24458 15.7632 2.01201 15.4986C1.79295 15.2486 1.58889 14.986 1.37832 14.7289C1.23678 14.5563 1.24178 14.4343 1.44384 14.2858C1.85146 13.9862 2.23358 13.6511 2.62419 13.329C2.6522 13.306 2.66921 13.2695 2.66371 13.1989C2.46115 13.3 2.25909 13.402 2.05653 13.502C1.78194 13.6381 1.50786 13.7756 1.23128 13.9072C1.02022 14.0072 0.83316 14.0007 0.70162 13.7701C0.496559 13.4105 0.264492 13.0639 0.0844381 12.6923C-0.0971159 12.3167 0.0159174 12.0821 0.406034 11.9316C1.26929 11.5985 2.06753 11.1448 2.84076 10.6437C3.02581 10.5236 3.22237 10.3071 3.39893 10.3211C3.56448 10.3341 3.71052 10.5937 3.86457 10.7452C5.24648 12.1051 6.62639 13.4675 8.0128 14.8224C8.12884 14.936 8.12133 14.999 8.04381 15.132C7.65719 15.7977 7.28058 16.4689 6.91747 17.1471C6.80994 17.3487 6.75792 17.5797 6.6814 17.7978C6.55186 18.1664 6.3283 18.3045 5.97369 18.1589C5.55457 17.9869 5.15595 17.7638 4.75183 17.5567C4.59078 17.4742 4.58778 17.3602 4.68781 17.2101C4.96489 16.7965 5.23097 16.3759 5.49805 15.9553C5.54807 15.8767 5.58107 15.7877 5.62159 15.7037C5.60208 15.6892 5.58257 15.6747 5.56257 15.6597L5.56407 15.6612Z" fill="#0B7A66"/>
<path d="M4.58203 9.2408C5.09318 8.81617 5.67336 8.35754 6.37757 8.09746C7.30434 7.75536 8.14159 7.95692 8.88281 8.5771C9.30344 8.92921 9.71456 9.30182 9.96264 9.80597C10.3843 10.6617 10.2637 11.5225 9.89561 12.3472C9.67155 12.8489 9.34495 13.3055 9.02836 13.8437C7.52441 12.2867 6.05997 10.7713 4.58203 9.2408Z" fill="#0B7A66"/>
<path d="M8.49609 7.83884C8.69565 7.67179 8.8682 7.50324 9.06526 7.3717C9.15879 7.30919 9.31584 7.26867 9.41387 7.30368C9.59842 7.3687 9.68895 7.28218 9.79848 7.17315C12.1177 4.86546 14.4384 2.55927 16.7596 0.253085C17.0902 -0.075513 17.3827 -0.0830161 17.6853 0.224075C17.9554 0.498157 17.9459 0.860763 17.6598 1.15385C15.4782 3.38702 13.2965 5.61968 11.1149 7.85285C11.0449 7.92437 10.9748 7.99539 10.9003 8.06191C10.7553 8.19195 10.6627 8.30898 10.7028 8.54656C10.7458 8.80263 10.5952 9.0447 10.3872 9.21776C10.2546 9.32779 10.1186 9.33729 10.001 9.18174C9.59492 8.64558 9.09677 8.21045 8.49609 7.83884Z" fill="#0B7A66"/>
<path d="M8.77094 14.1242C8.6309 14.2993 8.49736 14.4668 8.34281 14.6604C6.77535 13.1164 5.22038 11.585 3.64941 10.037C3.84647 9.86394 4.02553 9.70639 4.21709 9.53784C5.73604 11.0673 7.24649 12.5888 8.77094 14.1242Z" fill="#0B7A66"/>
</svg>
