<svg width="15" height="18" viewBox="0 0 15 18" fill="none" xmlns="http://www.w3.org/2000/svg">
<path d="M5.10362 0.635334C5.14067 1.89905 5.14898 3.13019 5.30998 4.34855L5.43201 4.34344C5.43201 4.22333 5.43201 4.10321 5.43201 3.98374C5.43201 2.89955 5.43776 1.81472 5.42562 0.730528C5.42306 0.493501 5.49526 0.363168 5.72206 0.280112C6.78645 -0.107692 7.83614 -0.0987478 8.88328 0.344001C9.08133 0.427695 9.10625 0.569528 9.10625 0.751611C9.10625 1.85753 9.11072 2.96344 9.11327 4.06871C9.11327 4.16838 9.11327 4.26805 9.16886 4.36899C9.43911 3.15063 9.37011 1.91119 9.40077 0.650028C9.50555 0.660889 9.5918 0.650028 9.6608 0.679417C10.69 1.12919 11.4599 1.83069 11.8043 2.93277C11.8356 3.03244 11.8484 3.13977 11.8573 3.24455C11.8745 3.43558 11.9557 3.57485 12.1589 3.58635C12.3882 3.59913 12.477 3.73202 12.4936 3.93391C12.5217 4.2821 12.5658 4.63221 12.5569 4.98041C12.5499 5.26152 12.6246 5.43593 12.8942 5.55157C13.052 5.61929 13.2098 5.74196 13.3076 5.88188C13.5261 6.19493 13.4175 6.61788 12.9996 6.81146C12.5901 7.00121 12.5588 7.27337 12.5435 7.66118C12.5262 8.09818 12.401 8.5339 12.2956 8.96323C12.233 9.21879 12.0943 9.42898 11.7845 9.45773C11.7212 9.46348 11.6401 9.54654 11.6113 9.61298C11.1724 10.6148 10.4799 11.3993 9.58286 12.0126C9.54261 12.0401 9.51577 12.0868 9.43272 12.1826C9.87036 12.4081 10.276 12.6177 10.7105 12.8413C10.4952 13.5281 10.2754 14.2321 10.0524 14.9362C9.84161 15.6025 9.62502 16.2676 9.41675 16.9346C9.365 17.1007 9.29983 17.2004 9.09219 17.1985C7.94411 17.1889 6.79539 17.194 5.64731 17.1998C5.46459 17.2004 5.36173 17.1429 5.30167 16.9583C4.8832 15.669 4.4609 14.381 4.0239 13.0981C3.94468 12.8662 4.00601 12.7806 4.2194 12.7033C4.48645 12.6055 4.74967 12.4861 4.99564 12.3429C5.2972 12.1673 5.28315 12.1149 5.01034 11.9085C4.69729 11.6721 4.35165 11.4568 4.10504 11.1616C3.73384 10.7189 3.44379 10.2091 3.10263 9.73948C3.0151 9.61937 2.8624 9.54845 2.74676 9.44687C2.62729 9.34209 2.47204 9.24754 2.41007 9.11337C2.15771 8.56329 2.06954 7.97679 2.13279 7.37496C2.15643 7.14751 2.09957 7.02229 1.87213 6.9469C1.7271 6.89899 1.59038 6.79676 1.47602 6.69007C1.10674 6.34571 1.11888 5.84674 1.56802 5.63016C2.06315 5.39121 2.16793 5.0411 2.11363 4.5613C2.09574 4.40413 2.11363 4.24249 2.11235 4.08341C2.11043 3.82466 2.20051 3.63619 2.46565 3.54227C2.54424 3.51416 2.64262 3.41002 2.64965 3.33335C2.76274 2.12777 3.5524 1.44033 4.50945 0.879389C4.64617 0.798889 4.7944 0.738195 4.93943 0.672389C4.97648 0.655778 5.02056 0.6545 5.10554 0.636612L5.10362 0.635334ZM2.14365 5.39824C2.15324 5.45766 2.16218 5.51707 2.17177 5.57649C5.61537 4.84368 9.05833 4.86541 12.5134 5.4896C12.3192 5.3401 12.1186 5.21232 11.9033 5.17655C10.7878 4.99127 9.67294 4.75552 8.5485 4.67694C6.69062 4.5466 4.83784 4.67694 3.01829 5.11585C2.72121 5.18741 2.43499 5.30304 2.14429 5.39888L2.14365 5.39824ZM11.4235 7.50785C11.8298 6.79932 11.7027 6.42301 10.9839 6.32718C9.90294 6.18279 8.81492 6.06715 7.72561 6.01221C6.91103 5.97132 6.08814 6.01221 5.27356 6.07801C4.6104 6.13104 3.9549 6.27351 3.29557 6.3751C3.09368 6.4064 2.97421 6.53354 3.00232 6.72265C3.03874 6.96351 3.12946 7.19543 3.19654 7.43182C3.32176 7.34812 3.36073 7.26762 3.40035 7.18712C3.61182 6.76099 3.92934 6.46518 4.41681 6.41151C4.95412 6.35274 5.49462 6.27224 6.0332 6.27926C7.38061 6.29715 8.72803 6.34954 10.0742 6.40896C10.6236 6.43324 11.0376 6.70221 11.2612 7.22801C11.3002 7.32001 11.3615 7.40307 11.4222 7.50785H11.4235ZM5.07104 12.7921C5.09979 13.2476 5.35789 13.5389 5.69139 13.7568C6.60436 14.3535 7.58825 14.4104 8.57597 14.0041C8.90117 13.8699 9.17205 13.5792 9.43144 13.3236C9.53558 13.2214 9.54197 13.0202 9.59308 12.8643C9.56688 12.8489 9.54005 12.8336 9.51386 12.8183C8.94844 13.5498 8.15431 13.7779 7.2982 13.7792C6.42995 13.7804 5.65881 13.484 5.07104 12.7921Z" fill="#0B7A66"/>
<path d="M12.6276 17.1986V13.6049C14.1552 14.1498 14.7053 15.0232 14.7525 16.8165C14.7583 17.0402 14.658 17.1935 14.4216 17.196C13.8185 17.2037 13.2154 17.1986 12.627 17.1986H12.6276Z" fill="#0B7A66"/>
<path d="M2.05026 13.5454V17.196C1.47718 17.196 0.895788 17.2107 0.315678 17.189C0.0665123 17.1801 -0.0024877 16.9641 6.78459e-05 16.7463C0.0166789 15.3017 0.43515 14.2687 1.73912 13.6943C1.83367 13.6528 1.92504 13.6055 2.05026 13.5448V13.5454Z" fill="#0B7A66"/>
<path d="M11.1895 13.0112C11.2234 13.0093 11.2355 13.0055 11.2445 13.0087C12.0705 13.3249 12.0833 13.3249 12.0469 14.2021C12.006 15.1854 11.9389 16.1673 11.8827 17.171H10.0127C10.4031 15.791 10.7941 14.4078 11.1895 13.0112Z" fill="#0B7A66"/>
<path d="M4.64681 17.1768H2.78765C2.75315 16.6248 2.70651 16.0779 2.68862 15.5303C2.66818 14.8934 2.68287 14.2545 2.66179 13.6175C2.65412 13.392 2.71162 13.2648 2.9397 13.2048C3.12051 13.1575 3.29109 13.0687 3.47318 12.9952C3.86609 14.3957 4.25326 15.775 4.64617 17.1774L4.64681 17.1768Z" fill="#0B7A66"/>
</svg>
