<svg width="20" height="15" viewBox="0 0 20 15" fill="none" xmlns="http://www.w3.org/2000/svg">
<path d="M2.61784 12.7441C2.02666 12.7441 1.43549 12.7471 0.844309 12.7421C0.695765 12.7411 0.528215 12.7526 0.403178 12.6905C0.262636 12.6205 0.0660771 12.4805 0.0565743 12.3584C0.0100605 11.7458 -0.0154471 11.1276 0.0155621 10.5149C0.0395693 10.0503 0.288643 9.88671 0.799796 9.88521C1.8241 9.88271 2.84841 9.86971 3.87221 9.88621C4.71446 9.89971 5.36065 9.55211 5.8598 8.89692C7.13418 7.22492 8.40306 5.54842 9.68194 3.87992C10.0501 3.39978 10.3902 2.89213 10.8988 2.53552C11.4095 2.17791 11.9671 1.98186 12.5938 1.98436C13.3015 1.98736 14.0092 1.98536 14.7169 1.98536C15.0525 1.98536 15.1321 1.91033 15.1331 1.58024C15.1341 1.17211 15.1181 0.763493 15.1381 0.356872C15.1441 0.234335 15.2161 0.0672855 15.3111 0.0122691C15.3826 -0.0297434 15.5637 0.0437785 15.6542 0.1173C16.7636 1.01957 17.8619 1.93534 18.9702 2.83861C19.4619 3.23923 19.4739 3.32075 18.9912 3.73338C17.8599 4.70117 16.7285 5.66795 15.5902 6.62724C15.5172 6.68876 15.3661 6.72877 15.2901 6.69426C15.2116 6.65825 15.1396 6.52021 15.1361 6.42418C15.1201 5.99205 15.1256 5.55842 15.1316 5.12579C15.1351 4.89272 15.0315 4.79669 14.7995 4.7992C14.1503 4.8062 13.5006 4.8107 12.8514 4.7992C12.5128 4.79269 12.2627 4.92423 12.0607 5.18631C11.3649 6.08758 10.6647 6.98535 9.96753 7.88561C9.08677 9.02245 8.22051 10.1703 7.32374 11.2941C6.55351 12.2594 5.53721 12.7511 4.29184 12.7461C3.73417 12.7436 3.176 12.7461 2.61834 12.7461C2.61834 12.7456 2.61834 12.7451 2.61834 12.7446L2.61784 12.7441Z" fill="#0B7A66"/>
<path d="M13.4941 12.7966C12.9809 12.7646 12.4623 12.7691 11.9566 12.6901C11.5195 12.6216 11.1314 12.3995 10.8178 12.0679C10.4232 11.6503 10.021 11.2407 9.62693 10.823C9.36635 10.547 9.35535 10.3534 9.58692 10.0543C9.96903 9.56166 10.3551 9.07252 10.7463 8.58687C10.9963 8.27678 11.1439 8.27778 11.407 8.56887C11.697 8.88997 11.9861 9.21206 12.2797 9.53016C12.4973 9.76573 12.7539 9.90127 13.0925 9.89126C13.6581 9.87526 14.2248 9.88976 14.791 9.88576C15.0941 9.88376 15.1301 9.84175 15.1316 9.52966C15.1336 9.17155 15.1211 8.81294 15.1391 8.45584C15.1451 8.3348 15.1961 8.14924 15.2771 8.11623C15.3771 8.07522 15.5592 8.12474 15.6547 8.20026C16.5935 8.94348 17.5213 9.69971 18.4521 10.4524C18.6846 10.6405 18.9137 10.833 19.1468 11.0206C19.4023 11.2257 19.4113 11.3917 19.1603 11.6078C18.1825 12.4475 17.2012 13.2838 16.2219 14.1215C16.0323 14.2836 15.8553 14.4631 15.6522 14.6062C15.5507 14.6777 15.3856 14.7392 15.2836 14.7047C15.2046 14.6777 15.1406 14.4956 15.1366 14.3801C15.1206 13.965 15.1271 13.5484 15.1366 13.1327C15.1431 12.8702 15.0145 12.7781 14.77 12.7816C14.3453 12.7871 13.9207 12.7831 13.4966 12.7831C13.4961 12.7876 13.4956 12.7921 13.4951 12.7966H13.4941Z" fill="#0B7A66"/>
<path d="M2.51288 1.98379C3.05354 1.98379 3.59521 1.9993 4.13537 1.98029C4.98512 1.95028 5.69083 2.25537 6.2785 2.85255C6.73364 3.31519 7.17777 3.78833 7.63141 4.25247C7.80896 4.43352 7.81196 4.61658 7.66242 4.80663C7.29231 5.27627 6.9227 5.74741 6.54308 6.20905C6.31952 6.48113 6.11796 6.47863 5.87839 6.22055C5.53378 5.84894 5.18818 5.47733 4.85008 5.09922C4.65852 4.88466 4.42795 4.79963 4.14387 4.80113C2.95401 4.80663 1.76416 4.80363 0.573805 4.80263C0.228203 4.80263 0.022141 4.67159 0.0106376 4.34149C-0.0118691 3.6868 0.00363551 3.0291 0.035645 2.37441C0.0486489 2.10283 0.215699 1.99029 0.491281 1.98879C1.16548 1.98529 1.83918 1.98779 2.51338 1.98779C2.51338 1.98679 2.51338 1.98529 2.51338 1.98429L2.51288 1.98379Z" fill="#0B7A66"/>
</svg>
