<svg width="11" height="15" viewBox="0 0 11 15" fill="none" xmlns="http://www.w3.org/2000/svg">
<path d="M5.58591 14.1195C4.67249 14.0614 3.75571 14.0337 2.84607 13.9369C1.99195 13.8461 1.15086 13.6657 0.430887 13.1459C0.0263239 12.854 -0.11582 12.4596 0.101181 12.0109C0.27865 11.6437 0.303042 11.2879 0.298836 10.8905C0.289164 9.95482 0.302201 9.0149 0.383366 8.0834C0.474203 7.04003 0.731576 6.03451 1.43346 5.20225C1.9684 4.56765 2.63286 4.12271 3.40582 3.82833C3.53618 3.77871 3.64973 3.68661 3.77337 3.61806C3.80701 3.59956 3.84823 3.58694 3.8865 3.5861C4.53708 3.56844 5.18724 3.54363 5.83782 3.54026C6.22809 3.53816 6.61835 3.5697 7.00862 3.5861C7.02249 3.58652 7.04268 3.58442 7.04899 3.59199C7.25421 3.84221 7.57845 3.85146 7.84382 3.97637C9.11933 4.57648 9.92509 5.56476 10.2241 6.92774C10.3877 7.67337 10.4554 8.44254 10.5244 9.20499C10.5744 9.76095 10.5929 10.3262 10.5542 10.8821C10.529 11.2438 10.5959 11.5432 10.7733 11.8477C10.865 12.0054 10.9222 12.1967 10.9445 12.3788C10.9907 12.7619 10.7847 13.0307 10.4806 13.2317C9.94023 13.5883 9.32918 13.7502 8.70173 13.8604C7.67223 14.0412 6.63349 14.0993 5.58676 14.1186L5.58591 14.1195ZM5.76044 6.83691C5.96651 6.93489 6.16332 6.97442 6.27435 7.09386C6.42448 7.25577 6.50901 7.47866 6.63854 7.70533H7.64364C7.59191 7.48833 7.57299 7.28268 7.49434 7.10353C7.20417 6.44033 6.64148 6.15016 5.96104 6.05007C5.81932 6.02946 5.75497 5.9975 5.75539 5.83727C5.75624 5.39234 5.74825 5.39234 5.30163 5.41042C5.28775 5.41084 5.27345 5.41252 5.25957 5.41168C5.14687 5.40285 5.11449 5.46173 5.11785 5.56476C5.1229 5.71027 5.11911 5.85578 5.11911 5.98404C4.85627 6.05385 4.61446 6.10053 4.38526 6.18212C3.67538 6.43529 3.22877 7.0148 3.21909 7.67126C3.20942 8.34708 3.59927 8.87444 4.33396 9.15999C4.5417 9.24074 4.76333 9.28573 4.9736 9.36101C5.03164 9.38162 5.11364 9.45017 5.11491 9.49853C5.12542 9.98678 5.12121 10.4755 5.12121 10.9641C4.67207 10.9545 4.45339 10.7522 4.25027 10.1739H3.16148C3.15643 10.5415 3.23507 10.8691 3.4403 11.158C3.8457 11.7291 4.45297 11.9141 5.11911 12.0008V12.5227C5.2192 12.5281 5.29448 12.5353 5.36934 12.5361C5.62082 12.5392 5.74993 12.4143 5.75666 12.1614C5.75834 12.1067 5.76675 12.0525 5.77264 11.9924C5.82983 11.9848 5.87735 11.9785 5.92487 11.9722C6.57041 11.8847 7.14277 11.6593 7.54691 11.1143C8.02717 10.4662 7.90564 9.52292 7.27482 9.02415C6.95394 8.77057 6.57545 8.64987 6.18519 8.55525C5.75708 8.45179 5.75834 8.45011 5.7596 8.01022C5.76086 7.64183 5.7596 7.27301 5.7596 6.83691H5.76044ZM3.815 3.79133C3.7473 3.91202 3.69978 4.0058 3.64384 4.09496C3.29942 4.64419 2.93144 5.18038 2.61687 5.74643C2.4659 6.01811 2.41585 6.34571 2.32039 6.64808C2.34016 6.65439 2.35992 6.66028 2.37969 6.66659C2.42511 6.58878 2.46842 6.50972 2.51552 6.43318C2.98779 5.66527 3.46385 4.89988 3.92813 4.12734C3.96808 4.06089 3.94832 3.94398 3.92435 3.85945C3.91257 3.81782 3.82636 3.79805 3.81458 3.79133H3.815ZM6.98549 4.12271C6.96362 4.13785 6.94175 4.15299 6.91988 4.16813C7.3829 4.8389 7.8455 5.50967 8.30852 6.18086C8.11086 5.3301 7.68275 4.63536 6.98549 4.12271ZM0.598684 11.8334C0.631066 12.4693 1.29973 13.0698 1.76864 13.1131C1.36828 12.6749 0.980959 12.2514 0.598684 11.8334Z" fill="#0B7A66"/>
<path d="M7.0135 2.08555C7.11023 1.7407 7.2099 1.39628 7.30326 1.05017C7.48746 0.366363 7.33354 0.495891 8.05771 0.428183C8.25074 0.4101 8.45008 0.455098 8.64648 0.471079C8.65278 0.494209 8.65951 0.517339 8.66582 0.540048C8.57835 0.653174 8.49298 0.767983 8.4034 0.879427C7.8731 1.53716 7.46517 2.26386 7.19812 3.06457C7.12957 3.2698 7.03411 3.33162 6.82215 3.30597C5.8671 3.19032 4.90994 3.21975 3.95405 3.29798C3.80013 3.31059 3.71896 3.26433 3.6685 3.12429C3.34804 2.23442 2.86147 1.44211 2.25463 0.720041C2.12426 0.56486 2.14234 0.488321 2.34883 0.462668C2.58896 0.432389 2.84087 0.413464 3.07595 0.455519C3.19623 0.476966 3.33332 0.622895 3.3901 0.746115C3.65504 1.31974 3.89475 1.90555 4.14371 2.48675C4.17441 2.55866 4.20427 2.63099 4.25347 2.69534C4.14203 2.1276 3.97549 1.57963 3.70929 1.06531C3.61635 0.885735 3.52635 0.704481 3.43215 0.52575C3.35645 0.381923 3.37327 0.27132 3.55285 0.259966C3.86531 0.2402 4.17904 0.23221 4.49234 0.231369C4.74341 0.230948 4.99489 0.249873 5.24596 0.256181C5.29264 0.257443 5.35782 0.25534 5.38347 0.226743C5.62907 -0.0445081 5.95289 -0.00203316 6.26367 0.00932153C6.52819 0.018994 6.79146 0.0551608 7.05556 0.0753469C7.22504 0.0883838 7.28854 0.173334 7.2591 0.338187C7.16658 0.85882 7.07616 1.37945 6.98448 1.90009C6.97439 1.95686 6.96262 2.01321 6.95168 2.06957C6.97229 2.07461 6.9929 2.07966 7.01308 2.08471L7.0135 2.08555ZM5.55127 2.72477C5.56641 2.72562 5.58197 2.72646 5.59711 2.7273V0.757469C5.58197 0.757469 5.56641 0.757469 5.55127 0.757049V2.72477Z" fill="#0B7A66"/>
<path d="M5.7793 9.58832C6.32474 9.57065 6.75412 9.90415 6.75075 10.3251C6.74739 10.7208 6.31381 11.0245 5.7793 10.9917V9.5879V9.58832Z" fill="#0B7A66"/>
<path d="M5.10922 6.87622V8.25476C4.66513 8.22448 4.31565 7.92085 4.31061 7.5676C4.30556 7.21139 4.62223 6.93384 5.10922 6.87622Z" fill="#0B7A66"/>
</svg>
