<svg width="17" height="16" viewBox="0 0 17 16" fill="none" xmlns="http://www.w3.org/2000/svg">
<path d="M1.39934 6.46017C1.39934 5.83399 1.40234 5.24431 1.39884 4.65514C1.39034 3.38076 1.88098 2.31894 2.77475 1.43217C3.91309 0.303338 5.31201 -0.103283 6.87497 0.0217546C7.81075 0.0967769 8.62949 0.491394 9.33921 1.10708C9.43924 1.1936 9.54076 1.27813 9.62829 1.35215C9.27969 1.8638 8.93759 2.36545 8.58648 2.88061C8.45994 2.77257 8.3134 2.64304 8.16235 2.519C6.6264 1.25962 4.24269 1.90632 3.52747 3.82289C3.39744 4.17149 3.34992 4.56061 3.32441 4.93522C3.2904 5.43037 3.31591 5.92901 3.31591 6.45717C3.44345 6.45717 3.54048 6.45717 3.63801 6.45717C5.20347 6.45717 6.76894 6.46067 8.33441 6.45267C8.52646 6.45167 8.628 6.50369 8.71502 6.68174C9.09964 7.46697 9.68181 8.08466 10.383 8.60081C10.5061 8.69134 10.5871 8.84438 10.6736 8.97742C10.8462 9.243 11.0097 9.51458 11.1943 9.81167C10.2805 10.6599 10.384 11.5187 11.4168 12.3594C11.2368 12.5185 11.0957 12.6585 10.9392 12.7781C10.5026 13.1117 10.496 14.17 10.8672 14.5376C11.0727 14.7406 11.2358 14.9877 11.4118 15.2193C11.4538 15.2743 11.4718 15.3473 11.5008 15.4118C11.4268 15.4333 11.3528 15.4739 11.2793 15.4739C9.37222 15.4784 7.46565 15.4789 5.55858 15.4789C3.97661 15.4789 2.39414 15.4774 0.812167 15.4754C0.308517 15.4749 0.00392378 15.1788 0.00342363 14.6716C-0.000577565 12.1819 -0.000576954 9.69213 0.000923493 7.20189C0.000923493 6.80828 0.237995 6.40416 0.761651 6.45667C0.95871 6.47618 1.15927 6.45967 1.39984 6.45967L1.39934 6.46017Z" fill="#0B7A66"/>
<path d="M12.8551 0.809974C14.7436 0.800471 16.3406 2.14837 16.6882 3.95341C16.9978 5.56439 16.4261 6.88728 15.1353 7.89809C15.1223 7.90859 15.1097 7.92109 15.0947 7.92709C14.5301 8.15016 14.4385 8.57479 14.4521 9.14596C14.4931 10.86 14.4621 12.5755 14.4731 14.29C14.4751 14.6131 14.396 14.8652 14.1425 15.0782C13.9139 15.2703 13.7178 15.5009 13.5028 15.7094C13.1882 16.015 12.9121 16.0145 12.6345 15.6879C12.2364 15.2193 11.8468 14.7426 11.4657 14.2605C11.1996 13.9234 11.2251 13.4332 11.5132 13.1166C11.6867 12.9261 11.8803 12.7535 12.0518 12.562C12.2659 12.3229 12.2529 12.1889 12.0128 11.9728C11.8583 11.8338 11.6897 11.7097 11.5437 11.5632C11.1926 11.2101 11.1931 10.6939 11.5342 10.3353C11.6947 10.1663 11.8608 10.0027 12.0138 9.82716C12.1909 9.6251 12.1779 9.54708 11.9548 9.38853C11.8673 9.32651 11.7698 9.2775 11.6767 9.22298C11.4527 9.09194 11.3176 8.88938 11.3011 8.63931C11.2886 8.44925 11.1916 8.36522 11.0485 8.2782C9.94471 7.6065 9.21149 6.66522 8.98442 5.37283C8.72184 3.87989 9.236 2.67103 10.3548 1.68824C10.9575 1.15858 11.9358 0.778465 12.8556 0.810474L12.8551 0.809974ZM12.8271 1.93231C11.9838 1.93231 11.3091 2.60551 11.3136 3.45176C11.3176 4.18848 11.9023 4.9272 12.8186 4.9402C13.7889 4.95421 14.388 4.20449 14.3885 3.47577C14.3895 2.64052 13.6708 1.93231 12.8271 1.93181V1.93231ZM13.3102 8.64581C13.3102 8.75534 13.3102 8.85287 13.3102 8.9499C13.3102 10.6874 13.3097 12.4254 13.3092 14.163C13.3092 14.296 13.3012 14.4295 13.3107 14.5621C13.3227 14.7356 13.4453 14.7961 13.5478 14.6656C13.6353 14.5546 13.6898 14.387 13.6908 14.244C13.7028 12.6065 13.7023 10.969 13.7048 9.33151C13.7048 9.09344 13.7048 8.85537 13.7048 8.6078C13.5528 8.6223 13.4473 8.6328 13.3102 8.64581Z" fill="#0B7A66"/>
</svg>
