<svg width="14" height="15" viewBox="0 0 14 15" fill="none" xmlns="http://www.w3.org/2000/svg">
<path d="M6.77692 2.72108C6.3854 2.78669 5.99387 2.85271 5.60234 2.9179C4.57706 3.08906 3.55177 3.26022 2.52606 3.43096C2.31285 3.46671 2.09921 3.50035 1.88642 3.53736C1.82081 3.54872 1.78044 3.53147 1.74511 3.47007C1.32499 2.73622 0.978041 1.97294 0.814449 1.13647C0.798889 1.05657 0.790899 0.975408 0.770292 0.895925C0.770292 1.06414 0.752629 1.23446 0.773236 1.39974C0.864915 2.12181 1.13238 2.78711 1.46419 3.42718C2.07524 4.60638 2.86292 5.66279 3.72293 6.66915C4.58379 7.67677 5.54136 8.58389 6.57296 9.4132C7.65628 10.2841 8.81025 11.0449 10.0744 11.629C10.5887 11.8671 11.1136 12.0807 11.6687 12.2035C11.8748 12.2489 12.0854 12.2716 12.294 12.3049C12.297 12.2927 12.2999 12.2809 12.3033 12.2687C12.2882 12.259 12.2747 12.2451 12.2579 12.2401C11.2481 11.9377 10.3074 11.4848 9.415 10.9284C7.90188 9.98472 6.49978 8.89677 5.2104 7.66458C4.10815 6.61154 3.10683 5.47102 2.25019 4.20687C2.14631 4.05379 2.05001 3.89609 1.93814 3.72156C2.11687 3.6875 2.27626 3.65596 2.43607 3.62694C3.03366 3.5197 3.63125 3.41288 4.22927 3.30774C4.87775 3.19336 5.52707 3.08191 6.17554 2.9671C6.76346 2.86281 7.3497 2.75052 7.93846 2.65043C8.56423 2.54404 9.19169 2.44815 9.81788 2.34638C9.85741 2.34007 9.89568 2.32451 9.9331 2.30853C10.0458 2.26101 10.1589 2.21391 10.2687 2.16008C10.2973 2.14578 10.3175 2.10919 10.3356 2.07933C10.3574 2.04401 10.3629 1.99144 10.3928 1.96999C11.0648 1.48679 11.7267 0.986761 12.4173 0.531311C13.1145 0.0716569 13.7718 0.600701 13.8719 1.15918C13.911 1.37787 13.8833 1.59108 13.758 1.77318C13.5632 2.05578 13.3563 2.3304 13.1452 2.60123C12.9446 2.85902 12.7272 3.10378 12.5274 3.36199C12.3971 3.53021 12.2398 3.61138 12.0283 3.58278C11.9395 3.57058 11.8907 3.58656 11.8907 3.69843C11.8907 3.81197 11.8575 3.92258 11.7377 3.98314C11.7133 3.99533 11.6964 4.04411 11.6952 4.0765C11.6716 4.69175 11.6506 5.30743 11.6292 5.92269C11.6098 6.47612 11.5896 7.02998 11.5728 7.58341C11.5715 7.62799 11.5816 7.6814 11.6065 7.71715C12.0262 8.32736 12.387 8.97163 12.707 9.63861C12.9673 10.1815 13.1982 10.7362 13.3101 11.3317C13.3668 11.6345 13.39 11.9394 13.2773 12.2376C13.133 12.6182 12.8365 12.8019 12.4543 12.8739C11.974 12.9643 11.4942 12.9315 11.0189 12.8465C9.17066 12.5168 7.43886 11.8696 5.84416 10.8775C4.75453 10.1996 3.78349 9.37619 2.97478 8.37193C2.19131 7.39964 1.56975 6.32977 1.07519 5.18421C0.728658 4.38181 0.429652 3.56343 0.220221 2.71351C0.0965807 2.21223 -0.00603198 1.70757 0.000276176 1.18778C0.00321998 0.949334 0.0309759 0.713829 0.138635 0.495987C0.288349 0.193196 0.548245 0.048107 0.870382 0.0140429C1.35989 -0.0372635 1.83385 0.0586196 2.30107 0.194455C3.46682 0.532993 4.53332 1.07928 5.52707 1.76939C5.9556 2.06672 6.36984 2.38465 6.7908 2.69333L6.7765 2.72193L6.77692 2.72108ZM7.92206 4.96889C7.84552 5.00212 7.78749 5.03029 7.72777 5.05258C7.61002 5.0959 7.51456 5.04333 7.48512 4.92263C7.45947 4.81708 7.50741 4.74054 7.58731 4.68334C7.86992 4.4819 8.15378 4.28214 8.43849 4.08365C8.62395 3.95454 8.81151 3.8288 9.00454 3.69675C9.06931 3.81744 9.1286 3.92762 9.18748 4.03781C9.01758 4.16019 8.85988 4.27415 8.69923 4.3898C8.74591 4.43816 8.78502 4.48106 8.82581 4.52185C9.58027 5.27126 10.2876 6.06357 10.9475 6.89793C10.9803 6.93956 11.0051 7.00222 11.0034 7.05437C10.9912 7.42193 10.9706 7.78948 10.9542 8.15704C10.9243 8.82696 10.8962 9.49731 10.8663 10.1672C10.857 10.3699 10.8453 10.5722 10.8289 10.7745C10.8268 10.8002 10.7906 10.8401 10.7662 10.8431C10.6901 10.8523 10.6695 10.8998 10.6627 10.9621C10.6493 11.0886 10.635 11.2148 10.6274 11.3418C10.6257 11.3683 10.6451 11.412 10.6665 11.4217C10.8251 11.4924 10.987 11.5567 11.1661 11.6303C11.1729 11.4175 11.1775 11.2228 11.1867 11.0285C11.1901 10.9595 11.1716 10.9066 11.1098 10.8742C11.0467 10.8409 11.032 10.7913 11.0354 10.7211C11.053 10.3569 11.0652 9.99271 11.0803 9.6281C11.1026 9.0919 11.1237 8.55571 11.1485 8.01994C11.1796 7.34665 11.2137 6.67336 11.2477 6.00007C11.2713 5.52948 11.299 5.05889 11.3196 4.5883C11.3272 4.41672 11.3209 4.24429 11.3209 4.07692C11.2456 4.11393 11.1682 4.15892 11.0854 4.19004C11.0206 4.21444 11.0009 4.24808 10.9983 4.31747C10.9883 4.62152 10.7603 4.79479 10.4664 4.72582C10.0975 4.63876 9.80862 4.41966 9.56008 4.14673C9.36916 3.9373 9.20725 3.70642 9.14879 3.41961C9.09033 3.13153 9.23542 2.91327 9.50037 2.92883C9.67027 2.93893 9.79685 2.92463 9.85615 2.74295C9.86414 2.71814 9.90661 2.70426 9.9331 2.68534C9.92638 2.6744 9.91965 2.66305 9.91292 2.65211C9.04576 2.75935 8.19542 2.96206 7.31396 3.10336C7.64661 3.41751 7.95991 3.71315 8.27784 4.01341C8.25261 4.03318 8.23747 4.04622 8.22107 4.05757C7.97043 4.23294 7.72315 4.41335 7.46788 4.58157C7.25929 4.71909 7.28242 4.96889 7.41363 5.11945C7.4889 5.20566 7.59278 5.24603 7.70212 5.21365C7.80768 5.18253 7.90146 5.12113 7.92122 4.96847L7.92206 4.96889ZM10.426 3.41036C10.5938 3.63072 10.828 3.78801 10.9306 4.05463C10.9798 4.00837 11.0274 3.97262 11.0627 3.9272C11.1014 3.87758 11.1409 3.82249 11.1581 3.76361C11.1947 3.63871 11.217 3.51003 11.2444 3.38512C11.1342 3.3006 11.0034 3.19966 10.8655 3.09369C10.7309 3.19041 10.5812 3.29849 10.4256 3.41078L10.426 3.41036ZM7.26559 4.69638C7.10411 4.78764 7.00864 4.97941 7.03934 5.16949C7.06457 5.32509 7.18821 5.45504 7.33246 5.47775C7.45904 5.49794 7.59152 5.43107 7.65796 5.30995C7.51918 5.28598 7.37872 5.24855 7.33372 5.09968C7.29461 4.97015 7.28704 4.83137 7.26559 4.69596V4.69638ZM10.8045 4.25986C10.7393 4.2342 10.6825 4.21948 10.6333 4.19131C10.2687 3.98188 9.99282 3.6896 9.8204 3.30396C9.80652 3.27284 9.81493 3.23162 9.81325 3.19714C9.63242 3.29765 9.61433 3.33003 9.72325 3.49993C9.81872 3.6488 9.92806 3.79305 10.0525 3.91879C10.209 4.07692 10.3827 4.2199 10.5992 4.29392C10.6678 4.31747 10.7372 4.33261 10.8045 4.25986ZM10.5732 2.73076C10.4491 2.76945 10.3423 2.82958 10.2359 2.82874C10.1106 2.8279 10.0677 2.90655 10.0382 2.98519C10.0248 3.02135 10.0895 3.08822 10.1223 3.13953C10.1463 3.17695 10.1758 3.21144 10.2073 3.25307C10.3814 3.12649 10.5357 3.01504 10.6951 2.89939C10.6468 2.83253 10.6051 2.77491 10.5732 2.73076Z" fill="#0B7A66"/>
<path d="M2.47655 11.2402C2.47655 11.4438 2.47655 11.6078 2.47655 11.7722C2.47655 12.0477 2.47655 12.3227 2.47655 12.5982C2.47655 12.7458 2.5123 12.8068 2.65066 12.8539C2.98331 12.9666 3.31848 12.9632 3.65071 12.8513C3.7836 12.8063 3.82103 12.7386 3.82019 12.5935C3.81935 12.3976 3.82019 12.202 3.82019 12.0136C3.9821 11.964 4.14569 11.9325 4.2912 11.8639C4.43797 11.7945 4.57044 11.6927 4.70249 11.5956C4.75716 11.5552 4.79123 11.5325 4.86272 11.5678C5.04776 11.6599 5.24289 11.6755 5.44139 11.6023C5.46452 11.5939 5.49564 11.5889 5.51751 11.5969C5.75553 11.681 5.98095 11.7878 6.15968 11.9741C6.25892 12.078 6.31444 12.1991 6.31444 12.3446C6.31444 12.5372 6.30897 12.7302 6.31822 12.9224C6.33084 13.181 6.20888 13.3619 6.00912 13.5028C5.74124 13.692 5.4376 13.7992 5.12514 13.8855C4.60997 14.0272 4.08345 14.0932 3.5502 14.1197C2.7928 14.1575 2.04802 14.084 1.31585 13.888C1.02988 13.8114 0.752322 13.7118 0.50294 13.5465C0.270379 13.3926 0.127814 13.1895 0.143795 12.8951C0.151785 12.7508 0.151365 12.6057 0.144636 12.4615C0.129917 12.157 0.275425 11.9438 0.516818 11.7832C0.777555 11.6095 1.06899 11.5031 1.37136 11.4379C1.72883 11.3609 2.09175 11.3084 2.47655 11.2411V11.2402ZM0.36416 12.5342C0.449531 12.737 0.608496 12.8707 0.788489 12.9825C1.25908 13.2748 1.78181 13.417 2.32221 13.496C3.16582 13.6188 4.00229 13.573 4.82655 13.3522C5.20799 13.25 5.56671 13.0957 5.88296 12.8534C5.99356 12.7685 6.08903 12.6697 6.14285 12.5376C5.9473 12.7193 5.71853 12.8404 5.47713 12.9439C5.05617 13.1247 4.6146 13.2181 4.16251 13.2752C3.2697 13.388 2.38529 13.3551 1.51351 13.1243C1.08918 13.012 0.682091 12.8606 0.36416 12.5347V12.5342Z" fill="#0B7A66"/>
<path d="M2.09799 10.568C1.77544 10.3341 1.47012 10.1028 1.3326 9.71972C1.27331 9.55487 1.2813 9.38917 1.35153 9.22769C1.46171 8.97452 1.65684 8.79074 1.8524 8.61495C1.73422 8.47239 1.60974 8.33613 1.5004 8.18852C1.27625 7.88531 1.29013 7.59892 1.54119 7.31926C1.62993 7.22043 1.73506 7.13674 1.84945 7.03076C2.25401 7.76251 2.71661 8.43202 3.25911 9.04601C2.47438 8.95391 1.85113 9.65874 2.09757 10.5684L2.09799 10.568Z" fill="#0B7A66"/>
<path d="M3.98466 10.2053C3.98634 10.6944 3.62678 11.0557 3.13348 11.0594C2.65784 11.0632 2.26842 10.6641 2.26758 10.1721C2.26716 9.70655 2.63303 9.3289 3.08554 9.32764C3.58767 9.32638 3.98256 9.7116 3.98424 10.2053H3.98466Z" fill="#0B7A66"/>
<path d="M4.73265 11.2265C4.49967 11.523 4.19898 11.7055 3.81586 11.7921C3.81586 11.7366 3.81586 11.6941 3.81586 11.6512C3.81586 11.5722 3.82217 11.4918 3.81292 11.414C3.78306 11.1651 3.80913 10.9594 4.02403 10.7681C4.25827 10.5595 4.24944 10.2517 4.18005 9.95686C4.17711 9.94382 4.1729 9.9312 4.17501 9.93835C4.64896 10.2887 5.13469 10.6478 5.64102 11.0221C5.52789 11.1491 5.40468 11.3043 5.26169 11.4372C5.22258 11.4738 5.11156 11.4696 5.05394 11.4418C4.94124 11.3875 4.84325 11.303 4.73307 11.2265H4.73265Z" fill="#0B7A66"/>
<path d="M3.58861 11.1194C3.58861 11.1724 3.58861 11.2127 3.58861 11.2531C3.58861 11.7073 3.58735 12.1615 3.58945 12.6157C3.58945 12.6821 3.576 12.7292 3.50745 12.7498C3.27867 12.8184 3.04821 12.8188 2.81691 12.7667C2.74879 12.7511 2.71094 12.7074 2.71094 12.6342C2.71094 12.1392 2.71094 11.6438 2.71094 11.1291C3.00616 11.2468 3.29339 11.2312 3.58861 11.1194Z" fill="#0B7A66"/>
</svg>
