<svg width="22" height="13" viewBox="0 0 22 13" fill="none" xmlns="http://www.w3.org/2000/svg">
<path d="M12.3415 6.36486C12.6813 6.58337 13.0163 6.81094 13.3628 7.01799C14.1451 7.4852 14.9347 7.94033 15.7182 8.40513C15.8383 8.47636 15.947 8.56811 16.0556 8.65745C16.3822 8.92546 16.4945 9.25021 16.381 9.58161C16.2494 9.96612 15.8643 10.2601 15.4731 10.2522C15.3596 10.2498 15.2154 10.2263 15.1387 10.1551C14.348 9.41923 13.3652 8.99971 12.4296 8.50835C11.9817 8.27294 11.4982 8.09969 11.0177 7.93792C10.8119 7.8685 10.5716 7.9011 10.3471 7.88722L10.3278 7.96629C10.539 8.0834 10.7491 8.20352 10.9622 8.31761C12.0385 8.89407 13.1172 9.46571 14.1916 10.0458C14.4246 10.172 14.6461 10.3271 14.6087 10.6452C14.5725 10.9531 14.3932 11.1553 14.1089 11.2651C13.9882 11.3122 13.8657 11.3617 13.7389 11.3865C13.2783 11.4782 13.1938 11.4148 13.0393 10.9681C12.8419 10.3965 12.4218 10.0633 11.8363 9.96552C11.6648 9.93715 11.4741 10.0241 11.2803 10.0603C10.6978 9.13432 10.1515 8.94478 9.28289 9.40716C9.10844 8.89588 8.80965 8.51197 8.23077 8.44376C7.69716 8.38099 7.22754 8.55242 6.76938 8.87234C6.73437 8.70997 6.71505 8.57535 6.67582 8.44738C6.36917 7.45381 5.31886 7.37775 4.68686 7.66267C4.66875 7.67112 4.65245 7.68319 4.63494 7.69285C4.0959 7.98319 4.08987 7.98983 3.63413 7.55824C3.38664 7.32403 3.15122 7.07473 2.9315 6.81457C2.4498 6.24414 1.81116 5.92421 1.14113 5.64413C0.259229 5.27531 -0.0872551 5.00066 0.0183801 3.83444C0.13307 2.57346 0.611146 1.47425 1.4852 0.56096C2.09125 -0.0716439 2.58924 -0.156155 3.37698 0.241638C3.96733 0.539227 4.57639 0.754122 5.23435 0.776457C5.64301 0.79034 6.05408 0.731184 6.46334 0.701003C6.89131 0.669011 7.31929 0.632791 7.8541 0.589933C7.67543 0.885108 7.56858 1.13139 7.40078 1.32395C7.03799 1.73924 6.64926 2.13281 6.26052 2.52517C5.64723 3.1451 5.8247 3.94853 6.65288 4.2262C7.45873 4.49602 8.20179 4.31071 8.8676 3.83022C9.20563 3.58635 9.51227 3.29057 9.7996 2.98635C10.2396 2.51974 10.6531 2.38694 11.2193 2.70023C12.164 3.22357 13.0924 3.77952 14.0057 4.35659C15.0216 4.99824 16.0182 5.6725 17.0142 6.34554C17.4995 6.67332 17.8031 7.13509 17.9082 7.7188C17.9993 8.22585 17.61 8.72324 17.0933 8.72807C16.9689 8.72928 16.8174 8.65926 16.7232 8.57294C15.656 7.59868 14.3763 6.97936 13.0827 6.38659C12.8745 6.29122 12.6258 6.28337 12.3964 6.23508C12.3783 6.27854 12.3602 6.322 12.3421 6.36607L12.3415 6.36486Z" fill="#0B7A66"/>
<path d="M18.3044 7.86323C18.276 6.59741 17.44 5.93101 16.5165 5.34005C15.0907 4.42797 13.6601 3.52313 12.2204 2.63458C11.9271 2.45349 11.5872 2.34122 11.2601 2.2217C10.5767 1.9718 10.0093 2.139 9.48599 2.6545C9.09122 3.04324 8.62763 3.3686 8.16826 3.6843C7.81092 3.92997 7.37992 3.90522 6.97126 3.84546C6.71412 3.80804 6.4455 3.7018 6.35979 3.42413C6.27105 3.13499 6.4449 2.90984 6.63444 2.7034C7.00145 2.305 7.37087 1.90902 7.72158 1.49674C7.88939 1.29935 8.01494 1.06695 8.16343 0.852665C8.62521 0.185654 9.25661 -0.126421 10.057 0.0546682C11.4279 0.364934 12.7957 0.691499 14.1545 1.05187C15.4619 1.39835 16.6891 1.33617 17.8149 0.512821C17.8553 0.483244 17.9 0.459705 17.9404 0.429524C18.8223 -0.235073 19.5316 0.0739835 20.128 0.755482C21.0853 1.84926 21.5163 3.1688 21.6334 4.60061C21.6805 5.17405 21.456 5.59418 20.9181 5.82899C20.7443 5.90505 20.5723 5.98775 20.3942 6.05294C19.8672 6.2461 19.4839 6.57327 19.295 7.12197C19.1447 7.55779 18.8145 7.79321 18.3032 7.86383L18.3044 7.86323Z" fill="#0B7A66"/>
<path d="M8.82056 9.83887C8.67448 10.3544 8.50003 10.987 7.9622 11.4156C7.60304 11.7017 7.19196 11.6528 6.80262 11.4488C6.39276 11.2339 6.21891 10.8614 6.25453 10.425C6.31911 9.62338 7.18653 8.86583 7.98634 8.87186C8.51452 8.87609 8.82237 9.18816 8.82116 9.83887H8.82056Z" fill="#0B7A66"/>
<path d="M10.9019 10.6803C10.7426 11.0926 10.6279 11.5308 10.4118 11.9111C10.1727 12.3312 9.71157 12.4411 9.31679 12.2666C8.9015 12.0831 8.619 11.5918 8.74516 11.1572C8.85441 10.7805 8.99808 10.3996 9.20452 10.0694C9.4677 9.64868 9.89749 9.53399 10.3013 9.68128C10.6297 9.80079 10.8265 10.1696 10.818 10.6483C10.8458 10.6592 10.8742 10.6694 10.9019 10.6803Z" fill="#0B7A66"/>
<path d="M4.18558 9.06984C4.18075 8.50364 4.74756 7.96641 5.3536 7.96218C5.886 7.95856 6.27353 8.33341 6.27897 8.85797C6.28561 9.53585 5.77071 10.1286 5.17553 10.1274C4.66244 10.1262 4.19041 9.62217 4.18558 9.06984Z" fill="#0B7A66"/>
<path d="M12.7987 11.5532C12.8011 12.0494 12.384 12.4786 11.895 12.4828C11.3681 12.4871 10.9431 12.0657 10.9395 11.5351C10.9353 10.949 11.3874 10.3925 11.8673 10.3931C12.3164 10.3931 12.7956 10.9913 12.7987 11.5532Z" fill="#0B7A66"/>
</svg>
