<svg width="15" height="12" viewBox="0 0 15 12" fill="none" xmlns="http://www.w3.org/2000/svg">
<path d="M0.000840626 7.36841C0.000840626 6.43564 0.000840626 5.53274 0.000840626 4.62983C0.000840626 3.27862 0.000840164 1.92699 0.00168125 0.575784C0.00168125 0.188463 0.190085 0.00384523 0.581191 0.00342468C4.93634 0.00216305 9.2915 0.000900701 13.6467 5.96128e-05C13.7236 5.96128e-05 13.801 -0.000780346 13.8775 0.00384564C14.1273 0.0189852 14.3157 0.198556 14.3157 0.448779C14.317 2.73149 14.3141 5.01378 14.3115 7.2965C14.3115 7.31584 14.3014 7.33519 14.2926 7.36799H0L0.000840626 7.36841Z" fill="#0B7A66"/>
<path d="M0.000141054 7.70264H14.307C14.307 8.09753 14.3289 8.48821 14.2995 8.87469C14.2797 9.13417 14.0753 9.26244 13.7641 9.26538C13.204 9.27085 12.6438 9.26748 12.0836 9.26748C8.25374 9.26832 4.42426 9.26874 0.594369 9.26958C0.183077 9.26958 0.0022429 9.09338 0.000560725 8.68881C-0.000700907 8.36752 0.000560725 8.0458 0.000560725 7.70264H0.000141054Z" fill="#0B7A66"/>
<path d="M9.02289 9.47339V11.201H5.26953V9.47339H9.02289Z" fill="#0B7A66"/>
<path d="M7.15875 11.8036C6.41691 11.8036 5.67507 11.802 4.93323 11.8049C4.77174 11.8057 4.63254 11.7864 4.62161 11.5862C4.61278 11.4256 4.71749 11.3494 4.93912 11.349C6.4228 11.3482 7.90648 11.3473 9.39015 11.3478C9.59706 11.3478 9.72407 11.4651 9.68958 11.6228C9.65636 11.7759 9.54618 11.807 9.4053 11.8066C8.65631 11.8032 7.90774 11.8049 7.15875 11.8049V11.8036Z" fill="#0B7A66"/>
</svg>
