<svg width="33" height="33" viewBox="0 0 33 33" fill="none" xmlns="http://www.w3.org/2000/svg">
<path d="M9.37912 20.8145C8.78878 19.766 8.42436 18.6056 8.3093 17.4078C7.8645 12.8005 11.1246 8.71578 15.5913 8.28456C20.058 7.85334 24.0394 11.2402 24.4842 15.8475C24.6002 17.0448 24.4645 18.253 24.0857 19.3947" stroke="url(#paint0_linear_292_2471)" stroke-width="1.5" stroke-linecap="round"/>
<path d="M15.1707 3.92982L15.2908 5.17404M28.814 15.1708L27.5698 15.2909M5.17391 17.453L3.9297 17.5732M24.319 6.72365L23.5242 7.68823M7.69048 9.2181L6.72589 8.42336M20.3811 25.1599C21.5985 24.6317 21.9925 23.432 22.0227 22.2612C22.0316 21.9112 21.7189 21.6513 21.3705 21.685L12.5428 22.5372C12.4576 22.5441 12.3748 22.5689 12.3 22.6102C12.2251 22.6514 12.1598 22.7081 12.1085 22.7764C12.0572 22.8448 12.0209 22.9233 12.0022 23.0067C11.9834 23.0901 11.9826 23.1765 11.9998 23.2602C12.2506 24.4014 12.683 25.2124 14.0804 25.7682M20.3811 25.1599L14.0804 25.7682M20.3811 25.1599C20.4642 27.5944 19.8574 28.62 17.5816 28.812C15.1547 29.0915 14.4805 27.9611 14.0804 25.7682" stroke="url(#paint1_linear_292_2471)" stroke-width="1.5" stroke-linecap="round" stroke-linejoin="round"/>
<defs>
<linearGradient id="paint0_linear_292_2471" x1="15.5913" y1="8.28456" x2="16.7324" y2="20.1046" gradientUnits="userSpaceOnUse">
<stop stop-color="#0B7A66"/>
<stop offset="1" stop-color="#666666"/>
</linearGradient>
<linearGradient id="paint1_linear_292_2471" x1="15.1707" y1="3.92982" x2="17.573" y2="28.8141" gradientUnits="userSpaceOnUse">
<stop stop-color="#0B7A66"/>
<stop offset="1" stop-color="#666666"/>
</linearGradient>
</defs>
</svg>
