<svg width="16" height="16" viewBox="0 0 16 16" fill="none" xmlns="http://www.w3.org/2000/svg">
<path d="M9.43935 6.93334L6.10602 4.55334C5.63935 4.22001 5.01935 4.22001 4.55935 4.55334L1.22602 6.93334C0.872682 7.18668 0.666016 7.58668 0.666016 8.02001V13.3333C0.666016 13.7 0.966016 14 1.33268 14H3.99935V10H6.66602V14H9.33268C9.69935 14 9.99935 13.7 9.99935 13.3333V8.02001C9.99935 7.58668 9.79268 7.18668 9.43935 6.93334Z" fill="url(#paint0_linear_292_2465)"/>
<path d="M14.0193 2H7.97935C7.25268 2 6.66602 2.58667 6.66602 3.31333L6.72602 3.37333C6.77935 3.40667 6.83268 3.43333 6.88602 3.46667L10.2193 5.84667C10.726 6.20667 11.086 6.74 11.246 7.33333H12.666V8.66667H11.3327V10H12.666V11.3333H11.3327V14H14.0193C14.746 14 15.3327 13.4133 15.3327 12.6867V3.31333C15.3327 2.58667 14.746 2 14.0193 2ZM12.666 6H11.3327V4.66667H12.666V6Z" fill="url(#paint1_linear_292_2465)"/>
<defs>
<linearGradient id="paint0_linear_292_2465" x1="5.33268" y1="4.30334" x2="5.33268" y2="14" gradientUnits="userSpaceOnUse">
<stop stop-color="#0B7A66"/>
<stop offset="1" stop-color="#AEEFE3"/>
</linearGradient>
<linearGradient id="paint1_linear_292_2465" x1="10.9993" y1="2" x2="10.9993" y2="14" gradientUnits="userSpaceOnUse">
<stop stop-color="#0B7A66"/>
<stop offset="1" stop-color="#AEEFE3"/>
</linearGradient>
</defs>
</svg>
