<svg width="24" height="18" viewBox="0 0 24 18" fill="none" xmlns="http://www.w3.org/2000/svg">
<path d="M11.917 17.9928C8.55996 17.9928 5.20397 17.9949 1.84693 17.9918C0.939905 17.9918 0.34823 17.4065 0.342957 16.5193C0.33241 14.5006 0.342957 12.4809 0.307098 10.4632C0.29866 9.98261 0.484284 9.89738 0.897718 9.98056C2.29622 10.264 3.68945 10.5782 5.09534 10.8154C6.33248 11.0238 7.58438 11.1511 8.83207 11.299C9.05777 11.3257 9.34042 11.3873 9.37101 11.0002C9.40159 10.6192 9.19066 10.4652 8.86054 10.4221C8.25516 10.343 7.63712 10.3276 7.04017 10.2116C4.87069 9.78957 2.70755 9.33674 0.542292 8.89624C0.147842 8.81615 0.00545983 8.56766 0.00651451 8.19081C0.0117879 7.09623 -0.00614173 6.00062 0.0022957 4.90603C0.00756909 4.24168 0.716313 3.60402 1.42928 3.603C3.06297 3.60094 4.69773 3.60402 6.33142 3.60094C7.037 3.59889 7.05177 3.57116 7.03911 2.86266C7.03173 2.45296 7.03068 2.04121 7.05915 1.63254C7.12771 0.653979 7.83118 0.0142726 8.85211 0.00913849C10.7853 -0.000102866 12.7186 -0.00523795 14.6518 0.00811067C16.1484 0.0183788 16.8392 0.760768 16.7422 2.20961C16.6803 3.13169 17.1187 3.59684 18.0573 3.60505C19.498 3.61326 20.9398 3.61121 22.3805 3.61943C23.394 3.62559 23.9825 4.1965 23.9889 5.17711C23.9952 6.13513 23.9741 7.09418 23.9994 8.05117C24.0121 8.52761 23.8233 8.78637 23.3497 8.88494C21.407 9.28848 19.4696 9.71666 17.5226 10.0997C16.7221 10.2578 15.9037 10.3297 15.0926 10.4324C14.7752 10.4724 14.5811 10.5802 14.5906 10.9458C14.6012 11.3596 14.8954 11.3247 15.1422 11.2949C16.5787 11.1224 18.0183 10.9684 19.4442 10.7342C20.6635 10.534 21.8647 10.2373 23.0734 9.98056C23.3708 9.91689 23.5375 9.97234 23.5364 10.3245C23.5311 12.4121 23.5469 14.4996 23.5417 16.5861C23.5396 17.3962 22.8382 17.999 21.9322 18C18.5931 18 15.254 18 11.9149 18C11.9149 17.9979 11.9149 17.9949 11.9149 17.9928H11.917ZM10.1272 10.9622C10.143 11.3031 10.1504 11.645 10.1757 11.9859C10.2084 12.4223 10.4563 12.7098 10.9024 12.717C11.6185 12.7283 12.3347 12.678 13.0508 12.6554C13.4937 12.6421 13.692 12.3535 13.7089 11.99C13.7384 11.3442 13.7194 10.6942 13.6868 10.0473C13.6667 9.65095 13.4737 9.37473 13.0044 9.36447C12.6395 9.35625 12.2745 9.28746 11.9107 9.28643C10.219 9.2854 10.162 9.34496 10.1283 10.9622H10.1272ZM11.9223 3.59786C11.9223 3.603 11.9223 3.60813 11.9223 3.61429C12.5023 3.61429 13.0824 3.61737 13.6614 3.61429C14.9344 3.60608 14.9186 3.60505 14.887 2.34104C14.8743 1.83995 14.6771 1.63767 14.1582 1.64588C12.9284 1.66539 11.6987 1.65102 10.4679 1.65205C8.8732 1.65205 8.88269 1.65204 8.99554 3.19124C9.01875 3.50545 9.14109 3.60608 9.44484 3.603C10.2707 3.59376 11.0965 3.59992 11.9223 3.59992V3.59786Z" fill="#F6F5F1"/>
</svg>
