<svg width="16" height="16" viewBox="0 0 16 16" fill="none" xmlns="http://www.w3.org/2000/svg">
<path d="M5.05336 8.70667V13.4267C5.05336 13.706 4.94238 13.9739 4.74485 14.1715C4.54731 14.369 4.27939 14.48 4.00003 14.48H2.74669C2.46733 14.48 2.19941 14.369 2.00187 14.1715C1.80434 13.9739 1.69336 13.706 1.69336 13.4267V8.70667C1.69335 8.42669 1.80412 8.15808 2.00147 7.95948C2.19881 7.76088 2.46672 7.64843 2.74669 7.64667H4.00003C4.28 7.64843 4.5479 7.76088 4.74525 7.95948C4.9426 8.15808 5.05336 8.42669 5.05336 8.70667ZM9.68003 5.64667V13.4467C9.67827 13.7266 9.56581 13.9945 9.36721 14.1919C9.16861 14.3892 8.9 14.5 8.62003 14.5H7.37336C7.09338 14.5 6.82477 14.3892 6.62617 14.1919C6.42758 13.9945 6.31512 13.7266 6.31336 13.4467V5.64667C6.31336 5.36554 6.42504 5.09592 6.62383 4.89713C6.82262 4.69834 7.09223 4.58667 7.37336 4.58667H8.62003C8.90116 4.58667 9.17077 4.69834 9.36956 4.89713C9.56835 5.09592 9.68003 5.36554 9.68003 5.64667ZM14.3067 2.56V13.4467C14.3049 13.7266 14.1925 13.9945 13.9939 14.1919C13.7953 14.3892 13.5267 14.5 13.2467 14.5H12C11.72 14.5 11.4514 14.3892 11.2528 14.1919C11.0542 13.9945 10.9418 13.7266 10.94 13.4467V2.56C10.94 2.27887 11.0517 2.00926 11.2505 1.81047C11.4493 1.61168 11.7189 1.5 12 1.5H13.2467C13.5278 1.5 13.7974 1.61168 13.9962 1.81047C14.195 2.00926 14.3067 2.27887 14.3067 2.56Z" fill="url(#paint0_linear_290_1983)"/>
<defs>
<linearGradient id="paint0_linear_290_1983" x1="8.00003" y1="1.5" x2="8.00003" y2="14.5" gradientUnits="userSpaceOnUse">
<stop stop-color="#0B7A66"/>
<stop offset="1" stop-color="#AEEFE3"/>
</linearGradient>
</defs>
</svg>
