<svg width="16" height="16" viewBox="0 0 16 16" fill="none" xmlns="http://www.w3.org/2000/svg">
<g clip-path="url(#clip0_282_1476)">
<path d="M2.00033 15.3334C1.63366 15.3334 1.31988 15.2029 1.05899 14.942C0.798103 14.6811 0.667437 14.3671 0.666992 14V12.6667C0.666992 12.4778 0.730992 12.3196 0.858992 12.192C0.986992 12.0645 1.14521 12.0005 1.33366 12C1.5221 11.9996 1.68055 12.0636 1.80899 12.192C1.93744 12.3205 2.00121 12.4787 2.00033 12.6667V14H3.33366C3.52255 14 3.68099 14.064 3.80899 14.192C3.93699 14.32 4.00077 14.4782 4.00033 14.6667C3.99988 14.8551 3.93588 15.0136 3.80833 15.142C3.68077 15.2705 3.52255 15.3342 3.33366 15.3334H2.00033ZM14.0003 15.3334H12.667C12.4781 15.3334 12.3199 15.2694 12.1923 15.1414C12.0648 15.0134 12.0008 14.8551 12.0003 14.6667C11.9999 14.4782 12.0639 14.32 12.1923 14.192C12.3208 14.064 12.479 14 12.667 14H14.0003V12.6667C14.0003 12.4778 14.0643 12.3196 14.1923 12.192C14.3203 12.0645 14.4785 12.0005 14.667 12C14.8554 11.9996 15.0139 12.0636 15.1423 12.192C15.2708 12.3205 15.3345 12.4787 15.3337 12.6667V14C15.3337 14.3667 15.2032 14.6807 14.9423 14.942C14.6814 15.2034 14.3674 15.3338 14.0003 15.3334ZM8.00033 12.3334C6.82255 12.3334 5.73366 12.0222 4.73366 11.4C3.73366 10.7778 2.95033 9.9278 2.38366 8.85002C2.31699 8.71669 2.26699 8.58069 2.23366 8.44202C2.20033 8.30335 2.18366 8.16158 2.18366 8.01669C2.18366 7.86113 2.20033 7.71113 2.23366 7.56669C2.26699 7.42224 2.31699 7.28335 2.38366 7.15002C2.95033 6.07224 3.73366 5.22224 4.73366 4.60002C5.73366 3.9778 6.82255 3.66669 8.00033 3.66669C9.1781 3.66669 10.267 3.9778 11.267 4.60002C12.267 5.22224 13.0503 6.07224 13.617 7.15002C13.6837 7.28335 13.7337 7.41958 13.767 7.55869C13.8003 7.6978 13.817 7.84491 13.817 8.00002C13.817 8.15513 13.8003 8.30246 13.767 8.44202C13.7337 8.58158 13.6837 8.71758 13.617 8.85002C13.0503 9.9278 12.267 10.7778 11.267 11.4C10.267 12.0222 9.1781 12.3334 8.00033 12.3334ZM8.00033 10.3334C8.64477 10.3334 9.19477 10.1056 9.65033 9.65002C10.1059 9.19447 10.3337 8.64446 10.3337 8.00002C10.3337 7.35558 10.1059 6.80558 9.65033 6.35002C9.19477 5.89446 8.64477 5.66669 8.00033 5.66669C7.35588 5.66669 6.80588 5.89446 6.35033 6.35002C5.89477 6.80558 5.66699 7.35558 5.66699 8.00002C5.66699 8.64446 5.89477 9.19447 6.35033 9.65002C6.80588 10.1056 7.35588 10.3334 8.00033 10.3334ZM8.00033 9.00002C7.72255 9.00002 7.48633 8.90291 7.29166 8.70869C7.09699 8.51446 6.99988 8.27824 7.00033 8.00002C7.00077 7.7218 7.0981 7.4858 7.29233 7.29202C7.48655 7.09824 7.72255 7.00091 8.00033 7.00002C8.2781 6.99913 8.51433 7.09646 8.70899 7.29202C8.90366 7.48758 9.00077 7.72358 9.00033 8.00002C8.99988 8.27646 8.90277 8.51269 8.70899 8.70869C8.51521 8.90469 8.27899 9.0018 8.00033 9.00002ZM15.3337 2.00002V3.33335C15.3337 3.52224 15.2697 3.68069 15.1417 3.80869C15.0137 3.93669 14.8554 4.00046 14.667 4.00002C14.4785 3.99958 14.3203 3.93558 14.1923 3.80802C14.0643 3.68046 14.0003 3.52224 14.0003 3.33335V2.00002H12.667C12.4781 2.00002 12.3199 1.93602 12.1923 1.80802C12.0648 1.68002 12.0008 1.5218 12.0003 1.33335C11.9999 1.14491 12.0639 0.986687 12.1923 0.858687C12.3208 0.730687 12.479 0.666687 12.667 0.666687H14.0003C14.367 0.666687 14.681 0.797354 14.9423 1.05869C15.2037 1.32002 15.3341 1.6338 15.3337 2.00002ZM2.00033 0.666687H3.33366C3.52255 0.666687 3.68099 0.730687 3.80899 0.858687C3.93699 0.986687 4.00077 1.14491 4.00033 1.33335C3.99988 1.5218 3.93588 1.68024 3.80833 1.80869C3.68077 1.93713 3.52255 2.00091 3.33366 2.00002H2.00033V3.33335C2.00033 3.52224 1.93633 3.68069 1.80833 3.80869C1.68033 3.93669 1.5221 4.00046 1.33366 4.00002C1.14521 3.99958 0.986992 3.93558 0.858992 3.80802C0.730992 3.68046 0.666992 3.52224 0.666992 3.33335V2.00002C0.666992 1.63335 0.797659 1.31958 1.05899 1.05869C1.32033 0.797798 1.6341 0.667131 2.00033 0.666687Z" fill="url(#paint0_linear_282_1476)"/>
</g>
<defs>
<linearGradient id="paint0_linear_282_1476" x1="8.00033" y1="0.666687" x2="8.00033" y2="15.3334" gradientUnits="userSpaceOnUse">
<stop stop-color="#0B7A66"/>
<stop offset="1" stop-color="#AEEFE3"/>
</linearGradient>
<clipPath id="clip0_282_1476">
<rect width="16" height="16" fill="white"/>
</clipPath>
</defs>
</svg>
