<svg width="16" height="16" viewBox="0 0 16 16" fill="none" xmlns="http://www.w3.org/2000/svg">
<path d="M8 10.6667C7.63333 10.6667 7.31956 10.5362 7.05867 10.2753C6.79778 10.0144 6.66711 9.70044 6.66667 9.33333C6.66622 8.96622 6.79689 8.65244 7.05867 8.392C7.32044 8.13156 7.63422 8.00089 8 8C8.36578 7.99911 8.67978 8.12978 8.942 8.392C9.20422 8.65422 9.33467 8.968 9.33333 9.33333C9.332 9.69867 9.20156 10.0127 8.942 10.2753C8.68244 10.538 8.36844 10.6684 8 10.6667ZM4.91667 4.66667H11.0833L11.9333 2.96667C12.0444 2.74444 12.036 2.52778 11.908 2.31667C11.78 2.10556 11.5884 2 11.3333 2H4.66667C4.41111 2 4.21956 2.10556 4.092 2.31667C3.96444 2.52778 3.956 2.74444 4.06667 2.96667L4.91667 4.66667ZM5.6 14H10.4C11.4 14 12.25 13.6529 12.95 12.9587C13.65 12.2644 14 11.4116 14 10.4C14 9.97778 13.9278 9.56667 13.7833 9.16667C13.6389 8.76667 13.4333 8.40556 13.1667 8.08333L11.4333 6H4.56667L2.83333 8.08333C2.56667 8.40556 2.36111 8.76667 2.21667 9.16667C2.07222 9.56667 2 9.97778 2 10.4C2 11.4111 2.34733 12.264 3.042 12.9587C3.73667 13.6533 4.58933 14.0004 5.6 14Z" fill="url(#paint0_linear_291_2204)"/>
<defs>
<linearGradient id="paint0_linear_291_2204" x1="8" y1="2" x2="8" y2="14" gradientUnits="userSpaceOnUse">
<stop stop-color="#0B7A66"/>
<stop offset="1" stop-color="#AEEFE3"/>
</linearGradient>
</defs>
</svg>
