<svg width="34" height="34" viewBox="0 0 34 34" fill="none" xmlns="http://www.w3.org/2000/svg">
<g clip-path="url(#clip0_263_286)">
<path d="M6.73505 6.32076L22.7053 4.65072C26.4824 4.25575 29.8704 7.00229 30.2654 10.7794L31.4053 21.6797M6.37219 10.2027L23.1029 8.45316C24.7823 8.27754 26.2991 9.61041 26.4895 11.4305L27.7884 23.8518C27.9787 25.6719 26.7705 27.2897 25.0911 27.4653L8.36033 29.2149C6.68092 29.3905 5.1641 28.0577 4.97377 26.2376L3.67485 13.8163C3.48452 11.9962 4.69278 10.3783 6.37219 10.2027ZM23.3365 18.0388C23.3892 18.543 23.2395 19.0475 22.9202 19.4414C22.601 19.8352 22.1383 20.0861 21.6341 20.1388C21.1299 20.1915 20.6253 20.0418 20.2315 19.7225C19.8377 19.4033 19.5868 18.9406 19.5341 18.4364C19.4813 17.9322 19.6311 17.4276 19.9503 17.0338C20.2696 16.64 20.7322 16.3891 21.2365 16.3364C21.7407 16.2836 22.2452 16.4334 22.6391 16.7526C23.0329 17.0719 23.2838 17.5345 23.3365 18.0388Z" stroke="url(#paint0_linear_263_286)" stroke-width="2" stroke-miterlimit="10" stroke-linecap="round" stroke-linejoin="round"/>
</g>
<defs>
<linearGradient id="paint0_linear_263_286" x1="7.64634" y1="4.02442" x2="26.9634" y2="28.5732" gradientUnits="userSpaceOnUse">
<stop stop-color="#0B7A66"/>
<stop offset="1" stop-color="#3A3A3A"/>
</linearGradient>
<clipPath id="clip0_263_286">
<rect width="30.5854" height="30.5854" fill="white" transform="translate(0 3.18103) rotate(-5.96982)"/>
</clipPath>
</defs>
</svg>
