<svg width="33" height="33" viewBox="0 0 33 33" fill="none" xmlns="http://www.w3.org/2000/svg">
<g clip-path="url(#clip0_282_1474)">
<path d="M22.4194 0.634312L12.1438 1.50649C11.1121 1.59407 10.3466 2.50159 10.4341 3.53335L20.7097 2.66117L21.344 10.1343L28.8171 9.49999L30.0857 24.4462L23.5468 25.0013L23.7053 26.8696L30.2443 26.3145C31.2761 26.227 32.0416 25.3194 31.954 24.2877L30.5269 7.47359L22.4194 0.634312ZM23.0537 8.10744L22.6436 3.27606L27.8841 7.69744L23.0537 8.10744ZM2.18544 6.11523C1.15368 6.20281 0.388159 7.11034 0.475734 8.1421L2.37867 30.5615C2.46625 31.5932 3.37377 32.3588 4.40553 32.2712L20.2859 30.9233C21.3177 30.8357 22.0832 29.9282 21.9956 28.8964L20.5685 12.0823L12.461 5.24306L2.18544 6.11523ZM20.1274 29.055L4.24695 30.4029L2.34402 7.98352L10.7513 7.26992L11.3856 14.743L18.8587 14.1087L20.1274 29.055ZM13.0953 12.7162L12.6852 7.88481L17.9257 12.3062L13.0953 12.7162Z" fill="url(#paint0_linear_282_1474)"/>
</g>
<defs>
<linearGradient id="paint0_linear_282_1474" x1="14.9463" y1="1.26862" x2="17.4835" y2="31.1611" gradientUnits="userSpaceOnUse">
<stop stop-color="#0B7A66"/>
<stop offset="1" stop-color="#666666"/>
</linearGradient>
<clipPath id="clip0_282_1474">
<rect width="30" height="30" fill="white" transform="translate(0 2.53725) rotate(-4.85158)"/>
</clipPath>
</defs>
</svg>
