<svg width="16" height="16" viewBox="0 0 16 16" fill="none" xmlns="http://www.w3.org/2000/svg">
<path d="M14.6673 5.44132V5.48999C14.6673 6.06332 14.6673 6.35065 14.5293 6.58532C14.3913 6.81999 14.14 6.95932 13.6387 7.23865L13.11 7.53199C13.474 6.29999 13.596 4.97599 13.6406 3.84399L13.6473 3.69665L13.6487 3.66199C14.0827 3.81265 14.3266 3.92532 14.4787 4.13599C14.6673 4.39799 14.6673 4.74599 14.6673 5.44132ZM1.33398 5.44132V5.48999C1.33398 6.06332 1.33398 6.35065 1.47198 6.58532C1.60998 6.81999 1.86132 6.95932 2.36265 7.23865L2.89198 7.53199C2.52732 6.29999 2.40532 4.97599 2.36065 3.84399L2.35398 3.69665L2.35332 3.66199C1.91865 3.81265 1.67465 3.92532 1.52265 4.13599C1.33398 4.39799 1.33398 4.74665 1.33398 5.44132Z" fill="url(#paint0_linear_292_2468)"/>
<path fill-rule="evenodd" clip-rule="evenodd" d="M10.9176 1.56468C9.95304 1.40667 8.977 1.32929 7.9996 1.33334C6.81093 1.33334 5.83093 1.43801 5.0816 1.56468C4.32226 1.69268 3.94293 1.75668 3.6256 2.14734C3.30893 2.53801 3.3256 2.96001 3.35893 3.80401C3.47426 6.70268 4.0996 10.324 7.4996 10.644V13H6.54626C6.3922 13.0001 6.24293 13.0536 6.12382 13.1513C6.00471 13.249 5.92313 13.3849 5.89293 13.536L5.76626 14.1667H3.9996C3.86699 14.1667 3.73981 14.2194 3.64604 14.3131C3.55228 14.4069 3.4996 14.5341 3.4996 14.6667C3.4996 14.7993 3.55228 14.9265 3.64604 15.0202C3.73981 15.114 3.86699 15.1667 3.9996 15.1667H11.9996C12.1322 15.1667 12.2594 15.114 12.3532 15.0202C12.4469 14.9265 12.4996 14.7993 12.4996 14.6667C12.4996 14.5341 12.4469 14.4069 12.3532 14.3131C12.2594 14.2194 12.1322 14.1667 11.9996 14.1667H10.2329L10.1063 13.536C10.0761 13.3849 9.99448 13.249 9.87537 13.1513C9.75627 13.0536 9.60699 13.0001 9.45293 13H8.4996V10.644C11.8996 10.324 12.5256 6.70334 12.6403 3.80401C12.6736 2.96001 12.6909 2.53734 12.3736 2.14734C12.0563 1.75668 11.6769 1.69268 10.9176 1.56468Z" fill="url(#paint1_linear_292_2468)"/>
<defs>
<linearGradient id="paint0_linear_292_2468" x1="8.00065" y1="3.66199" x2="8.00065" y2="7.53199" gradientUnits="userSpaceOnUse">
<stop stop-color="#0B7A66"/>
<stop offset="1" stop-color="#AEEFE3"/>
</linearGradient>
<linearGradient id="paint1_linear_292_2468" x1="7.99965" y1="1.33319" x2="7.99965" y2="15.1667" gradientUnits="userSpaceOnUse">
<stop stop-color="#0B7A66"/>
<stop offset="1" stop-color="#AEEFE3"/>
</linearGradient>
</defs>
</svg>
