<svg width="12" height="14" viewBox="0 0 12 14" fill="none" xmlns="http://www.w3.org/2000/svg">
<path d="M1.4961 5.86776C1.32381 4.01364 1.6889 2.40482 2.97642 1.18762C3.88277 0.330916 4.93484 -0.0401572 6.11876 0.00342533C7.47885 0.0538565 8.59241 0.682689 9.48104 1.80463C10.3891 2.95022 10.5486 4.35296 10.4229 5.87149C10.7342 5.87149 11.0062 5.869 11.2788 5.87149C11.7602 5.87648 11.9968 6.13548 11.9973 6.66594C11.9996 8.85191 12.0007 11.0379 11.9996 13.2239C11.9996 13.7587 11.7857 13.9978 11.3076 13.9984C7.77691 14.0002 4.24565 14.0003 0.714949 13.9996C0.224651 13.9996 0.00304711 13.7568 0.00193909 13.2064C-0.000830955 10.9999 -0.000277064 8.79276 0.00138496 6.58625C0.00138496 6.13237 0.222435 5.88021 0.631294 5.86776C0.897772 5.85967 1.1648 5.86651 1.4961 5.86651V5.86776ZM8.7985 5.85344C8.7985 5.47738 8.80404 5.11752 8.79739 4.75765C8.77523 3.49127 8.22067 2.59285 7.22899 2.05678C6.20352 1.50266 5.18359 1.5836 4.25618 2.3382C3.18417 3.21047 3.05896 4.48308 3.16312 5.85344H8.7985ZM11.9375 11.0155H0.0966746V11.3511H11.9237C11.9287 11.2384 11.9325 11.1475 11.9381 11.0155H11.9375ZM0.108863 9.08103H11.9181V8.72054H0.109417V9.08103H0.108863Z" fill="#0B7A66"/>
</svg>
