<svg width="12" height="18" viewBox="0 0 12 18" fill="none" xmlns="http://www.w3.org/2000/svg">
<path d="M6.61292 6.87923C6.75359 6.87923 6.84633 6.87923 6.9396 6.87923C8.46633 6.87873 9.99255 6.87325 11.5193 6.88471C11.6708 6.8857 11.8846 6.94844 11.9568 7.0545C12.0665 7.21484 11.9485 7.3946 11.813 7.53901C9.91681 9.55518 8.01754 11.5689 6.13063 13.593C4.97231 14.8354 3.83512 16.0957 2.68555 17.346C2.50367 17.5437 2.32023 17.7444 2.11155 17.9137C2.02704 17.9819 1.82609 18.0282 1.76168 17.9804C1.67202 17.9132 1.63853 17.7503 1.62411 17.6239C1.61483 17.5442 1.67821 17.4531 1.71891 17.3719C2.87002 15.0893 4.02216 12.8068 5.17687 10.5262C5.27323 10.3365 5.39277 10.1577 5.52622 9.93212C5.39328 9.93212 5.30311 9.93212 5.21294 9.93212C3.77225 9.93163 2.33105 9.93212 0.890365 9.92864C0.720842 9.92864 0.547197 9.91619 0.382312 9.88083C0.00307555 9.79967 -0.121104 9.47501 0.133438 9.1867C0.444659 8.83416 0.785251 8.50651 1.11657 8.1709C2.89888 6.36734 4.68221 4.56528 6.46504 2.76273C7.28843 1.93016 8.1108 1.0971 8.93729 0.267031C9.08311 0.120636 9.2583 -0.0974616 9.47471 0.047938C9.68443 0.188856 9.53912 0.426873 9.45668 0.610614C8.59464 2.53815 7.72899 4.4647 6.86282 6.39025C6.79584 6.53963 6.7134 6.68254 6.61292 6.87873V6.87923Z" fill="#0B7A66"/>
</svg>
