<svg width="10" height="14" viewBox="0 0 10 14" fill="none" xmlns="http://www.w3.org/2000/svg">
<path d="M0.0101989 7.11441C0.0101989 5.36395 0.038379 3.61284 0.000607811 1.8637C-0.0251725 0.686595 0.772817 -0.0123981 1.69611 0.000166561C3.90123 0.0312475 6.10755 0.00810181 8.31267 0.00810181C9.43921 0.00810181 9.99619 0.631045 9.99619 1.87891C9.99679 5.34676 10.001 8.81394 9.99979 12.2818C9.99979 12.5106 9.99139 12.7473 9.94043 12.9669C9.79174 13.6031 9.33609 13.9952 8.74074 13.9959C6.24545 14.0012 3.75075 14.0018 1.25545 13.9952C0.569574 13.9932 0.0227896 13.3961 0.0179932 12.6303C0.00660193 10.7919 0.0143961 8.95347 0.0143961 7.11507H0.0101989V7.11441ZM4.79035 1.89611C5.04876 1.89611 5.30716 1.89875 5.56557 1.89545C5.7892 1.89214 5.99904 1.84915 6.00024 1.53173C6.00143 1.23018 5.81198 1.13958 5.58175 1.13628C5.04516 1.129 4.50797 1.12966 3.97138 1.1376C3.76214 1.14091 3.59726 1.23018 3.59906 1.50263C3.60086 1.78038 3.75614 1.89015 3.98517 1.89545C4.25316 1.9014 4.52176 1.89677 4.79035 1.89611ZM6.86777 1.11578C6.66753 1.1495 6.52843 1.26721 6.52903 1.51851C6.52963 1.78832 6.67592 1.91264 6.90914 1.91925C7.14356 1.92653 7.25988 1.78435 7.25928 1.5357C7.25928 1.26721 7.10519 1.15215 6.86777 1.11512V1.11578Z" fill="#0B7A66"/>
</svg>
