<svg width="20" height="11" viewBox="0 0 20 11" fill="none" xmlns="http://www.w3.org/2000/svg">
<path d="M10.1281 10.9974C7.2806 10.9798 4.75123 10.1165 2.5256 8.45059C1.57497 7.73906 0.770595 6.90109 0.0862195 5.95728C-0.0200306 5.81086 -0.0306556 5.70442 0.0687196 5.54447C1.88747 2.61601 4.5731 0.800128 8.10248 0.191502C12.0987 -0.497686 15.4912 0.69428 18.275 3.42928C18.8806 4.02379 19.35 4.7412 19.88 5.40275C20.0387 5.60034 20.0406 5.7744 19.8819 6.00315C18.3019 8.28594 16.0919 9.76605 13.3469 10.5611C12.3019 10.8639 11.2287 11.025 10.1275 10.9968L10.1281 10.9974ZM8.69123 1.79569C8.41748 1.82744 8.13685 1.8345 7.8706 1.89507C5.5481 2.42372 3.62185 3.56982 2.05685 5.25574C1.4756 5.88201 1.4956 5.89201 2.0981 6.48123C4.14997 8.48764 6.6556 9.60786 9.60123 9.80074C11.1087 9.89953 12.5762 9.6208 13.975 9.08039C15.6962 8.41472 17.1356 7.38388 18.345 6.0549C18.5344 5.84732 18.4631 5.72442 18.3144 5.56153C16.8731 3.98086 15.1444 2.79007 13.0425 2.10147C12.9581 2.07383 12.8694 2.05796 12.7825 2.0362C12.9894 2.24731 13.2256 2.3902 13.4275 2.56838C14.4931 3.50807 14.8631 4.69534 14.7219 6.02667C14.6156 7.02341 14.1725 7.88136 13.3056 8.50469C12.1937 9.30384 10.92 9.50084 9.56623 9.34501C6.22185 8.95984 5.21935 5.64091 6.41123 3.55571C6.91185 2.68011 7.70811 2.14087 8.69186 1.79628L8.69123 1.79569ZM8.60873 4.29605C9.23373 4.30076 9.80561 3.79328 9.81186 3.22934C9.81686 2.79419 9.39248 2.39314 8.89561 2.42019C8.22311 2.45665 7.6956 2.88592 7.68373 3.45339C7.6731 3.94734 8.05248 4.29253 8.60873 4.29664V4.29605Z" fill="#0B7A66"/>
</svg>
