<svg width="17" height="15" viewBox="0 0 17 15" fill="none" xmlns="http://www.w3.org/2000/svg">
<path d="M6.21631 9.85365C7.48244 8.08886 8.73358 6.34561 9.98347 4.60236C10.9534 3.25003 11.9295 1.90249 12.8863 0.542372C13.1469 0.171812 13.4394 -0.0119726 13.9319 0.00778264C14.8037 0.0425039 15.6779 0.00598642 16.5516 0C16.6141 0 16.6766 1.53477e-06 16.7385 0.00718524C17.0135 0.0425051 17.0691 0.14128 16.9172 0.360981C16.6185 0.791405 16.306 1.21285 16.0023 1.64028C13.7569 4.8053 11.5108 7.96973 9.26791 11.1365C8.41736 12.3374 7.57806 13.5455 6.73001 14.7476C6.49628 15.0792 6.36005 15.0852 6.10257 14.7589C5.35201 13.8077 4.60958 12.8505 3.86527 11.8944C2.62414 10.3008 1.38237 8.70725 0.146237 7.11007C0.0737433 7.01609 0.0474957 6.88918 0 6.77723C0.122489 6.74071 0.244978 6.67366 0.368091 6.67247C1.38737 6.66468 2.40728 6.67367 3.42656 6.66708C3.68029 6.66529 3.8509 6.75329 4.00026 6.95144C4.72769 7.91705 5.46763 8.87427 6.21693 9.85365H6.21631Z" fill="#0B7A66"/>
</svg>
